<?xml version="1.0" encoding="utf-8"?>
<!-- Generator: Adobe Illustrator 20.1.0, SVG Export Plug-In . SVG Version: 6.00 Build 0)  -->
<svg version="1.1" id="Capa_1" xmlns="http://www.w3.org/2000/svg" xmlns:xlink="http://www.w3.org/1999/xlink" x="0px" y="0px"
	 viewBox="0 0 28.4 28.4" style="enable-background:new 0 0 28.4 28.4;" xml:space="preserve">
<style type="text/css">
	.st0{fill:#1E1E1C;}
</style>
<g>
	<path class="st0" d="M23.7,21.6c2-2.2,3.2-5.2,3.2-8.5c0-7.1-5.8-12.9-12.9-12.9v0C6.9,0.2,1.2,5.9,1.2,13c0,3.3,1.2,6.2,3.2,8.5
		l1.5-1.3c-1.7-2-2.7-4.5-2.7-7.2c0-3,1.2-5.7,3.2-7.7c2-2,4.7-3.2,7.7-3.2c3,0,5.7,1.2,7.7,3.2c2,2,3.2,4.7,3.2,7.7
		c0,2.8-1,5.3-2.7,7.2L23.7,21.6L23.7,21.6z"/>
	<path class="st0" d="M8.8,17.5c-1-1.2-1.6-2.8-1.6-4.4c0-1.9,0.8-3.6,2-4.9c1.3-1.2,3-2,4.9-2c1.9,0,3.6,0.8,4.9,2
		c1.3,1.3,2,3,2,4.9c0,1.7-0.6,3.3-1.6,4.4l1.5,1.3c1.4-1.5,2.1-3.6,2.1-5.7c0-4.9-4-8.9-8.9-8.9c-4.9,0-8.9,4-8.9,8.9
		c0,2.2,0.8,4.1,2.1,5.7L8.8,17.5L8.8,17.5z"/>
	<path class="st0" d="M21,18.7c1.3-1.5,2.1-3.5,2.1-5.7c0-4.9-4-8.9-8.9-8.9c-4.9,0-8.9,4-8.9,8.9c0,2.1,0.8,4.2,2.1,5.7l1.5-1.3
		c-1-1.1-1.6-2.7-1.6-4.4c0-1.9,0.8-3.6,2-4.9c1.3-1.3,3-2,4.9-2c1.9,0,3.6,0.8,4.9,2c1.3,1.2,2,3,2,4.9c0,1.7-0.6,3.2-1.6,4.4
		L21,18.7L21,18.7z"/>
	<path class="st0" d="M11.7,14.8c-0.4-0.6-0.6-1.1-0.6-1.8c0-0.8,0.3-1.6,0.9-2.1c0.5-0.5,1.3-0.9,2.1-0.9c0.8,0,1.6,0.3,2.1,0.9
		c0.5,0.5,0.9,1.3,0.9,2.1c0,0.6-0.2,1.2-0.6,1.8l1.6,1.1c0.6-0.8,1-1.8,1-2.9c0-1.4-0.6-2.6-1.5-3.5c-0.9-0.9-2.1-1.4-3.5-1.4
		c-1.4,0-2.6,0.6-3.5,1.5c-0.9,0.9-1.4,2.1-1.4,3.5c0,1.1,0.4,2.1,1,2.9L11.7,14.8L11.7,14.8z"/>
	<path class="st0" d="M18.1,15.9c0.6-0.8,1-1.8,1-2.9c0-1.4-0.6-2.6-1.4-3.5c-0.9-0.9-2.1-1.5-3.5-1.5c-1.4,0-2.6,0.6-3.5,1.4
		c-0.9,0.9-1.5,2.1-1.5,3.5c0,1.1,0.4,2.1,1,2.9l1.6-1.1c-0.4-0.6-0.6-1.1-0.6-1.8c0-0.8,0.3-1.6,0.9-2.1c0.5-0.5,1.3-0.9,2.1-0.9
		c0.8,0,1.6,0.3,2.1,0.9c0.5,0.5,0.9,1.3,0.9,2.1c0,0.6-0.2,1.2-0.6,1.8L18.1,15.9L18.1,15.9z"/>
	<path class="st0" d="M14.1,11.3c-1,0-1.8,0.8-1.8,1.8c0,0.6,0.3,1.1,0.8,1.5v13.7h2V14.5c0.5-0.3,0.8-0.9,0.8-1.5
		C15.9,12.1,15.1,11.3,14.1,11.3z"/>
</g>
</svg>
