<?xml version="1.0" encoding="utf-8"?>
<!-- Generator: Adobe Illustrator 20.1.0, SVG Export Plug-In . SVG Version: 6.00 Build 0)  -->
<svg version="1.1" id="Capa_1" xmlns="http://www.w3.org/2000/svg" xmlns:xlink="http://www.w3.org/1999/xlink" x="0px" y="0px"
	 viewBox="0 0 200 200" style="enable-background:new 0 0 200 200;" xml:space="preserve">
<style type="text/css">
	.st0{fill:none;stroke:#000000;stroke-width:5;stroke-miterlimit:10;}
</style>
<circle class="st0" cx="100" cy="100" r="95.9"/>
<g>
	<g>
		<path d="M100.2,114.1c-1.8,0-2.7-1.5-2.7-3.3l-0.6-29.9c0-1.8,1.5-3.3,3.3-3.3c1.8,0,3.3,1.5,3.3,3.3l-0.6,29.9
			C102.9,112.7,102,114.1,100.2,114.1z"/>
		<path d="M104,120.9c0,2.1-1.7,3.8-3.8,3.8c-2.1,0-3.8-1.7-3.8-3.8c0-2.1,1.7-3.8,3.8-3.8C102.3,117.1,104,118.8,104,120.9z"/>
	</g>
	<path d="M147.1,136.1H52.9c-1.9,0-3.6-1-4.4-2.7c-0.9-1.7-0.7-3.7,0.4-5.2L96.1,58c0.9-1.3,2.4-2.1,4-2.1c1.6,0,3.1,0.8,4,2.1
		l46.9,70.2c1.1,1.5,1.2,3.5,0.4,5.2C150.6,135.1,148.9,136.1,147.1,136.1z M100.1,59.4c-0.5,0-1,0.2-1.2,0.6l-47.2,70.2
		c-0.3,0.5-0.4,1.1-0.1,1.6c0.3,0.5,0.8,0.8,1.4,0.8h94.1c0.6,0,1.1-0.3,1.4-0.8c0.3-0.5,0.2-1.1-0.1-1.6L101.4,60
		C101.1,59.6,100.6,59.4,100.1,59.4z"/>
</g>
</svg>
