<?xml version="1.0" encoding="utf-8"?>
<!-- Generator: Adobe Illustrator 20.1.0, SVG Export Plug-In . SVG Version: 6.00 Build 0)  -->
<svg version="1.1" id="Capa_1" xmlns="http://www.w3.org/2000/svg" xmlns:xlink="http://www.w3.org/1999/xlink" x="0px" y="0px"
	 viewBox="0 0 200 200" style="enable-background:new 0 0 200 200;" xml:space="preserve">
<style type="text/css">
	.st0{fill:none;stroke:#000000;stroke-width:3;stroke-miterlimit:10;}
	.st1{fill:none;stroke:#000000;stroke-width:3;stroke-miterlimit:10;stroke-dasharray:8.7977,1.7595;}
	.st2{fill:none;stroke:#000000;stroke-width:3;stroke-miterlimit:10;stroke-dasharray:10,2;}
	.st3{fill:none;stroke:#000000;stroke-width:3;stroke-miterlimit:10;stroke-dasharray:8.2841,1.6568;}
	.st4{fill:none;stroke:#000000;stroke-width:3;stroke-miterlimit:10;stroke-dasharray:9.4057,1.8811;}
	.st5{fill:none;stroke:#000000;stroke-width:2;stroke-miterlimit:10;}
</style>
<path d="M86.1,81.5c0,3.5-2.8,6.3-6.3,6.3s-6.3-2.8-6.3-6.3s2.8-6.3,6.3-6.3C83.3,75.2,86.1,78,86.1,81.5z"/>
<path d="M106.3,106.2c0,3.5-2.8,6.3-6.3,6.3s-6.3-2.8-6.3-6.3s2.8-6.3,6.3-6.3C103.5,99.9,106.3,102.7,106.3,106.2z"/>
<path d="M146.7,64.6c0,3.5-2.8,6.3-6.3,6.3s-6.3-2.8-6.3-6.3s2.8-6.3,6.3-6.3C143.9,58.4,146.7,61.2,146.7,64.6z"/>
<path d="M62.9,137.8c0,3.5-2.8,6.3-6.3,6.3s-6.3-2.8-6.3-6.3s2.8-6.3,6.3-6.3C60.1,131.5,62.9,134.3,62.9,137.8z"/>
<path d="M139.3,131.5c0,3.5-2.8,6.3-6.3,6.3s-6.3-2.8-6.3-6.3s2.8-6.3,6.3-6.3C136.5,125.3,139.3,128.1,139.3,131.5z"/>
<g>
	<g>
		<line class="st0" x1="79.9" y1="81.5" x2="78" y2="86.1"/>
		<line class="st1" x1="77.4" y1="87.7" x2="61.9" y2="126.1"/>
		<line class="st0" x1="61.5" y1="126.9" x2="59.7" y2="131.5"/>
	</g>
</g>
<line class="st2" x1="81.5" y1="83.4" x2="100" y2="106.2"/>
<g>
	<g>
		<line class="st0" x1="133.1" y1="131.5" x2="129.1" y2="128.5"/>
		<line class="st3" x1="127.8" y1="127.5" x2="104.6" y2="110"/>
		<line class="st0" x1="104" y1="109.5" x2="100" y2="106.5"/>
	</g>
</g>
<g>
	<g>
		<line class="st0" x1="100" y1="106.2" x2="103.5" y2="102.6"/>
		<line class="st4" x1="104.9" y1="101.3" x2="136.1" y2="70"/>
		<line class="st0" x1="136.8" y1="69.4" x2="140.3" y2="65.8"/>
	</g>
</g>
<circle class="st5" cx="100" cy="100" r="94.9"/>
</svg>
