<?xml version="1.0" encoding="utf-8"?>
<!-- Generator: Adobe Illustrator 20.1.0, SVG Export Plug-In . SVG Version: 6.00 Build 0)  -->
<svg version="1.1" id="Capa_1" xmlns="http://www.w3.org/2000/svg" xmlns:xlink="http://www.w3.org/1999/xlink" x="0px" y="0px"
	 viewBox="0 0 200 200" style="enable-background:new 0 0 200 200;" xml:space="preserve">
<style type="text/css">
	.st0{fill:none;stroke:#000000;stroke-width:5;stroke-miterlimit:10;}
</style>
<circle class="st0" cx="100" cy="100" r="94.9"/>
<path d="M162.7,94.1c-3,0-5.4,2.3-5.7,5.2c0,0,0,0-0.1,0h-25.3v-8.8c0,0,0,0,0,0c0-0.2,0-0.4-0.1-0.6c-0.1-0.2-0.2-0.3-0.3-0.5
	c0,0,0,0,0,0c0,0-0.1,0-0.1-0.1c-0.1-0.1-0.2-0.2-0.4-0.2c-0.1-0.1-0.3-0.1-0.4-0.1c0,0-0.1,0-0.1,0c0,0,0,0,0,0
	c-0.2,0-0.4,0-0.6,0.1c-0.2,0.1-0.3,0.2-0.5,0.3c0,0,0,0,0,0l-7.6,7.8v-17c0-0.1,0-0.1,0-0.2c0-0.1,0-0.2-0.1-0.3
	c0-0.1-0.1-0.2-0.1-0.2c0-0.1-0.1-0.2-0.2-0.2c-0.1-0.1-0.2-0.1-0.2-0.2c-0.1,0-0.1-0.1-0.2-0.1c0,0,0,0-0.1,0
	c-0.1,0-0.2-0.1-0.3-0.1c-0.1,0-0.2-0.1-0.3-0.1c0,0,0,0-0.1,0c-0.1,0-0.1,0-0.2,0c-0.1,0-0.2,0-0.3,0.1c-0.1,0-0.2,0.1-0.3,0.1
	c-0.1,0-0.1,0.1-0.2,0.1c-0.1,0.1-0.1,0.2-0.2,0.2c0,0.1-0.1,0.1-0.1,0.2l-14.6,28.6v-46c0,0,0-0.1,0-0.1c0-0.1,0-0.2-0.1-0.3
	c0-0.1,0-0.2-0.1-0.3c0-0.1-0.1-0.2-0.1-0.2c-0.1-0.1-0.1-0.2-0.2-0.2c-0.1-0.1-0.1-0.1-0.2-0.1c-0.1-0.1-0.2-0.1-0.3-0.1
	c0,0,0,0-0.1,0c-0.1,0-0.1,0-0.2,0c-0.1,0-0.1,0-0.2,0c0,0-0.1,0-0.1,0c-0.1,0-0.2,0-0.3,0.1c-0.1,0-0.2,0-0.2,0.1
	c-0.1,0-0.2,0.1-0.3,0.2c-0.1,0.1-0.1,0.1-0.2,0.2c-0.1,0.1-0.1,0.1-0.2,0.2c-0.1,0.1-0.1,0.2-0.1,0.3c0,0,0,0,0,0.1L81.7,131
	l-8.1-54.8c0,0,0-0.1,0-0.1c0-0.1-0.1-0.2-0.1-0.3c0-0.1-0.1-0.2-0.1-0.3c0-0.1-0.1-0.1-0.1-0.2c-0.1-0.1-0.2-0.2-0.3-0.2
	c0,0,0,0,0,0c0,0-0.1,0-0.1,0c-0.1-0.1-0.2-0.1-0.3-0.1c-0.1,0-0.2,0-0.3,0c-0.1,0-0.1,0-0.2,0c0,0-0.1,0-0.1,0
	c-0.1,0-0.2,0.1-0.3,0.1c-0.1,0-0.2,0.1-0.2,0.1c-0.1,0-0.1,0.1-0.2,0.2c-0.1,0.1-0.1,0.1-0.2,0.2c0,0,0,0-0.1,0.1l-13,22.7H43.1
	c-0.1,0-0.1,0-0.2,0c-0.6-2.5-2.9-4.4-5.6-4.4c-3.2,0-5.8,2.6-5.8,5.8s2.6,5.8,5.8,5.8c2.7,0,5-1.9,5.6-4.4c0.1,0,0.1,0,0.2,0h15.6
	c0,0,0,0,0,0c0.2,0,0.3,0,0.5-0.1c0,0,0.1,0,0.1,0c0.1-0.1,0.3-0.2,0.4-0.3c0,0,0,0,0,0c0.1-0.1,0.2-0.2,0.2-0.3l11.4-19.8l8.4,57.3
	c0,0,0,0,0,0l0,0c0,0.2,0.1,0.3,0.2,0.5c0,0,0,0,0,0c0.1,0.2,0.2,0.3,0.3,0.4c0,0,0.1,0,0.1,0.1c0.1,0.1,0.2,0.1,0.3,0.2
	c0,0,0,0,0.1,0c0.1,0,0.3,0.1,0.4,0.1c0,0,0,0,0,0h0c0,0,0,0,0,0s0,0,0,0c0.1,0,0.1,0,0.2,0c0,0,0.1,0,0.1,0c0.1,0,0.2-0.1,0.3-0.1
	c0.1,0,0.1,0,0.2-0.1c0.1-0.1,0.2-0.2,0.3-0.3c0,0,0.1-0.1,0.1-0.1c0.1-0.1,0.2-0.3,0.2-0.4l18.7-65.8v41.6c0,0.1,0,0.1,0,0.2
	c0,0.1,0,0.2,0.1,0.3c0,0.1,0.1,0.2,0.1,0.2c0,0.1,0.1,0.2,0.1,0.2c0.1,0.1,0.2,0.1,0.2,0.2c0.1,0,0.1,0.1,0.2,0.1c0,0,0,0,0.1,0
	c0,0,0.1,0,0.1,0c0.2,0.1,0.3,0.1,0.5,0.1h0c0,0,0,0,0,0c0.2,0,0.3,0,0.5-0.1c0,0,0.1,0,0.1-0.1c0.1-0.1,0.2-0.1,0.3-0.2
	c0,0,0,0,0.1,0c0.1-0.1,0.2-0.2,0.3-0.3l14.6-28.6v14.6c0,0,0,0,0,0c0,0.2,0,0.4,0.1,0.6c0.1,0.2,0.2,0.3,0.3,0.5c0,0,0,0,0,0
	c0,0,0.1,0,0.1,0.1c0.1,0.1,0.2,0.2,0.4,0.2c0.2,0.1,0.4,0.1,0.5,0.1c0.2,0,0.4,0,0.6-0.1c0.2-0.1,0.3-0.2,0.5-0.3c0,0,0,0,0,0
	l7.6-7.8v6.8c0,0.8,0.6,1.4,1.4,1.4h26.7c0.2,0,0.3,0,0.4-0.1c0.9,2.1,2.9,3.6,5.3,3.6c3.2,0,5.8-2.6,5.8-5.8
	C168.5,96.7,165.9,94.1,162.7,94.1z"/>
</svg>
