<?xml version="1.0" encoding="utf-8"?>
<!-- Generator: Adobe Illustrator 16.0.0, SVG Export Plug-In . SVG Version: 6.00 Build 0)  -->
<!DOCTYPE svg PUBLIC "-//W3C//DTD SVG 1.1//EN" "http://www.w3.org/Graphics/SVG/1.1/DTD/svg11.dtd">
<svg version="1.1" id="Capa_1" xmlns="http://www.w3.org/2000/svg" xmlns:xlink="http://www.w3.org/1999/xlink" x="0px" y="0px"
	 width="200px" height="200px" viewBox="0 0 200 200" enable-background="new 0 0 200 200" xml:space="preserve">
<circle fill="none" stroke="#FDCA2E" stroke-width="5" stroke-miterlimit="10" cx="100" cy="100" r="95.881"/>
<g>
	<g>
		<path fill="#FCC92E" d="M100.153,114.129c-1.808,0-2.672-1.463-2.672-3.266l-0.604-29.922c0-1.809,1.469-3.268,3.277-3.268
			c1.802,0,3.336,1.459,3.336,3.268l-0.602,29.922C102.888,112.666,101.955,114.129,100.153,114.129z"/>
		<path fill="#FCC92E" d="M103.955,120.949c0,2.1-1.7,3.803-3.802,3.803c-2.097,0-3.802-1.703-3.802-3.803
			c0-2.105,1.706-3.809,3.802-3.809C102.255,117.141,103.955,118.844,103.955,120.949z"/>
	</g>
	<path fill="#FCC92E" d="M147.075,136.094H52.929c-1.878,0-3.579-1.037-4.435-2.713c-0.856-1.666-0.709-3.654,0.393-5.18
		l47.209-70.227c0.932-1.295,2.446-2.068,4.039-2.068c1.605,0.006,3.113,0.779,4.046,2.076l46.938,70.227
		c1.093,1.525,1.242,3.508,0.387,5.182C150.65,135.057,148.95,136.094,147.075,136.094z M100.136,59.354
		c-0.491,0-0.955,0.238-1.243,0.641l-47.21,70.223c-0.339,0.471-0.384,1.08-0.118,1.596c0.26,0.516,0.782,0.836,1.364,0.836h94.146
		c0.576,0,1.099-0.32,1.361-0.836c0.266-0.514,0.221-1.125-0.116-1.592l-46.938-70.225
		C101.094,59.592,100.627,59.357,100.136,59.354z"/>
</g>
</svg>
