<?xml version="1.0" encoding="utf-8"?>
<!-- Generator: Adobe Illustrator 16.0.0, SVG Export Plug-In . SVG Version: 6.00 Build 0)  -->
<!DOCTYPE svg PUBLIC "-//W3C//DTD SVG 1.1//EN" "http://www.w3.org/Graphics/SVG/1.1/DTD/svg11.dtd">
<svg version="1.1" id="Capa_1" xmlns="http://www.w3.org/2000/svg" xmlns:xlink="http://www.w3.org/1999/xlink" x="0px" y="0px"
	 width="200px" height="200px" viewBox="0 0 200 200" enable-background="new 0 0 200 200" xml:space="preserve">
<g>
	<circle fill="none" stroke="#FDCA2E" stroke-width="5" stroke-miterlimit="10" cx="100" cy="99.831" r="95.881"/>
	<path fill="#FCC92E" d="M86.149,81.456c0,3.457-2.801,6.26-6.26,6.26c-3.456,0-6.258-2.803-6.258-6.26
		c0-3.453,2.802-6.26,6.258-6.26C83.349,75.196,86.149,78.003,86.149,81.456z"/>
	<path fill="#FCC92E" d="M106.26,106.163c0,3.459-2.802,6.26-6.261,6.26c-3.455,0-6.258-2.801-6.258-6.26
		c0-3.453,2.803-6.258,6.258-6.258C103.458,99.905,106.26,102.71,106.26,106.163z"/>
	<path fill="#FCC92E" d="M146.686,64.612c0,3.457-2.802,6.26-6.26,6.26c-3.456,0-6.258-2.803-6.258-6.26
		c0-3.453,2.802-6.26,6.258-6.26C143.884,58.353,146.686,61.159,146.686,64.612z"/>
	<path fill="#FCC92E" d="M62.86,137.772c0,3.459-2.802,6.26-6.26,6.26c-3.456,0-6.258-2.801-6.258-6.26
		c0-3.453,2.802-6.258,6.258-6.258C60.059,131.515,62.86,134.319,62.86,137.772z"/>
	<path fill="#FCC92E" d="M139.337,131.515c0,3.457-2.802,6.26-6.26,6.26c-3.456,0-6.258-2.803-6.258-6.26
		c0-3.453,2.802-6.26,6.258-6.26C136.535,125.255,139.337,128.062,139.337,131.515z"/>
	<g>
		<g>
			<line fill="none" stroke="#FCC92E" stroke-width="3" stroke-miterlimit="10" x1="79.891" y1="81.456" x2="78.018" y2="86.092"/>
			
				<line fill="none" stroke="#FCC92E" stroke-width="3" stroke-miterlimit="10" stroke-dasharray="8.7977,1.7595" x1="77.359" y1="87.724" x2="61.872" y2="126.063"/>
			<line fill="none" stroke="#FCC92E" stroke-width="3" stroke-miterlimit="10" x1="61.542" y1="126.879" x2="59.67" y2="131.515"/>
		</g>
	</g>
	
		<line fill="none" stroke="#FCC92E" stroke-width="3" stroke-miterlimit="10" stroke-dasharray="10,2" x1="81.484" y1="83.413" x2="100.001" y2="106.163"/>
	<g>
		<g>
			
				<line fill="none" stroke="#FCC92E" stroke-width="3" stroke-miterlimit="10" x1="133.078" y1="131.515" x2="129.091" y2="128.498"/>
			
				<line fill="none" stroke="#FCC92E" stroke-width="3" stroke-miterlimit="10" stroke-dasharray="8.2841,1.6568" x1="127.77" y1="127.498" x2="104.648" y2="110.002"/>
			
				<line fill="none" stroke="#FCC92E" stroke-width="3" stroke-miterlimit="10" x1="103.988" y1="109.502" x2="100.001" y2="106.485"/>
		</g>
	</g>
	<g>
		<g>
			
				<line fill="none" stroke="#FCC92E" stroke-width="3" stroke-miterlimit="10" x1="100.001" y1="106.163" x2="103.536" y2="102.628"/>
			
				<line fill="none" stroke="#FCC92E" stroke-width="3" stroke-miterlimit="10" stroke-dasharray="9.4057,1.8811" x1="104.866" y1="101.297" x2="136.125" y2="70.038"/>
			<line fill="none" stroke="#FCC92E" stroke-width="3" stroke-miterlimit="10" x1="136.79" y1="69.372" x2="140.325" y2="65.837"/>
		</g>
	</g>
</g>
</svg>
