<?xml version="1.0" encoding="utf-8"?>
<!-- Generator: Adobe Illustrator 16.0.0, SVG Export Plug-In . SVG Version: 6.00 Build 0)  -->
<!DOCTYPE svg PUBLIC "-//W3C//DTD SVG 1.1//EN" "http://www.w3.org/Graphics/SVG/1.1/DTD/svg11.dtd">
<svg version="1.1" id="Capa_1" xmlns="http://www.w3.org/2000/svg" xmlns:xlink="http://www.w3.org/1999/xlink" x="0px" y="0px"
	 width="200px" height="200px" viewBox="0 0 200 200" enable-background="new 0 0 200 200" xml:space="preserve">
<circle fill="none" stroke="#FDCA2E" stroke-width="5" stroke-miterlimit="10" cx="100" cy="100" r="94.939"/>
<path fill="#FCC92E" d="M162.676,94.104c-2.986,0-5.415,2.279-5.715,5.185c-0.021,0-0.038-0.011-0.06-0.011h-25.263v-8.842
	c0-0.003-0.001-0.005-0.001-0.006c-0.001-0.189-0.039-0.376-0.112-0.553c-0.073-0.176-0.181-0.334-0.316-0.467
	c-0.001-0.002-0.001-0.002-0.002-0.004c-0.027-0.027-0.065-0.036-0.095-0.061c-0.114-0.096-0.233-0.188-0.373-0.243
	c-0.134-0.054-0.271-0.071-0.412-0.083c-0.045-0.006-0.085-0.027-0.132-0.027c-0.001,0-0.002,0.001-0.006,0.001
	c-0.188,0-0.378,0.036-0.555,0.112c-0.176,0.072-0.331,0.182-0.465,0.314c-0.001,0.002-0.003,0.002-0.004,0.004l-7.632,7.77V80.151
	c0-0.072-0.032-0.136-0.042-0.205c-0.016-0.1-0.024-0.199-0.059-0.294c-0.034-0.091-0.086-0.165-0.136-0.245
	c-0.047-0.079-0.089-0.155-0.15-0.223c-0.071-0.078-0.157-0.134-0.241-0.191c-0.057-0.04-0.096-0.096-0.159-0.128
	c-0.016-0.009-0.032-0.006-0.05-0.015c-0.087-0.039-0.183-0.055-0.279-0.077c-0.093-0.021-0.182-0.052-0.276-0.054
	c-0.019-0.002-0.033-0.012-0.053-0.012c-0.075,0-0.14,0.031-0.212,0.042c-0.098,0.015-0.192,0.023-0.284,0.058
	c-0.093,0.033-0.172,0.09-0.256,0.142c-0.073,0.046-0.147,0.083-0.213,0.144c-0.077,0.071-0.134,0.157-0.196,0.245
	c-0.037,0.056-0.093,0.095-0.124,0.157l-14.594,28.58V62.106c0-0.031-0.016-0.057-0.017-0.086c-0.008-0.103-0.033-0.196-0.06-0.292
	c-0.024-0.088-0.044-0.172-0.083-0.251c-0.039-0.082-0.096-0.151-0.149-0.225c-0.058-0.076-0.11-0.15-0.181-0.213
	c-0.063-0.059-0.14-0.099-0.215-0.145c-0.085-0.053-0.169-0.104-0.268-0.137c-0.028-0.012-0.048-0.033-0.077-0.041
	c-0.069-0.021-0.136-0.008-0.206-0.018c-0.065-0.008-0.12-0.038-0.189-0.038c-0.026,0-0.051,0.015-0.078,0.015
	c-0.114,0.008-0.217,0.035-0.322,0.066c-0.075,0.021-0.15,0.039-0.219,0.072c-0.094,0.044-0.172,0.104-0.252,0.168
	c-0.067,0.053-0.134,0.1-0.189,0.162c-0.063,0.067-0.106,0.146-0.154,0.227c-0.051,0.085-0.101,0.166-0.132,0.261
	c-0.01,0.026-0.033,0.048-0.041,0.078L81.67,131.033l-8.055-54.814c-0.004-0.03-0.022-0.053-0.028-0.082
	c-0.021-0.092-0.057-0.176-0.095-0.264c-0.037-0.092-0.072-0.182-0.128-0.263c-0.039-0.056-0.09-0.1-0.135-0.151
	c-0.086-0.092-0.175-0.175-0.28-0.243c-0.017-0.012-0.026-0.03-0.045-0.04c-0.037-0.023-0.08-0.023-0.12-0.039
	c-0.11-0.053-0.22-0.094-0.345-0.115c-0.09-0.017-0.176-0.013-0.267-0.013c-0.066,0.001-0.128-0.019-0.195-0.009
	c-0.03,0.004-0.053,0.022-0.082,0.029c-0.097,0.02-0.183,0.06-0.273,0.098c-0.084,0.037-0.168,0.068-0.241,0.119
	c-0.073,0.049-0.129,0.111-0.189,0.174c-0.075,0.072-0.145,0.143-0.2,0.229c-0.017,0.025-0.042,0.036-0.057,0.063L57.9,98.436
	H43.098c-0.067,0-0.127,0.029-0.191,0.039c-0.63-2.507-2.883-4.371-5.583-4.371c-3.188,0-5.774,2.586-5.774,5.775
	c0,3.189,2.586,5.775,5.774,5.775c2.7,0,4.953-1.865,5.583-4.371c0.064,0.01,0.124,0.039,0.191,0.039h15.638
	c0.002,0,0.002,0,0.004,0c0.168,0,0.335-0.041,0.493-0.1c0.039-0.016,0.079-0.029,0.116-0.047c0.146-0.07,0.287-0.156,0.404-0.273
	c0.008-0.008,0.013-0.018,0.02-0.026c0.081-0.082,0.154-0.174,0.215-0.279l11.378-19.835l8.42,57.308
	c0.001,0,0.001,0.002,0.001,0.004l0.005,0.031c0.024,0.162,0.082,0.313,0.154,0.451c0.008,0.014,0.008,0.029,0.013,0.041
	c0.09,0.156,0.206,0.293,0.342,0.406c0.04,0.031,0.09,0.049,0.133,0.078c0.109,0.07,0.219,0.135,0.343,0.176
	c0.019,0.006,0.03,0.02,0.05,0.027c0.127,0.035,0.256,0.051,0.383,0.053c0.004,0,0.008,0,0.011,0h0.001c0.002,0,0.002,0,0.002,0
	s0.001,0,0.003,0c0.066,0,0.134-0.004,0.206-0.016c0.034-0.004,0.06-0.025,0.093-0.033c0.118-0.027,0.23-0.068,0.338-0.121
	c0.053-0.027,0.104-0.049,0.153-0.08c0.109-0.074,0.205-0.166,0.292-0.268c0.024-0.027,0.057-0.051,0.079-0.08
	c0.097-0.133,0.174-0.283,0.223-0.449l18.715-65.83v41.613c0,0.072,0.03,0.135,0.04,0.205c0.016,0.102,0.023,0.201,0.062,0.295
	c0.032,0.09,0.084,0.164,0.134,0.246c0.048,0.078,0.088,0.154,0.149,0.223c0.071,0.076,0.156,0.131,0.242,0.191
	c0.057,0.039,0.096,0.094,0.159,0.127c0.021,0.01,0.043,0.014,0.063,0.023c0.031,0.014,0.061,0.021,0.09,0.033
	c0.164,0.063,0.334,0.102,0.503,0.102h0.001c0.002,0,0.002,0,0.003,0c0.172-0.002,0.336-0.043,0.493-0.102
	c0.044-0.016,0.086-0.033,0.128-0.053c0.126-0.063,0.243-0.139,0.347-0.234c0.02-0.018,0.042-0.031,0.061-0.049
	c0.101-0.102,0.188-0.217,0.254-0.35l14.595-28.581v14.57c0,0.004,0.001,0.005,0.001,0.005c0,0.19,0.039,0.376,0.112,0.554
	c0.073,0.176,0.182,0.332,0.316,0.465c0.001,0.002,0.001,0.004,0.002,0.004c0.033,0.033,0.078,0.047,0.112,0.074
	c0.109,0.09,0.221,0.176,0.352,0.232c0.176,0.07,0.362,0.109,0.548,0.109c0.188,0,0.378-0.039,0.557-0.113
	c0.177-0.072,0.337-0.182,0.469-0.316c0.002,0,0.003,0,0.004-0.002l7.633-7.769v6.757c0,0.799,0.646,1.444,1.444,1.444h26.706
	c0.155,0,0.299-0.043,0.439-0.09c0.865,2.1,2.927,3.578,5.335,3.578c3.189,0,5.775-2.586,5.775-5.775
	C168.451,96.69,165.865,94.104,162.676,94.104z"/>
</svg>
