<?xml version="1.0" encoding="utf-8"?>
<!-- Generator: Adobe Illustrator 20.1.0, SVG Export Plug-In . SVG Version: 6.00 Build 0)  -->
<svg version="1.1" id="Capa_1" xmlns="http://www.w3.org/2000/svg" xmlns:xlink="http://www.w3.org/1999/xlink" x="0px" y="0px"
	 viewBox="0 0 566.9 566.9" style="enable-background:new 0 0 566.9 566.9;" xml:space="preserve">
<style type="text/css">
	.st0{fill:none;stroke:#000000;stroke-width:0.5;stroke-linecap:round;stroke-linejoin:round;stroke-miterlimit:10;}
</style>
<g>
	<line class="st0" x1="185.4" y1="251.6" x2="114.8" y2="251.6"/>
	<line class="st0" x1="63" y1="302" x2="80" y2="342.9"/>
	<line class="st0" x1="220.2" y1="342.9" x2="237.2" y2="302"/>
	<line class="st0" x1="114.8" y1="251.6" x2="63" y2="302"/>
	<line class="st0" x1="80" y1="342.9" x2="220.2" y2="342.9"/>
	<line class="st0" x1="237.2" y1="302" x2="185.4" y2="251.6"/>
	<path class="st0" d="M54.3,318.3c-4.6,3.1-6,9.3-3.1,14c2.9,4.8,8.9,6.5,13.8,3.8c4.9-2.6,6.9-8.6,4.5-13.6
		c-2.4-5-8.3-7.3-13.4-5.2"/>
	<polyline class="st0" points="54.3,318.4 54.1,318.2 51.5,315.5 50.3,314.3 	"/>
	<polyline class="st0" points="51.7,312.9 52.9,314.1 55.9,317.2 56.1,317.4 	"/>
	<path class="st0" d="M63,302.6c0-0.1-0.1-0.2-0.2-0.2c-0.1,0-0.2,0-0.3,0.1"/>
	<path class="st0" d="M79.5,342.9c0.1,0,0.2-0.1,0.3-0.1c0.1-0.1,0.1-0.2,0-0.3"/>
	<line class="st0" x1="62.6" y1="302.4" x2="51.7" y2="312.9"/>
	<line class="st0" x1="60.2" y1="342.9" x2="79.4" y2="342.9"/>
	<path class="st0" d="M49.3,315.3c-4.8,4.4-6.4,11.4-4.1,17.5c2.4,6.1,8.3,10.1,14.8,10.1"/>
	<polyline class="st0" points="50.5,316.3 49.3,315.3 50.3,314.3 	"/>
	<polyline class="st0" points="162.8,247.1 163.2,246.7 163.2,244.3 162.8,243.9 	"/>
	<polyline class="st0" points="170.7,243.9 170.3,244.3 170.3,246.7 170.7,247.1 	"/>
	<line class="st0" x1="170.3" y1="246.7" x2="163.2" y2="246.7"/>
	<line class="st0" x1="163.2" y1="244.3" x2="170.3" y2="244.3"/>
	<line class="st0" x1="160.7" y1="238.4" x2="170.5" y2="238.4"/>
	<path class="st0" d="M172.2,238.2c0.1,0,0.2-0.1,0.3-0.2c0-0.1,0-0.2-0.1-0.3"/>
	<line class="st0" x1="170.5" y1="238.4" x2="172.1" y2="238.4"/>
	<path class="st0" d="M160.5,238c0,0.2,0.1,0.3,0.3,0.3"/>
	<path class="st0" d="M175,240.6c-0.1-0.1-0.1-0.1-0.2-0.1"/>
	<polyline class="st0" points="174.7,240.5 173.1,240.5 160.7,240.5 	"/>
	<path class="st0" d="M160.8,240.5c-0.2,0-0.3,0.1-0.3,0.3"/>
	<path class="st0" d="M160.5,238c-0.7-5.4-5.5-9.4-11-9c-5.5,0.4-9.7,4.9-9.7,10.4c0,5.5,4.3,10,9.7,10.4c5.5,0.4,10.3-3.6,11-9"/>
	<path class="st0" d="M184.5,251.6c0.1,0,0.2-0.1,0.3-0.2c0-0.1,0-0.2-0.1-0.3"/>
	<path class="st0" d="M115.5,251.1c-0.1,0.1-0.1,0.2-0.1,0.3c0,0.1,0.2,0.2,0.3,0.2"/>
	<line class="st0" x1="184.8" y1="251" x2="175.1" y2="240.5"/>
	<line class="st0" x1="172.5" y1="237.6" x2="164.8" y2="229.5"/>
	<path class="st0" d="M163.9,228.5c-3.2-4-8-6.5-13.1-6.7c-5.1-0.2-10.1,1.9-13.6,5.7"/>
	<line class="st0" x1="123.3" y1="242.5" x2="115.4" y2="251"/>
	<path class="st0" d="M163.9,228.5c0.3,0.4,0.6,0.7,0.9,1.1"/>
	<line class="st0" x1="123.3" y1="242.5" x2="137.3" y2="227.5"/>
	<path class="st0" d="M244.1,317.3c-5.1-2.1-11,0.2-13.4,5.2c-2.4,5-0.4,11,4.5,13.6c4.9,2.6,11,0.9,13.8-3.8
		c2.9-4.8,1.5-10.9-3.1-14"/>
	<line class="st0" x1="244.1" y1="317.4" x2="244.3" y2="317.2"/>
	<line class="st0" x1="246.1" y1="318.2" x2="245.9" y2="318.4"/>
	<path class="st0" d="M237.8,302.5c-0.1-0.1-0.2-0.1-0.3-0.1c-0.1,0-0.2,0.1-0.2,0.2"/>
	<path class="st0" d="M220.5,342.4c0,0.1,0,0.2,0,0.3c0.1,0.1,0.2,0.1,0.3,0.1"/>
	<line class="st0" x1="247.4" y1="314.1" x2="248.6" y2="312.9"/>
	<line class="st0" x1="220.8" y1="342.9" x2="240.1" y2="342.9"/>
	<path class="st0" d="M240.2,342.9c6.5,0,12.4-4,14.8-10.1c2.4-6.1,0.8-13-4-17.5"/>
	<polyline class="st0" points="248.8,315.5 250,314.3 251,315.3 249.8,316.3 	"/>
	<line class="st0" x1="248.6" y1="312.9" x2="237.6" y2="302.4"/>
	<line class="st0" x1="244.3" y1="317.2" x2="247.4" y2="314.1"/>
	<line class="st0" x1="248.8" y1="315.5" x2="246.1" y2="318.2"/>
	<polyline class="st0" points="114.8,468.7 114.8,444.8 117.2,444.8 	"/>
	<line class="st0" x1="185.4" y1="468.7" x2="183" y2="468.7"/>
	<line class="st0" x1="117.2" y1="468.7" x2="114.8" y2="468.7"/>
	<polyline class="st0" points="185.4,468.7 185.4,444.8 183,444.8 	"/>
	<line class="st0" x1="63" y1="468.7" x2="63" y2="444.8"/>
	<line class="st0" x1="237.2" y1="468.7" x2="237.2" y2="444.8"/>
	<line class="st0" x1="114.8" y1="468.7" x2="63" y2="468.7"/>
	<line class="st0" x1="63" y1="444.8" x2="114.8" y2="444.8"/>
	<line class="st0" x1="237.2" y1="468.7" x2="185.4" y2="468.7"/>
	<line class="st0" x1="185.4" y1="444.8" x2="237.2" y2="444.8"/>
	<line class="st0" x1="63" y1="444.8" x2="52.9" y2="444.8"/>
	<polyline class="st0" points="52.9,444.8 51.5,444.8 50.5,444.8 45.8,444.8 	"/>
	<line class="st0" x1="45.6" y1="459.2" x2="45.6" y2="454.6"/>
	<polyline class="st0" points="51.7,455.6 51.5,456.2 51.5,456.8 51.5,457.4 51.7,458 	"/>
	<polyline class="st0" points="50.3,446.5 50.5,445.9 50.7,445.2 51.1,445 51.5,444.8 	"/>
	<line class="st0" x1="50.3" y1="467.1" x2="50.3" y2="446.5"/>
	<polyline class="st0" points="51.5,468.7 51.1,468.7 50.7,468.3 50.5,467.7 50.3,467.1 	"/>
	<line class="st0" x1="52.9" y1="468.7" x2="51.5" y2="468.7"/>
	<polyline class="st0" points="51.7,467.1 51.9,467.7 52.1,468.3 52.5,468.7 52.9,468.7 	"/>
	<line class="st0" x1="51.7" y1="446.5" x2="51.7" y2="467.1"/>
	<polyline class="st0" points="52.9,444.8 52.5,445 52.1,445.2 51.9,445.9 51.7,446.5 	"/>
	<polyline class="st0" points="45.8,468.7 50.5,468.7 51.5,468.7 	"/>
	<line class="st0" x1="52.9" y1="468.7" x2="63" y2="468.7"/>
	<polyline class="st0" points="56.9,453.3 56.9,460.4 55.3,460.4 55.3,453.3 56.9,453.3 	"/>
	<polyline class="st0" points="50.5,468.7 50.1,468.7 49.7,468.3 49.5,467.7 49.3,467.1 	"/>
	<line class="st0" x1="49.3" y1="467.1" x2="49.3" y2="446.5"/>
	<polyline class="st0" points="50.5,444.8 50.1,445 49.7,445.2 49.5,445.9 49.3,446.5 	"/>
	<polyline class="st0" points="56.9,458.2 56.5,457.8 56.3,457.2 56.3,456.6 56.5,456 56.9,455.4 	"/>
	<path class="st0" d="M44.2,467.2c0,0.8,0.7,1.5,1.5,1.5"/>
	<line class="st0" x1="44.2" y1="446.5" x2="44.2" y2="453.1"/>
	<line class="st0" x1="44.2" y1="460.4" x2="44.2" y2="467.1"/>
	<path class="st0" d="M45.7,445c-0.8,0-1.5,0.7-1.5,1.5"/>
	<polyline class="st0" points="45.2,461.4 45.4,460.8 45.6,460.4 45.6,459.8 45.6,459.2 	"/>
	<polyline class="st0" points="45.6,454.6 45.6,453.9 45.6,453.3 45.4,452.7 45.2,452.3 	"/>
	<polyline class="st0" points="44.2,460.4 44.2,459.8 44.2,458.8 44.4,457.8 44.4,457.4 44.4,456.8 44.4,456.4 44.4,455.8 
		44.4,455.4 44.2,454.8 44.2,453.9 44.2,453.1 	"/>
	<polyline class="st0" points="117.2,468.7 137.3,468.7 163,468.7 170.5,468.7 	"/>
	<line class="st0" x1="173.1" y1="468.7" x2="183" y2="468.7"/>
	<line class="st0" x1="183" y1="444.8" x2="173.1" y2="444.8"/>
	<polyline class="st0" points="170.5,444.8 163,444.8 137.3,444.8 117.2,444.8 	"/>
	<line class="st0" x1="170.5" y1="468.7" x2="173.1" y2="468.7"/>
	<line class="st0" x1="173.1" y1="444.8" x2="170.5" y2="444.8"/>
	<polyline class="st0" points="170.5,468.7 171.3,468.7 171.9,468.3 172.3,467.9 172.5,467.5 172.5,467.1 	"/>
	<polyline class="st0" points="172.5,446.5 172.5,446.1 172.3,445.9 171.9,445.2 171.3,445 170.5,444.8 	"/>
	<line class="st0" x1="172.5" y1="467.1" x2="172.5" y2="446.5"/>
	<polyline class="st0" points="169.2,458.6 169.4,457.8 169.4,456.8 169.4,456 169.2,455 	"/>
	<path class="st0" d="M167.9,458.6c0.9-0.1,1.6-0.8,1.6-1.7c0-0.9-0.7-1.6-1.6-1.7"/>
	<line class="st0" x1="167.2" y1="455.4" x2="167.8" y2="455.2"/>
	<path class="st0" d="M167.2,455.2c-0.7,0.2-1.2,0.9-1.2,1.6c0,0.8,0.5,1.4,1.2,1.6"/>
	<line class="st0" x1="167.8" y1="458.4" x2="167.2" y2="458.4"/>
	<polyline class="st0" points="169.2,453.3 169.2,452.7 169,452.3 	"/>
	<polyline class="st0" points="169,461.4 169.2,460.8 169.2,460.4 	"/>
	<line class="st0" x1="169.2" y1="460.4" x2="169.2" y2="458.6"/>
	<line class="st0" x1="169.2" y1="455" x2="169.2" y2="453.3"/>
	<polyline class="st0" points="166.8,459.6 166.2,459.4 165.6,459 165.2,458.4 164.8,457.8 164.8,457.2 164.8,456.6 164.8,455.8 
		165.2,455.2 165.6,454.6 166.2,454.1 166.8,453.9 	"/>
	<polyline class="st0" points="185,446.5 185,446.1 184.8,445.9 184.4,445.2 183.6,445 183,444.8 	"/>
	<line class="st0" x1="185" y1="467.1" x2="185" y2="446.5"/>
	<polyline class="st0" points="183,468.7 183.6,468.7 184.4,468.3 184.8,467.9 185,467.5 185,467.1 	"/>
	<polyline class="st0" points="115.2,467.1 115.2,467.5 115.4,467.9 115.8,468.3 116.6,468.7 117.2,468.7 	"/>
	<line class="st0" x1="115.2" y1="467.1" x2="115.2" y2="446.5"/>
	<polyline class="st0" points="117.2,444.8 116.6,445 115.8,445.2 115.4,445.9 115.2,446.1 115.2,446.5 	"/>
	<polyline class="st0" points="255.2,452.1 255.2,452.7 255,453.5 	"/>
	<polyline class="st0" points="255,460 255.2,460.8 255.2,461.4 	"/>
	<line class="st0" x1="255" y1="453.5" x2="255" y2="456.6"/>
	<line class="st0" x1="255" y1="457" x2="255" y2="460"/>
	<polyline class="st0" points="248.6,458 248.8,457.4 248.8,456.8 248.8,456.2 248.6,455.6 	"/>
	<line class="st0" x1="248.6" y1="467.1" x2="248.6" y2="446.5"/>
	<line class="st0" x1="248.8" y1="468.7" x2="247.4" y2="468.7"/>
	<line class="st0" x1="247.4" y1="444.8" x2="248.8" y2="444.8"/>
	<line class="st0" x1="250" y1="446.5" x2="250" y2="467.1"/>
	<line class="st0" x1="255" y1="457" x2="255" y2="456.6"/>
	<polyline class="st0" points="243.3,455.4 243.7,456 243.7,456.6 243.7,457.2 243.7,457.8 243.3,458.2 	"/>
	<polyline class="st0" points="248.6,446.5 248.4,445.9 248.2,445.2 247.8,445 247.4,444.8 	"/>
	<polyline class="st0" points="247.4,468.7 247.8,468.7 248.2,468.3 248.4,467.7 248.6,467.1 	"/>
	<line class="st0" x1="237.2" y1="468.7" x2="247.4" y2="468.7"/>
	<polyline class="st0" points="248.8,468.7 249.8,468.7 254.4,468.7 	"/>
	<polyline class="st0" points="254.4,444.8 249.8,444.8 248.8,444.8 	"/>
	<line class="st0" x1="247.4" y1="444.8" x2="237.2" y2="444.8"/>
	<polyline class="st0" points="251,467.1 250.8,467.7 250.6,468.3 250.2,468.7 249.8,468.7 	"/>
	<polyline class="st0" points="250,467.1 249.8,467.7 249.6,468.3 249.2,468.7 248.8,468.7 	"/>
	<polyline class="st0" points="249.8,444.8 250.2,445 250.6,445.2 250.8,445.9 251,446.5 	"/>
	<polyline class="st0" points="248.8,444.8 249.2,445 249.6,445.2 249.8,445.9 250,446.5 	"/>
	<path class="st0" d="M254.5,468.7c0.8,0,1.5-0.7,1.5-1.5"/>
	<path class="st0" d="M256.1,446.6c0-0.8-0.7-1.5-1.5-1.5"/>
	<line class="st0" x1="251" y1="467.1" x2="251" y2="446.5"/>
	<line class="st0" x1="256.1" y1="467.1" x2="256.1" y2="460.6"/>
	<line class="st0" x1="256.1" y1="453.1" x2="256.1" y2="446.5"/>
	<polyline class="st0" points="243.3,460.4 243.3,453.3 244.9,453.3 244.9,460.4 243.3,460.4 	"/>
	<polyline class="st0" points="256.1,453.1 256.1,453.7 256.1,454.8 255.9,455.2 255.9,455.8 255.9,456.4 255.9,456.8 255.9,457.4 
		255.9,458 255.9,458.4 256.1,459 256.1,459.8 256.1,460.6 	"/>
	<polyline class="st0" points="79,98.2 80,98.2 80,122.1 79,122.1 	"/>
	<polyline class="st0" points="221.3,122.1 220.2,122.1 220.2,98.2 221.3,98.2 	"/>
	<line class="st0" x1="80" y1="98.2" x2="220.2" y2="98.2"/>
	<line class="st0" x1="220.2" y1="122.1" x2="80" y2="122.1"/>
	<polyline class="st0" points="45.8,122.1 60.2,122.1 79,122.1 	"/>
	<polyline class="st0" points="79,98.2 60.2,98.2 45.8,98.2 	"/>
	<polyline class="st0" points="79.8,99.8 79.8,99.2 79.6,98.8 79.4,98.4 79.2,98.2 79,98.2 	"/>
	<line class="st0" x1="79.8" y1="99.8" x2="79.8" y2="120.5"/>
	<polyline class="st0" points="79,122.1 79.2,122.1 79.4,121.9 79.6,121.5 79.8,121.1 79.8,120.5 	"/>
	<path class="st0" d="M45.7,98.2c-0.8,0-1.5,0.7-1.5,1.5"/>
	<line class="st0" x1="44.2" y1="120.5" x2="44.2" y2="113.8"/>
	<line class="st0" x1="44.2" y1="106.5" x2="44.2" y2="99.8"/>
	<path class="st0" d="M44.2,120.6c0,0.8,0.7,1.5,1.5,1.5"/>
	<polyline class="st0" points="44.2,106.5 44.2,107.3 44.2,108.1 44.4,109.1 44.4,109.5 44.4,110.2 44.4,110.6 44.4,111.2 
		44.4,111.8 44.2,112.2 44.2,113 44.2,113.8 	"/>
	<polyline class="st0" points="254.4,98.2 240.1,98.2 221.3,98.2 	"/>
	<polyline class="st0" points="221.3,122.1 240.1,122.1 254.4,122.1 	"/>
	<path class="st0" d="M256.1,99.7c0-0.8-0.7-1.5-1.5-1.5"/>
	<path class="st0" d="M254.5,122.1c0.8,0,1.5-0.7,1.5-1.5"/>
	<polyline class="st0" points="256.1,113.8 256.1,113.2 256.1,112.2 255.9,111.8 255.9,111.2 255.9,110.8 255.9,110.2 255.9,109.5 
		255.9,108.9 255.9,108.5 256.1,107.9 256.1,107.1 256.1,106.3 	"/>
	<polyline class="st0" points="221.3,98.2 221,98.2 220.8,98.4 220.6,98.8 220.4,99.2 220.4,99.8 	"/>
	<line class="st0" x1="220.4" y1="99.8" x2="220.4" y2="120.5"/>
	<polyline class="st0" points="220.4,120.5 220.4,121.1 220.6,121.5 220.8,121.9 221,122.1 221.3,122.1 	"/>
	<line class="st0" x1="256.1" y1="99.8" x2="256.1" y2="106.3"/>
	<line class="st0" x1="256.1" y1="113.8" x2="256.1" y2="120.5"/>
	<line class="st0" x1="302.4" y1="251.6" x2="278.5" y2="251.6"/>
	<line class="st0" x1="278.5" y1="342.9" x2="278.5" y2="341.4"/>
	<line class="st0" x1="302.4" y1="342.9" x2="300.8" y2="342.9"/>
	<line class="st0" x1="280.1" y1="342.9" x2="278.5" y2="342.9"/>
	<line class="st0" x1="302.4" y1="302" x2="302.4" y2="304"/>
	<line class="st0" x1="302.4" y1="341.4" x2="302.4" y2="342.9"/>
	<polyline class="st0" points="302.4,251.6 302.4,302 278.5,302 278.5,304 	"/>
	<line class="st0" x1="278.5" y1="302" x2="278.5" y2="251.6"/>
	<polyline class="st0" points="278.5,315.5 278.5,314.1 278.5,304 	"/>
	<polyline class="st0" points="278.5,315.5 278.5,316.3 278.5,341.4 	"/>
	<line class="st0" x1="292.9" y1="320.4" x2="288.2" y2="320.4"/>
	<polyline class="st0" points="280.1,314.3 279.5,314.3 279.1,314.7 278.7,314.9 278.5,315.5 	"/>
	<line class="st0" x1="300.8" y1="314.3" x2="280.1" y2="314.3"/>
	<polyline class="st0" points="302.4,315.5 302.4,314.9 302,314.7 301.4,314.3 300.8,314.3 	"/>
	<line class="st0" x1="302.4" y1="314.1" x2="302.4" y2="315.5"/>
	<polyline class="st0" points="300.8,312.9 301.4,312.9 302,313.3 302.4,313.7 302.4,314.1 	"/>
	<line class="st0" x1="280.1" y1="312.9" x2="300.8" y2="312.9"/>
	<polyline class="st0" points="278.5,314.1 278.7,313.7 279.1,313.3 279.5,312.9 280.1,312.9 	"/>
	<polyline class="st0" points="291.5,314.3 291.1,314.1 290.5,314.1 289.8,314.1 289.4,314.3 	"/>
	<polyline class="st0" points="302.4,341.4 302.4,316.3 302.4,315.5 	"/>
	<line class="st0" x1="302.4" y1="314.1" x2="302.4" y2="304"/>
	<polyline class="st0" points="287,307.8 294.1,307.8 294.1,309.5 287,309.5 287,307.8 	"/>
	<path class="st0" d="M300.9,342.9c0.8,0,1.5-0.7,1.5-1.5"/>
	<polyline class="st0" points="302.4,316.3 302.4,315.9 302,315.5 301.4,315.3 300.8,315.3 	"/>
	<line class="st0" x1="300.8" y1="342.9" x2="280.1" y2="342.9"/>
	<line class="st0" x1="300.8" y1="315.3" x2="280.1" y2="315.3"/>
	<polyline class="st0" points="278.5,316.3 278.7,315.9 279.1,315.5 279.5,315.3 280.1,315.3 	"/>
	<path class="st0" d="M278.7,341.3c0,0.8,0.7,1.5,1.5,1.5"/>
	<polyline class="st0" points="289.2,309.5 289.6,309.3 290.3,309.1 290.9,309.1 291.3,309.3 291.9,309.5 	"/>
	<polyline class="st0" points="292.1,321.6 292.1,321.2 291.7,320.8 291.3,320.6 290.5,320.6 289.8,320.6 289.2,320.8 289,321.2 
		288.8,321.6 	"/>
	<polyline class="st0" points="280.1,302.4 279.5,302.4 279.1,302.8 278.7,303.4 278.5,304 	"/>
	<line class="st0" x1="300.8" y1="302.4" x2="280.1" y2="302.4"/>
	<polyline class="st0" points="302.4,304 302.4,303.4 302,302.8 301.4,302.4 300.8,302.4 	"/>
	<polyline class="st0" points="295.1,321.2 294.5,320.8 294.1,320.6 293.5,320.4 292.9,320.4 	"/>
	<polyline class="st0" points="288.2,320.4 287.6,320.4 287,320.6 286.4,320.8 286,321.2 	"/>
	<polyline class="st0" points="302.4,251.2 302.4,230.1 302.4,223.5 	"/>
	<polyline class="st0" points="278.5,223.5 278.5,230.1 278.5,251.2 	"/>
	<path class="st0" d="M302.4,223.4c0-0.8-0.7-1.5-1.5-1.5"/>
	<path class="st0" d="M280.2,221.8c-0.8,0-1.5,0.7-1.5,1.5"/>
	<line class="st0" x1="278.5" y1="251.2" x2="278.5" y2="251.6"/>
	<path class="st0" d="M302.1,251.6c0.2,0,0.3-0.1,0.3-0.3"/>
	<path class="st0" d="M278.7,251.3c0,0.2,0.1,0.3,0.3,0.3"/>
	<line class="st0" x1="300.8" y1="221.8" x2="280.1" y2="221.8"/>
</g>
<g>
	<line class="st0" x1="471.7" y1="88.1" x2="421.5" y2="59.2"/>
	<polyline class="st0" points="383.7,80 384.9,79.4 397,119.7 380.2,129.4 379.8,128.6 	"/>
	<polyline class="st0" points="479.4,186.6 496.2,176.7 508.3,150.2 	"/>
	<line class="st0" x1="421.5" y1="59.2" x2="384.9" y2="79.4"/>
	<line class="st0" x1="397" y1="119.7" x2="496.2" y2="176.7"/>
	<line class="st0" x1="479.4" y1="186.6" x2="380.2" y2="129.4"/>
	<line class="st0" x1="508.3" y1="150.2" x2="471.7" y2="88.1"/>
	<line class="st0" x1="366" y1="92.3" x2="366.5" y2="92.3"/>
	<polyline class="st0" points="366.7,91.3 366.9,91.1 367.3,90.9 	"/>
	<polyline class="st0" points="367.3,90.9 367.1,90.7 366.7,90.7 366.2,90.9 365.8,91.1 	"/>
	<polyline class="st0" points="365.8,91.1 365.8,91.7 366,92.3 366.2,92.7 	"/>
	<polyline class="st0" points="365.4,95.8 364.8,95.6 364.4,95.2 364,94.8 363.4,95.2 363,95.6 362.6,95.8 363.2,96.4 363.8,97 
		364.6,97.2 	"/>
	<polyline class="st0" points="362.2,95.2 362.6,94.8 362.8,94.4 363.2,94 363.6,93.6 363.2,93.4 362.6,93 	"/>
	<polyline class="st0" points="362.6,93 362.2,93.4 361.6,93.8 361.2,94.2 360.8,94.6 	"/>
	<polyline class="st0" points="360.8,94.6 361.2,94.4 361.4,94.6 361.8,94.8 362.2,95.2 362.6,95.8 	"/>
	<polyline class="st0" points="364,94.8 363.8,94.4 363.6,94.2 363.6,93.6 	"/>
	<polyline class="st0" points="363.6,98.2 363.2,98.4 362.8,98.4 362.4,98.2 362.2,97.8 362.2,97.4 362.2,96.8 362.4,96.4 
		362.6,95.8 	"/>
	<polyline class="st0" points="360.8,94.6 360.4,95.4 360.2,96.4 360.2,97.4 360.6,98.2 361,99 361.2,99.2 361.6,99.4 362,99.4 
		362.4,99.4 363,99.4 363.4,99.2 363.8,98.8 364.2,98.4 364.6,98 365,97.4 365.2,97 365.4,96.4 366,95 366.2,93.8 366.7,92.7 
		366.9,91.7 367.3,90.9 	"/>
	<polyline class="st0" points="366.7,91.3 366.5,92.3 366.2,93.4 365.8,94.4 365.4,95.4 365.2,96.4 364.8,96.8 364.6,97.2 
		364.4,97.6 364.2,97.8 363.8,98.2 363.6,98.2 	"/>
	<polyline class="st0" points="365.4,95.4 365,95.2 364.4,94.6 364.2,94 364,93.4 364.2,92.7 364.8,92.3 	"/>
	<polyline class="st0" points="366,92.3 365.2,91.9 364.6,92.1 364,92.3 363.6,93 363.6,93.6 	"/>
	<line class="st0" x1="365.8" y1="91.1" x2="362.6" y2="93"/>
	<polyline class="st0" points="378.8,94.8 379.8,95.8 380.6,96.8 381.6,97.8 382.2,99 	"/>
	<line class="st0" x1="382.2" y1="99" x2="377.6" y2="101.9"/>
	<line class="st0" x1="375.8" y1="96.6" x2="378.8" y2="94.8"/>
	<line class="st0" x1="376.6" y1="90.5" x2="378.6" y2="89.3"/>
	<polyline class="st0" points="379.8,89.3 381,89.5 382.2,90.1 383.7,90.9 384.9,91.9 385.9,93.2 387.1,94.6 387.9,96 388.7,97.6 
		389.3,99.2 389.7,100.8 389.9,102.3 389.9,103.9 389.7,105.1 389.3,106.1 388.7,107.1 387.9,107.7 	"/>
	<polyline class="st0" points="377.6,89.7 378,89.5 378.6,89.3 	"/>
	<line class="st0" x1="379.8" y1="89.3" x2="376" y2="91.5"/>
	<polyline class="st0" points="376.8,85.7 376.4,85.1 376,84.9 375.4,84.7 375,84.9 	"/>
	<line class="st0" x1="378.6" y1="88.9" x2="376.8" y2="85.7"/>
	<polyline class="st0" points="378.6,89.3 378.8,89.1 378.6,88.9 	"/>
	<polyline class="st0" points="380,88.7 380,89.1 379.8,89.3 	"/>
	<polyline class="st0" points="378.6,88.9 377.6,89.3 376.8,89.9 376.2,90.7 375.8,91.7 375.4,93.2 375.4,94.6 375.6,96.2 376,97.8 
		376.4,99.4 377.2,101 378.2,102.7 379.2,104.1 380.4,105.3 381.6,106.5 382.8,107.3 384.3,107.9 385.5,108.3 386.7,108.3 
		387.7,108.1 388.5,107.7 389.3,106.9 389.9,105.9 390.3,104.9 390.5,103.5 390.5,101.9 390.3,100.2 389.7,98.6 389.1,97 
		388.3,95.4 387.3,94 386.3,92.5 385.1,91.3 383.7,90.3 382.4,89.5 381.2,89.1 380,88.7 	"/>
	<line class="st0" x1="377.8" y1="85.1" x2="380" y2="88.7"/>
	<polyline class="st0" points="376,84.2 376.4,84.2 377,84.2 377.4,84.7 377.8,85.1 	"/>
	<line class="st0" x1="375.2" y1="84.9" x2="376" y2="84.2"/>
	<line class="st0" x1="376.2" y1="86.1" x2="376.8" y2="85.7"/>
	<polyline class="st0" points="382.8,110.4 381.4,109.3 380.2,108.1 378.8,106.9 377.6,105.3 376.4,103.7 375.4,102.1 374.5,100.2 
		373.7,98.2 373.3,96.4 372.9,94.8 372.7,93 372.9,91.3 373.1,89.9 373.5,88.5 374.3,87.5 375.2,86.7 376.2,86.1 	"/>
	<polyline class="st0" points="377.8,85.1 385.3,81 396.2,118 382.8,110.4 	"/>
	<polyline class="st0" points="385.3,81 385.3,81 384.9,80.4 384.5,80.2 384.1,80 383.4,80.2 	"/>
	<line class="st0" x1="396.2" y1="118" x2="396.4" y2="118"/>
	<polyline class="st0" points="396.2,118 396.2,118.6 396.2,119.3 395.8,119.7 395.4,120.1 395.6,120.1 	"/>
	<line class="st0" x1="380.8" y1="128.6" x2="381" y2="128.6"/>
	<line class="st0" x1="395.4" y1="120.1" x2="380.8" y2="128.6"/>
	<polyline class="st0" points="380.8,128.6 380.4,128.8 380,128.6 	"/>
	<polyline class="st0" points="382.8,110.4 382.8,110.8 382.6,111.4 382.2,112 381.8,112.2 	"/>
	<line class="st0" x1="381.8" y1="112.2" x2="395.4" y2="120.1"/>
	<polyline class="st0" points="373.9,85.5 372.9,86.3 371.9,87.3 371.3,88.5 370.9,89.9 370.5,91.5 370.5,93.4 370.7,95.2 
		371.1,97.2 371.7,99.2 372.5,101.2 373.5,103.3 374.5,105.1 376,106.9 377.2,108.5 378.8,109.9 380.2,111.2 381.8,112.2 	"/>
	<polyline class="st0" points="376.2,86.1 375.8,85.5 375.2,85.3 374.7,85.1 374.3,85.3 	"/>
	<polyline class="st0" points="381.8,112.2 367.3,120.7 380.8,128.6 	"/>
	<polyline class="st0" points="366.5,120.7 366.7,120.9 367.3,120.7 365.6,119.7 364,118.4 362.6,117 361.2,115.4 360,113.6 
		358.8,111.6 358,109.7 357.1,107.7 356.5,105.7 356.1,103.7 355.9,101.9 355.9,100 356.1,98.4 356.7,96.8 357.3,95.6 358.2,94.6 
		359.2,93.8 	"/>
	<polyline class="st0" points="366.2,92.7 365.8,92.5 365.4,92.3 365,92.3 364.8,92.3 	"/>
	<polyline class="st0" points="377.6,89.7 377,90.1 376.6,90.5 376.4,90.9 376,91.5 375.8,92.1 375.6,92.7 375.6,93.6 375.4,94.4 
		375.6,95.2 375.6,96 375.8,97 376,98 376.4,98.8 376.8,99.8 377.2,100.6 377.6,101.7 378.2,102.5 378.8,103.3 379.4,104.1 
		380,104.9 380.6,105.5 381.4,106.1 382,106.7 382.8,107.1 383.7,107.5 384.3,107.9 384.9,108.1 385.7,108.1 386.3,108.1 
		386.9,108.1 387.3,107.9 387.9,107.7 	"/>
	<polyline class="st0" points="385.3,81 385.1,80.6 384.7,80.2 384.1,80 383.4,80.2 	"/>
	<line class="st0" x1="385.3" y1="81" x2="396.4" y2="118"/>
	<polyline class="st0" points="395.6,120.1 396,119.7 396.4,119.3 396.4,118.6 396.4,118 	"/>
	<line class="st0" x1="395.6" y1="120.1" x2="381" y2="128.6"/>
	<polyline class="st0" points="380,128.6 380.4,128.8 381,128.6 	"/>
	<line class="st0" x1="376" y1="84.2" x2="383.4" y2="80.2"/>
	<line class="st0" x1="373.9" y1="85.5" x2="374.3" y2="85.3"/>
	<line class="st0" x1="374.1" y1="85.3" x2="375" y2="84.9"/>
	<line class="st0" x1="359.2" y1="93.8" x2="373.9" y2="85.5"/>
	<polyline class="st0" points="359.2,93.8 358.6,94.4 358,94.8 357.3,95.4 356.9,96.2 356.5,96.8 356.1,97.6 355.9,98.4 355.7,99.4 
		355.5,100.2 355.5,101.2 355.5,102.1 355.5,103.1 355.7,105.1 356.3,107.1 356.5,108.3 356.9,109.3 358,111.4 358.4,112.4 
		359,113.2 360.2,115.2 361.6,116.8 363.2,118.4 364.6,119.7 365.4,120.3 366.5,120.7 	"/>
	<line class="st0" x1="366.5" y1="120.7" x2="380" y2="128.6"/>
	<line class="st0" x1="455.5" y1="72.5" x2="455.5" y2="75.1"/>
	<line class="st0" x1="455.5" y1="75.1" x2="455.7" y2="74.9"/>
	<polyline class="st0" points="455.7,72.9 455.7,72.7 455.5,72.5 	"/>
	<line class="st0" x1="460.5" y1="76.2" x2="460.5" y2="78"/>
	<polyline class="st0" points="460.9,78 460.9,78.2 461.2,78.4 	"/>
	<line class="st0" x1="461.2" y1="78.4" x2="461.2" y2="75.8"/>
	<polyline class="st0" points="460.5,76.2 460.7,76 460.9,75.8 461.2,75.8 	"/>
	<line class="st0" x1="455.5" y1="75.1" x2="461.2" y2="78.4"/>
	<line class="st0" x1="461.2" y1="75.8" x2="455.5" y2="72.5"/>
	<line class="st0" x1="455.7" y1="73.1" x2="460.5" y2="76.2"/>
	<polyline class="st0" points="460.9,78 455.7,74.9 455.7,72.9 	"/>
	<line class="st0" x1="458.9" y1="77" x2="460.5" y2="76.2"/>
	<line class="st0" x1="460.9" y1="70.7" x2="454.1" y2="66.8"/>
	<line class="st0" x1="454.1" y1="69.1" x2="462.8" y2="74.1"/>
	<polyline class="st0" points="454.1,66.8 454.1,67 453.9,67.3 	"/>
	<line class="st0" x1="453.9" y1="67.3" x2="460.7" y2="71.3"/>
	<polyline class="st0" points="460.7,71.3 460.9,71.1 460.9,70.7 	"/>
	<line class="st0" x1="460.9" y1="72.3" x2="461.2" y2="72.5"/>
	<polyline class="st0" points="461.6,71.3 461.4,70.9 460.9,70.7 	"/>
	<polyline class="st0" points="460.7,71.3 461.2,71.5 461.4,71.9 461.4,72.1 460.9,72.3 	"/>
	<line class="st0" x1="460.9" y1="72.3" x2="460.5" y2="72.7"/>
	<line class="st0" x1="446" y1="71.9" x2="453.9" y2="67.3"/>
	<polyline class="st0" points="453.9,67.3 453.7,67 453.7,66.8 	"/>
	<line class="st0" x1="453.7" y1="66.8" x2="445.4" y2="71.5"/>
	<polyline class="st0" points="454.1,66.8 453.9,66.8 453.7,66.8 	"/>
	<line class="st0" x1="447.4" y1="72.7" x2="453.7" y2="69.1"/>
	<polyline class="st0" points="462.8,73.9 462.8,74.1 463.2,74.3 463.4,74.5 	"/>
	<line class="st0" x1="454.1" y1="68.9" x2="454.1" y2="69.1"/>
	<polyline class="st0" points="454.1,69.1 453.9,69.1 453.7,69.1 453.7,68.9 	"/>
	<polyline class="st0" points="461.6,71.3 461.8,71.5 461.8,71.9 461.6,72.1 461.2,72.5 	"/>
	<line class="st0" x1="461.2" y1="72.5" x2="460.7" y2="72.7"/>
	<polyline class="st0" points="463.4,74.5 463.2,74.1 462.8,73.9 	"/>
	<line class="st0" x1="462.8" y1="73.9" x2="454.1" y2="68.9"/>
	<line class="st0" x1="453.7" y1="68.9" x2="447.2" y2="72.5"/>
	<path class="st0" d="M453.9,68.9c-0.1-0.1-0.2-0.1-0.3,0"/>
	<line class="st0" x1="455.7" y1="61.2" x2="460.9" y2="70.7"/>
	<polyline class="st0" points="437.5,50.7 438.5,49.8 439.5,49.4 440.7,49 442.1,49 443.5,49.2 445.2,49.8 446.6,50.7 448.2,51.5 
		449.6,52.7 451,54.1 452.5,55.7 453.7,57.5 454.7,59.4 455.7,61.2 	"/>
	<line class="st0" x1="423.3" y1="60" x2="437.5" y2="50.7"/>
	<line class="st0" x1="462.8" y1="74.1" x2="469.9" y2="86.7"/>
	<line class="st0" x1="436.7" y1="49" x2="436.3" y2="49.2"/>
	<line class="st0" x1="409.8" y1="65.6" x2="411.8" y2="64.2"/>
	<line class="st0" x1="426.6" y1="55.9" x2="420.9" y2="59.6"/>
	<line class="st0" x1="421.7" y1="57.7" x2="422.1" y2="57.5"/>
	<line class="st0" x1="463.4" y1="74.5" x2="470.5" y2="87.1"/>
	<line class="st0" x1="456.3" y1="61.6" x2="461.6" y2="71.3"/>
	<polyline class="st0" points="436.7,49 437.9,48.4 439.1,48.2 440.3,48 441.7,48.2 443.1,48.4 444.4,48.8 445.8,49.6 447,50.3 
		448.4,51.3 449.6,52.3 450.8,53.5 452,54.7 453.1,56.1 454.1,57.7 455.1,59.2 455.9,60.8 	"/>
	<line class="st0" x1="409.8" y1="65.6" x2="411.8" y2="64.4"/>
	<line class="st0" x1="421.7" y1="57.7" x2="422.1" y2="57.5"/>
	<line class="st0" x1="469.9" y1="86.7" x2="423.3" y2="60"/>
	<polyline class="st0" points="454.1,66.8 453.9,65.2 453.3,63.4 452.7,61.8 451.8,60.2 450.8,58.6 449.6,57.3 448.4,56.1 447,55.1 
		445.8,54.3 444.6,53.9 443.3,53.7 442.1,53.9 441.1,54.3 440.3,54.9 439.7,55.9 439.3,57.1 439.1,58.6 439.1,60 439.3,61.6 
		439.7,63.2 440.3,65 441.1,66.6 442.1,68.3 443.3,69.7 444.6,70.9 445.8,71.9 447,72.7 448.4,73.1 449.6,73.3 450.8,73.3 
		451.8,72.9 452.7,72.3 453.3,71.5 453.9,70.5 454.1,69.1 	"/>
	<polyline class="st0" points="453.7,69.1 453.3,70.3 452.9,71.3 452.2,72.1 451.4,72.7 	"/>
	<polyline class="st0" points="441.1,54.7 442.1,54.3 443.1,54.3 444.4,54.5 445.6,54.9 446.8,55.5 448,56.5 449.2,57.7 450.4,59 
		451.2,60.6 452.2,62 452.9,63.6 453.3,65.2 453.7,66.8 	"/>
	<polyline class="st0" points="470.5,87.1 470.3,86.9 469.9,86.7 	"/>
	<line class="st0" x1="420.9" y1="59.6" x2="420.3" y2="60"/>
	<line class="st0" x1="469.9" y1="86.7" x2="469.7" y2="86.9"/>
	<line class="st0" x1="423.3" y1="60" x2="423.3" y2="60.2"/>
	<line class="st0" x1="420.9" y1="59.6" x2="420.9" y2="59.6"/>
	<polyline class="st0" points="423.3,60 422.9,59.6 422.3,59.4 421.9,59.4 	"/>
	<line class="st0" x1="421.1" y1="59.4" x2="420.9" y2="59.6"/>
	<polyline class="st0" points="451.4,72.7 451,72.9 450.4,73.1 449.8,73.1 449.2,73.1 448.6,73.1 448,72.9 447.2,72.5 446.6,72.1 
		445.8,71.7 445,71.3 444.4,70.7 443.7,69.9 442.9,69.1 442.3,68.5 441.7,67.5 441.3,66.6 440.7,65.8 440.3,64.8 439.9,63.8 
		439.7,63 439.5,62 439.3,61.2 439.1,60.2 439.1,59.4 439.1,58.6 439.3,57.7 439.5,57.1 439.7,56.5 439.9,55.9 440.3,55.5 
		440.7,55.1 441.1,54.7 	"/>
	<line class="st0" x1="470.5" y1="87.1" x2="470.5" y2="87.3"/>
	<polyline class="st0" points="455.9,60.8 455.9,61 455.7,61.2 456.1,61.4 456.3,61.6 	"/>
	<line class="st0" x1="456.3" y1="61.6" x2="455.9" y2="60.8"/>
	<polyline class="st0" points="437.5,50.7 437.5,50.7 437.7,50.5 437.9,50.3 438.1,50.1 438.1,49.8 437.9,49.6 437.3,49.2 
		436.9,49.2 436.3,49.2 	"/>
	<polyline class="st0" points="411.8,64.4 411.8,64.2 421.7,57.7 	"/>
	<line class="st0" x1="426.6" y1="55.9" x2="436.3" y2="49.2"/>
	<line class="st0" x1="436.3" y1="49.2" x2="421.7" y2="57.7"/>
	<line class="st0" x1="411.8" y1="64.2" x2="426.6" y2="55.9"/>
	<polyline class="st0" points="426.6,55.9 426.6,55.7 426.8,55.7 427.2,55.5 427.4,55.5 427.8,55.3 428.2,55.1 428.6,54.9 
		429.2,54.7 429.8,54.5 430.4,54.3 431,53.9 431.8,53.7 432.8,53.3 433.2,53.1 433.8,52.7 434.4,52.5 435,52.1 435.5,51.9 
		436.1,51.5 436.3,51.5 436.7,51.3 436.9,51.1 437.3,50.9 437.5,50.7 	"/>
	<line class="st0" x1="421.7" y1="57.7" x2="411.8" y2="64.4"/>
	<line class="st0" x1="436.7" y1="49" x2="422.1" y2="57.5"/>
	<polyline class="st0" points="507.9,170.9 507.5,171.1 506.9,171.5 506.3,171.9 505.9,172.1 505.7,172.1 505.9,172.1 506.1,171.9 
		506.7,171.7 507.1,171.3 507.7,171.1 508.1,170.7 508.5,170.5 508.3,170.7 507.9,170.9 	"/>
	<line class="st0" x1="503.2" y1="171.3" x2="512.8" y2="165.8"/>
	<line class="st0" x1="514" y1="167.4" x2="504.1" y2="173.1"/>
	<line class="st0" x1="513.2" y1="165.6" x2="515.4" y2="164.2"/>
	<line class="st0" x1="516.4" y1="166" x2="514.6" y2="167"/>
	<line class="st0" x1="504.1" y1="173.1" x2="516" y2="166.2"/>
	<polyline class="st0" points="514,167.4 515,168.8 515.8,170.2 516.4,171.7 516.8,173.3 517.2,174.7 517.2,176.1 517.2,177.5 
		517,178.5 516.6,179.6 516,180.4 515.2,181 	"/>
	<polyline class="st0" points="504.9,163.2 505.7,162.8 506.9,162.6 507.9,162.8 509.1,163.2 510.3,163.8 511.5,164.8 512.8,165.8 	
		"/>
	<polyline class="st0" points="512.8,165.8 513,165.6 513.2,165.6 	"/>
	<polyline class="st0" points="513.2,165.6 511.9,164.4 510.7,163.4 509.5,162.8 508.3,162.2 507.1,162.2 505.9,162.2 504.9,162.6 
		504.1,163.2 503.4,164.2 503,165.2 502.6,166.6 502.6,168 502.8,169.6 503.2,171.3 503.8,172.9 504.7,174.5 505.5,176.1 
		506.7,177.5 507.7,178.7 509.1,180 510.3,180.8 511.5,181.4 512.8,181.6 514,181.8 515,181.4 516,181 516.8,180.2 517.4,179.2 
		517.6,177.9 517.8,176.7 517.8,175.1 517.6,173.5 517,171.9 516.4,170.2 515.6,168.6 514.6,167 	"/>
	<polyline class="st0" points="514.6,167 514.4,167.2 514,167.4 	"/>
	<line class="st0" x1="497" y1="175.9" x2="507.9" y2="151.6"/>
	<polyline class="st0" points="507.7,151.6 507.9,151.6 508.1,151.4 508.1,151.2 	"/>
	<polyline class="st0" points="496.6,175.7 496.8,175.9 497,175.9 	"/>
	<polyline class="st0" points="495.1,177.3 495.3,177.5 495.6,177.7 496,177.3 496.4,176.9 496.8,176.5 497,175.9 	"/>
	<polyline class="st0" points="480.6,185.8 480.6,186 480.8,186.2 	"/>
	<line class="st0" x1="480.8" y1="186.2" x2="495.6" y2="177.7"/>
	<polyline class="st0" points="480.2,186.2 480.4,186.2 480.8,186.2 	"/>
	<polyline class="st0" points="515.2,181 514.6,181.2 514.2,181.4 513.6,181.4 513,181.4 512.3,181.4 511.5,181.2 510.9,180.8 
		510.1,180.6 509.5,180 508.7,179.6 508.1,179 507.3,178.1 506.7,177.5 506.1,176.7 505.5,175.9 504.9,174.9 504.5,174.1 
		504.1,173.1 503.6,172.3 503.2,171.3 503,170.2 502.8,169.4 502.8,168.4 502.8,167.6 502.8,166.8 502.8,166.2 503,165.4 
		503.2,164.8 503.6,164.2 504.1,163.8 504.3,163.4 504.9,163.2 	"/>
	<line class="st0" x1="507.9" y1="151" x2="508.1" y2="151.2"/>
	<line class="st0" x1="480.2" y1="186.2" x2="480" y2="186.2"/>
	<line class="st0" x1="515.4" y1="164.2" x2="515.6" y2="164.2"/>
	<line class="st0" x1="507.9" y1="151.6" x2="515.4" y2="164.2"/>
	<line class="st0" x1="510.3" y1="183.6" x2="497" y2="175.9"/>
	<polyline class="st0" points="517,167.2 518,169 518.8,170.9 519.6,172.7 520,174.5 520.2,176.3 520.4,177.9 520.2,179.6 
		519.8,181 519.4,182.2 518.6,183.2 517.8,184 516.8,184.6 515.6,185 514.4,185 513.2,184.8 511.7,184.4 510.3,183.6 	"/>
	<line class="st0" x1="516.4" y1="166" x2="517" y2="167.2"/>
	<line class="st0" x1="494.5" y1="193.9" x2="480.8" y2="186.2"/>
	<line class="st0" x1="495.6" y1="177.7" x2="509.1" y2="185.6"/>
	<polyline class="st0" points="494.5,193.9 494.1,194.1 493.7,194.1 	"/>
	<polyline class="st0" points="517,186.4 516,186.8 514.8,187 513.4,187 511.9,186.8 510.5,186.2 509.1,185.6 509.5,185.2 
		509.9,184.8 510.1,184.2 510.3,183.6 	"/>
	<polyline class="st0" points="517.4,167 517.2,167 517,167.2 	"/>
	<polyline class="st0" points="516,166.2 516.4,166 516.6,165.8 516.4,166 	"/>
	<polyline class="st0" points="502.4,194.7 501.4,195.3 500,195.5 498.8,195.5 497.4,195.1 496,194.7 494.5,193.9 	"/>
	<line class="st0" x1="493.7" y1="194.1" x2="480.2" y2="186.2"/>
	<polyline class="st0" points="517,186.4 518,185.6 518.8,185 519.4,184 520,183 520.4,181.8 520.6,180.8 520.8,179.4 520.8,178.1 
		520.8,176.7 520.6,175.3 520.2,173.9 519.8,172.5 519.4,171.1 518.8,169.6 518,168.4 517.4,167 	"/>
	<line class="st0" x1="517.4" y1="167" x2="516.6" y2="165.8"/>
	<line class="st0" x1="515.6" y1="164.2" x2="508.1" y2="151.2"/>
	<polyline class="st0" points="502.4,194.7 501.4,195.3 500.4,195.5 499.4,195.7 498.2,195.5 497,195.5 496,195.1 494.7,194.7 
		493.7,194.1 	"/>
	<line class="st0" x1="509.1" y1="185.6" x2="494.5" y2="193.9"/>
	<line class="st0" x1="517" y1="186.4" x2="502.4" y2="194.7"/>
	<polyline class="st0" points="479,243.7 480.2,244.3 463.2,254 413.2,225.3 414.6,224.5 	"/>
	<polyline class="st0" points="393.4,235.6 376.6,245.3 388.7,285.8 	"/>
	<polyline class="st0" points="488.5,342.5 487.9,342.9 499.8,316.3 516.8,306.6 516.4,307.4 	"/>
	<line class="st0" x1="413.2" y1="225.3" x2="376.6" y2="245.3"/>
	<line class="st0" x1="393.4" y1="235.6" x2="418.3" y2="222.1"/>
	<line class="st0" x1="388.7" y1="285.8" x2="487.9" y2="342.9"/>
	<line class="st0" x1="499.8" y1="316.3" x2="463.2" y2="254"/>
	<line class="st0" x1="480.2" y1="244.3" x2="516.8" y2="306.6"/>
	<line class="st0" x1="371.5" y1="254.6" x2="370.7" y2="255"/>
	<polyline class="st0" points="380,273.4 379,273.9 378,273.9 376.8,273.9 375.4,273.2 374.1,272.6 372.9,271.6 371.7,270.4 
		370.7,269 369.7,267.4 368.9,266 368.3,264.1 367.7,262.5 367.5,261.1 367.5,259.5 367.7,258.3 368.3,257.1 368.9,256.2 
		369.7,255.4 	"/>
	<line class="st0" x1="383.4" y1="241.3" x2="383.7" y2="241.1"/>
	<line class="st0" x1="368.7" y1="249.6" x2="383.4" y2="241.3"/>
	<polyline class="st0" points="368.5,251.6 368.3,251 368.3,250.6 368.5,250 368.7,249.6 	"/>
	<line class="st0" x1="370.3" y1="254.8" x2="368.5" y2="251.6"/>
	<polyline class="st0" points="370.7,255 370.5,255 370.3,254.8 	"/>
	<polyline class="st0" points="371.5,254.8 371.7,255 371.9,255 	"/>
	<polyline class="st0" points="370.3,254.8 369.3,255.2 368.5,255.8 367.7,256.9 367.3,257.9 367.1,259.3 366.9,260.7 367.1,262.1 
		367.5,263.9 368.1,265.6 368.9,267.2 369.7,268.8 370.9,270.2 371.9,271.4 373.1,272.6 374.5,273.4 375.8,274.1 377,274.5 
		378.2,274.5 379.2,274.3 380.2,273.9 381,273 381.6,272 382,270.8 382.2,269.6 382,268 381.8,266.4 381.4,264.7 380.8,263.1 
		379.8,261.5 379,259.9 377.8,258.5 376.6,257.3 375.4,256.5 374.1,255.6 372.7,255 371.5,254.8 	"/>
	<line class="st0" x1="369.5" y1="251.2" x2="371.5" y2="254.8"/>
	<polyline class="st0" points="369.7,249.2 369.5,249.4 369.3,250 369.3,250.6 369.5,251.2 	"/>
	<line class="st0" x1="384.5" y1="240.7" x2="369.7" y2="249.2"/>
	<line class="st0" x1="384.5" y1="240.7" x2="384.5" y2="240.7"/>
	<line class="st0" x1="367.7" y1="252" x2="368.5" y2="251.6"/>
	<polyline class="st0" points="374.5,276.3 373.1,275.5 371.7,274.3 370.3,272.8 369.1,271.4 367.9,269.8 366.9,268 366,266.2 
		365.4,264.3 364.8,262.5 364.6,260.7 364.4,259.1 364.4,257.5 364.8,256 365.2,254.6 365.8,253.6 366.7,252.6 367.7,252 	"/>
	<polyline class="st0" points="369.5,251.2 376.8,247.1 387.9,284 374.5,276.3 	"/>
	<polyline class="st0" points="391.9,236.4 391.9,236.4 392.2,236.4 	"/>
	<line class="st0" x1="377.4" y1="244.9" x2="377.4" y2="244.9"/>
	<line class="st0" x1="391.9" y1="236.4" x2="377.4" y2="244.9"/>
	<line class="st0" x1="376.8" y1="247.1" x2="377" y2="246.9"/>
	<line class="st0" x1="377.4" y1="244.9" x2="377.4" y2="244.9"/>
	<polyline class="st0" points="376.8,245.9 376.8,246.5 376.8,247.1 	"/>
	<polyline class="st0" points="388.3,284.8 388.1,284.6 387.9,284 388.1,284 	"/>
	<line class="st0" x1="377.4" y1="244.9" x2="369.7" y2="249.2"/>
	<line class="st0" x1="384.5" y1="240.7" x2="391.9" y2="236.4"/>
	<polyline class="st0" points="383.2,241.5 378.2,244.3 377.2,244.9 382.2,242.1 383.2,241.5 	"/>
	<polyline class="st0" points="374.5,276.3 374.5,276.9 375,277.1 	"/>
	<line class="st0" x1="368.1" y1="250" x2="367.7" y2="250.2"/>
	<polyline class="st0" points="367.7,252 367.5,251.4 367.5,250.8 367.7,250.4 368.1,250 	"/>
	<line class="st0" x1="368.7" y1="249.6" x2="368.1" y2="250"/>
	<line class="st0" x1="368.1" y1="250" x2="382.6" y2="241.7"/>
	<line class="st0" x1="382.4" y1="241.7" x2="382.6" y2="241.7"/>
	<line class="st0" x1="382.6" y1="241.7" x2="383.4" y2="241.3"/>
	<line class="st0" x1="382.6" y1="241.5" x2="382.6" y2="241.7"/>
	<line class="st0" x1="382.2" y1="242.1" x2="382.2" y2="242.1"/>
	<polyline class="st0" points="380,273.4 380.8,272.8 381.4,272 381.8,271 382,269.6 382,268.2 381.8,266.8 381.4,265.2 
		380.8,263.3 380,261.7 379,260.3 378,258.9 376.8,257.7 375.6,256.7 374.3,255.8 373.1,255.2 371.9,255 	"/>
	<polyline class="st0" points="370.7,255 370.1,255.2 369.7,255.4 	"/>
	<line class="st0" x1="391.9" y1="236.4" x2="392.2" y2="236.4"/>
	<line class="st0" x1="391.9" y1="236.4" x2="384.5" y2="240.7"/>
	<line class="st0" x1="388.3" y1="284.8" x2="375" y2="277.1"/>
	<polyline class="st0" points="375,277.1 374.1,276.7 373.1,276.1 371.7,274.7 370.1,273.2 368.7,271.4 368.1,270.6 367.5,269.6 
		366.5,267.6 365.8,266.6 365.4,265.6 364.8,263.5 364.2,261.5 364,259.5 364,258.5 364,257.5 364,256.7 364.2,255.6 364.4,254.8 
		364.6,254 365,253.2 365.4,252.4 365.8,251.8 366.5,251.2 367.1,250.6 367.7,250.2 	"/>
	<line class="st0" x1="382.4" y1="241.7" x2="367.7" y2="250.2"/>
	<line class="st0" x1="383.4" y1="241.3" x2="382.6" y2="241.5"/>
	<line class="st0" x1="382.6" y1="241.5" x2="382.4" y2="241.7"/>
	<line class="st0" x1="447.2" y1="238.6" x2="447.2" y2="241.1"/>
	<polyline class="st0" points="447.2,241.1 447.4,241.1 447.6,240.9 447.8,240.9 	"/>
	<line class="st0" x1="447.8" y1="240.9" x2="447.8" y2="239"/>
	<line class="st0" x1="447.4" y1="238.8" x2="447.2" y2="238.6"/>
	<polyline class="st0" points="452.7,244.1 452.7,244.1 452.9,244.3 	"/>
	<line class="st0" x1="452.9" y1="244.3" x2="452.9" y2="241.9"/>
	<polyline class="st0" points="452.7,241.9 452.7,241.9 452.9,241.9 	"/>
	<line class="st0" x1="447.2" y1="241.1" x2="452.9" y2="244.3"/>
	<line class="st0" x1="452.7" y1="243.7" x2="447.8" y2="240.9"/>
	<line class="st0" x1="452.9" y1="241.9" x2="447.2" y2="238.6"/>
	<polyline class="st0" points="447.4,238.8 452.7,241.9 452.7,244.1 	"/>
	<line class="st0" x1="449.2" y1="239.9" x2="447.8" y2="240.9"/>
	<line class="st0" x1="452.7" y1="236.8" x2="445.8" y2="232.8"/>
	<line class="st0" x1="445.8" y1="235.2" x2="454.5" y2="240.3"/>
	<line class="st0" x1="445.8" y1="232.8" x2="445.8" y2="233"/>
	<line class="st0" x1="452.7" y1="237" x2="452.7" y2="236.8"/>
	<polyline class="st0" points="455.1,237.2 455.3,237 455.1,236.8 454.5,237 453.9,237 453.3,237 452.7,236.8 	"/>
	<polyline class="st0" points="470.1,227.5 470.3,227.7 470.1,228.1 469.9,228.3 469.9,228.5 469.7,228.7 	"/>
	<line class="st0" x1="469.9" y1="228.3" x2="455.1" y2="236.8"/>
	<line class="st0" x1="445.8" y1="232.8" x2="445.6" y2="232.8"/>
	<line class="st0" x1="469" y1="229.1" x2="471.1" y2="230.3"/>
	<line class="st0" x1="471.1" y1="230.3" x2="471.3" y2="230.3"/>
	<polyline class="st0" points="471.1,230.3 471.5,230.5 471.7,231 471.7,231.2 471.5,231.4 471.7,231.6 471.9,231.4 472.1,231.2 
		471.9,231 	"/>
	<polyline class="st0" points="456.9,240.1 456.7,239.9 456.3,240.1 455.9,240.1 455.3,239.9 454.7,239.7 454.5,239.9 454.5,240.3 
		455.1,240.3 455.7,240.5 456.5,240.3 456.9,240.1 	"/>
	<polyline class="st0" points="446,234.6 445.8,234.8 445.8,235.2 	"/>
	<line class="st0" x1="454.7" y1="239.7" x2="446" y2="234.6"/>
	<line class="st0" x1="456.9" y1="240.1" x2="471.7" y2="231.6"/>
	<line class="st0" x1="471.5" y1="231.4" x2="456.7" y2="239.9"/>
	<line class="st0" x1="445.8" y1="234.6" x2="446" y2="234.6"/>
	<line class="st0" x1="446" y1="234.6" x2="447.4" y2="234"/>
	<line class="st0" x1="445.6" y1="235" x2="445.8" y2="235.2"/>
	<line class="st0" x1="445.8" y1="233" x2="452.7" y2="237"/>
	<polyline class="st0" points="452.7,237 453.3,237.2 453.9,237.4 454.5,237.4 455.1,237.2 	"/>
	<polyline class="st0" points="469.7,228.7 470.1,228.5 470.3,228.3 470.3,227.9 470.1,227.5 	"/>
	<line class="st0" x1="455.1" y1="237.2" x2="469.7" y2="228.7"/>
	<path class="st0" d="M445.8,232.7c0,0.1,0.1,0.2,0.2,0.2"/>
	<line class="st0" x1="469.2" y1="229.1" x2="471.3" y2="230.3"/>
	<polyline class="st0" points="471.3,230.3 471.7,230.5 471.9,231 	"/>
	<line class="st0" x1="445.8" y1="234.6" x2="447.2" y2="233.8"/>
	<path class="st0" d="M445.9,234.6c-0.1,0-0.1,0.1-0.1,0.2"/>
	<line class="st0" x1="447.4" y1="227.3" x2="452.7" y2="236.8"/>
	<polyline class="st0" points="429,216.8 430,216 431.2,215.4 432.4,215.2 433.8,215.2 435.3,215.4 436.7,216 438.3,216.6 
		439.7,217.6 441.1,218.8 442.7,220.2 444,221.8 445.2,223.5 446.4,225.3 447.4,227.3 	"/>
	<line class="st0" x1="415" y1="225.9" x2="429" y2="216.8"/>
	<line class="st0" x1="454.5" y1="240.3" x2="461.4" y2="252.6"/>
	<line class="st0" x1="464.4" y1="218.6" x2="469.9" y2="228.3"/>
	<line class="st0" x1="464" y1="252.6" x2="456.9" y2="240.1"/>
	<line class="st0" x1="455.1" y1="236.8" x2="449.8" y2="227.1"/>
	<polyline class="st0" points="449,225.7 448,223.7 446.8,221.8 445.4,220 444,218.4 442.5,217 440.9,215.8 439.3,214.6 437.7,214 
		436.1,213.3 434.6,212.9 433.2,212.9 431.8,213.3 430.6,213.8 	"/>
	<polyline class="st0" points="445.2,205.5 446.4,204.9 447.8,204.6 449.2,204.6 450.8,204.9 452.2,205.5 453.9,206.3 455.5,207.3 
		457.1,208.5 458.7,209.9 460.1,211.5 461.4,213.3 462.6,215.4 463.8,217.4 	"/>
	<line class="st0" x1="471.7" y1="231.6" x2="478.6" y2="244.1"/>
	<line class="st0" x1="464.8" y1="218" x2="470.1" y2="227.5"/>
	<line class="st0" x1="430.2" y1="214.2" x2="430.6" y2="213.8"/>
	<polyline class="st0" points="445.2,205.5 446.4,204.9 447.6,204.4 449,204.4 450.2,204.4 451.6,204.9 452.9,205.3 454.3,205.9 
		455.7,206.7 456.9,207.7 458.1,208.7 459.3,209.9 460.5,211.1 461.6,212.5 462.6,214 463.6,215.6 464.4,217.2 	"/>
	<line class="st0" x1="471.9" y1="231" x2="479" y2="243.5"/>
	<line class="st0" x1="414.6" y1="224.3" x2="420.3" y2="220.6"/>
	<line class="st0" x1="461.4" y1="252.6" x2="415" y2="225.9"/>
	<polyline class="st0" points="445.8,232.8 445.4,231.2 445,229.5 444.4,227.9 443.3,226.3 442.3,224.7 441.3,223.3 439.9,222.1 
		438.7,221.2 437.5,220.4 436.1,220 434.8,219.8 433.8,220 432.8,220.4 432,221 431.2,222.1 430.8,223.3 430.6,224.5 430.6,226.1 
		430.8,227.7 431.2,229.3 432,231 432.8,232.8 433.8,234.2 434.8,235.6 436.1,236.8 437.5,237.8 438.7,238.6 439.9,239.3 
		441.3,239.5 442.3,239.5 443.3,239 444.4,238.4 445,237.6 445.4,236.4 445.8,235.2 	"/>
	<polyline class="st0" points="443.7,238.4 442.7,238.8 441.5,239 440.3,238.8 439.1,238.2 437.9,237.6 436.7,236.6 435.5,235.4 
		434.2,234 433.2,232.6 432.4,231 431.8,229.3 431.4,227.5 431.2,226.1 431.2,224.5 431.4,223.3 431.8,222.1 432.4,221.2 
		433.2,220.4 	"/>
	<polyline class="st0" points="464,252.6 463.4,252.8 462.8,252.8 462,252.8 461.4,252.6 	"/>
	<polyline class="st0" points="479,243.5 479,243.7 478.8,243.9 478.6,244.1 478.6,244.5 478.6,244.7 	"/>
	<polyline class="st0" points="464,252.6 464,252.8 464,253 	"/>
	<line class="st0" x1="478.6" y1="244.1" x2="464" y2="252.6"/>
	<line class="st0" x1="461.4" y1="252.6" x2="461.6" y2="252.8"/>
	<polyline class="st0" points="414.6,224.3 414.4,224.7 414.4,225.1 414.6,225.5 415,225.9 415,226.1 	"/>
	<polyline class="st0" points="433.2,220.4 434,220.2 434.8,220 435.7,220 436.7,220.2 437.7,220.6 438.7,221.2 439.7,222.1 
		440.7,222.9 441.5,223.9 442.5,225.1 443.3,226.3 444,227.5 444.6,228.7 445.2,230.1 445.4,231.6 445.6,232.8 	"/>
	<polyline class="st0" points="445.6,235 445.4,236.2 445,237 444.4,237.8 443.7,238.4 	"/>
	<polyline class="st0" points="478.6,244.7 478.8,244.3 479,244.1 479,243.7 479,243.5 	"/>
	<line class="st0" x1="464" y1="253" x2="478.6" y2="244.7"/>
	<polyline class="st0" points="461.6,252.8 462.2,253.2 462.8,253.2 463.4,253.2 464,253 	"/>
	<line class="st0" x1="461.6" y1="252.8" x2="415" y2="226.1"/>
	<polyline class="st0" points="414.6,224.3 414.4,224.5 414.4,224.7 414.2,225.1 414.4,225.3 414.6,225.7 415,226.1 	"/>
	<polyline class="st0" points="464.4,218.6 464.6,218.4 464.8,218.2 464.8,218 	"/>
	<line class="st0" x1="458.5" y1="221.8" x2="464.4" y2="218.6"/>
	<line class="st0" x1="449.8" y1="227.1" x2="455.5" y2="223.7"/>
	<polyline class="st0" points="464.4,217.2 464.2,217 464.2,217.2 464,217.2 463.8,217.4 464.4,218.6 	"/>
	<line class="st0" x1="455.5" y1="223.7" x2="454.9" y2="222.5"/>
	<line class="st0" x1="454.9" y1="222.5" x2="449" y2="225.7"/>
	<line class="st0" x1="449" y1="225.7" x2="449.8" y2="227.1"/>
	<polyline class="st0" points="455.5,223.7 455.9,223.1 456.1,222.7 456.5,222.5 456.7,222.3 457.1,222.1 457.3,221.8 457.7,221.8 
		458.5,221.8 457.9,220.6 457.1,221.2 456.5,221.8 455.7,222.1 454.9,222.5 	"/>
	<line class="st0" x1="463.8" y1="217.4" x2="457.9" y2="220.6"/>
	<polyline class="st0" points="449,225.7 448.6,226.1 448,226.5 447.6,226.9 447.4,227.3 448,227.5 448.6,227.3 449.2,227.3 
		449.8,227.1 	"/>
	<line class="st0" x1="464.8" y1="218" x2="464.4" y2="217.2"/>
	<polyline class="st0" points="458.9,229.3 459.7,229.1 460.3,228.9 460.9,228.3 461.6,227.7 	"/>
	<polyline class="st0" points="461.6,227.7 461.4,227.3 460.9,226.9 460.5,227.3 460.3,227.5 460.3,227.9 460.5,228.1 460.7,228.5 	
		"/>
	<polyline class="st0" points="457.9,228.9 457.7,228.9 457.5,228.9 458.1,229.1 458.9,229.3 	"/>
	<polyline class="st0" points="460.9,226.9 460.1,226.7 459.9,226.9 459.9,227.3 459.9,227.7 460.3,227.9 	"/>
	<polyline class="st0" points="457.1,228.5 457.3,228.5 457.5,228.7 	"/>
	<polyline class="st0" points="457.5,228.5 457.5,228.1 457.9,227.9 458.5,227.7 459.1,227.5 459.9,227.7 	"/>
	<polyline class="st0" points="460.1,226.7 459.3,226.5 458.5,226.5 457.7,226.7 457.1,227.1 456.9,227.5 456.7,228.1 457.1,228.5 
		457.5,228.9 	"/>
	<polyline class="st0" points="457.9,228.9 458.3,229.1 458.7,229.1 459.3,229.1 459.7,229.1 	"/>
	<polyline class="st0" points="460.3,228.7 460.5,228.7 460.7,228.5 	"/>
	<polyline class="st0" points="457.5,228.5 457.5,228.5 457.5,228.7 457.9,228.9 	"/>
	<polyline class="st0" points="460.9,226.9 461.8,227.1 462.8,227.1 	"/>
	<polyline class="st0" points="462.8,227.1 463,226.9 463.4,226.3 	"/>
	<polyline class="st0" points="463.4,226.3 463,226.5 462.8,226.5 462,226.3 461.2,226.1 460.5,225.7 460.5,226.1 460.3,226.5 
		460.1,226.7 	"/>
	<polyline class="st0" points="457.7,229.9 457.7,229.5 457.5,228.9 	"/>
	<polyline class="st0" points="456.9,230.1 457.3,230.1 457.7,229.9 	"/>
	<polyline class="st0" points="456.9,228.9 457.1,229.3 457.1,229.5 457.1,229.9 456.9,230.1 	"/>
	<line class="st0" x1="457.1" y1="228.5" x2="456.7" y2="228.5"/>
	<polyline class="st0" points="460.5,225.7 459.7,225.5 458.7,225.5 457.9,225.7 457.1,225.9 456.5,226.3 456.3,226.7 	"/>
	<line class="st0" x1="457.7" y1="229.9" x2="458.9" y2="229.3"/>
	<line class="st0" x1="461.6" y1="227.7" x2="462.8" y2="227.1"/>
	<polyline class="st0" points="463.4,226.3 462.6,225.3 462,224.3 461.2,223.5 460.3,222.7 459.5,222.3 458.5,221.8 	"/>
	<polyline class="st0" points="455.5,223.7 455.3,224.7 455.3,225.7 455.5,226.7 455.9,227.9 456.3,228.9 456.9,230.1 	"/>
	<polyline class="st0" points="456.1,225.5 456.1,224.7 456.3,223.9 456.7,223.3 457.3,223.1 457.9,223.1 458.5,223.5 459.1,223.9 
		459.9,224.7 460.5,225.7 	"/>
	<polyline class="st0" points="456.9,228.9 456.5,227.9 456.3,227.1 456.1,226.3 456.1,225.5 	"/>
	<polyline class="st0" points="420.3,220.6 420.3,220.6 420.3,220.8 420.5,220.6 420.7,220.6 420.9,220.6 421.1,220.6 421.5,220.4 
		421.9,220.2 422.5,220 423.1,219.8 423.7,219.6 424.5,219.2 424.9,219 425.5,218.8 426.1,218.4 426.8,218 427.2,217.8 427.6,217.6 
		428.2,217.2 428.6,217 428.8,217 429,216.8 429.2,216.6 429.4,216.4 429.6,216.2 429.6,216 429.6,215.6 429.6,215 429.8,214.6 
		430.2,214.2 	"/>
	<line class="st0" x1="430.2" y1="214.2" x2="420.3" y2="220.6"/>
	<line class="st0" x1="430.6" y1="213.8" x2="445.2" y2="205.5"/>
	<polyline class="st0" points="524.3,333.1 523.7,333.1 523.3,333.3 	"/>
	<polyline class="st0" points="523.3,333.3 522.7,333.5 522.3,334 521.9,334.2 521.5,334.4 521.9,334.4 522.1,334.6 522.5,334.8 
		522.9,334.4 523.3,334 523.9,333.5 524.3,333.1 	"/>
	<polyline class="st0" points="518.4,337.2 518.8,336.8 519.6,336.4 520.2,336 521,335.6 521.9,335.2 522.5,334.8 	"/>
	<polyline class="st0" points="521.5,334.4 521,334.8 520.2,335.2 519.6,335.6 519,336 518.4,336.2 	"/>
	<polyline class="st0" points="518.6,336 518,336.4 517.6,337 	"/>
	<polyline class="st0" points="517.6,337 518,337 518.2,336.8 	"/>
	<line class="st0" x1="518.6" y1="336" x2="518.6" y2="336"/>
	<polyline class="st0" points="518.6,336 518.6,336 518.4,336.2 518.2,336.4 518.2,336.6 518.2,336.8 	"/>
	<line class="st0" x1="523.3" y1="333.3" x2="521" y2="334.6"/>
	<polyline class="st0" points="520.8,334.8 520.2,335.2 519.6,335.4 519,335.8 518.8,336 518.6,336 518.8,336 519.2,335.8 
		519.8,335.4 520.4,335 521,334.8 521.5,334.4 521,334.6 	"/>
	<line class="st0" x1="520.8" y1="334.8" x2="518.6" y2="336"/>
	<polyline class="st0" points="517.6,337 518,338.2 518.2,339.2 518.6,340.2 518.8,341 519.4,341.6 519.6,341.8 519.8,342 
		520.2,342 520.6,342 521,341.8 521.5,341.6 521.9,341.4 522.3,341 522.7,340.6 523.1,340.2 523.5,339.8 523.7,339.2 524.3,338 
		524.5,336.8 524.7,335.6 524.5,334.4 524.3,333.1 	"/>
	<polyline class="st0" points="522.5,334.8 522.7,336.2 522.7,337.4 522.7,338.2 522.5,338.6 522.1,339.2 521.9,339.6 521.5,340 
		521,340.4 520.6,340.6 520.4,340.6 520,340.4 519.6,340.4 519.4,340 519.2,339.6 	"/>
	<polyline class="st0" points="519.2,339.6 519,339.2 518.8,338.6 518.4,337.8 518.2,336.8 	"/>
	<line class="st0" x1="520.8" y1="334.8" x2="521" y2="334.6"/>
	<polyline class="st0" points="510.1,320.2 510.5,320 511.1,319.6 511.7,319.2 512.1,319 512.3,319 512.1,319 511.7,319.4 
		511.1,319.6 510.5,320 510.1,320.2 	"/>
	<polyline class="st0" points="521.7,321.8 521.5,322 521.3,322.2 	"/>
	<polyline class="st0" points="511.7,327.7 511.9,328.5 512.3,329.5 	"/>
	<polyline class="st0" points="507.3,346.7 506.3,347.1 505.3,347.3 504.1,347.1 502.8,346.5 501.4,345.9 500.2,344.9 499,343.7 
		498,342.2 497,340.8 496.2,339.2 495.6,337.6 495.1,336 494.7,334.4 494.9,332.9 495.1,331.5 495.6,330.3 496.2,329.5 497,328.9 	
		"/>
	<polyline class="st0" points="504.9,331.5 504.9,331.7 504.9,331.5 	"/>
	<polyline class="st0" points="504.9,331.5 503.6,330.5 502.4,329.5 501,328.7 499.8,328.3 498.6,328.1 497.6,328.3 496.6,328.7 
		495.8,329.3 494.9,330.1 494.5,331.3 494.3,332.5 494.3,334.2 494.5,335.6 494.7,337.2 495.3,339 496.2,340.6 497.2,342 
		498.2,343.7 499.4,344.9 500.6,345.9 501.8,346.7 503.2,347.3 504.5,347.7 505.7,347.7 506.7,347.5 507.5,347.1 508.3,346.3 
		508.9,345.3 509.3,344.1 509.5,342.7 509.3,341.2 509.1,339.6 508.7,338 507.9,336.2 507.1,334.8 506.1,333.1 	"/>
	<line class="st0" x1="506.1" y1="333.1" x2="506.1" y2="333.1"/>
	<line class="st0" x1="488.5" y1="342" x2="499.6" y2="317.8"/>
	<polyline class="st0" points="515.6,307.6 515.8,307.6 516,307.8 516.2,307.6 516.4,307.6 516.6,307.6 	"/>
	<polyline class="st0" points="500.8,315.9 501,315.9 501.2,316.1 	"/>
	<line class="st0" x1="501.2" y1="316.1" x2="516" y2="307.8"/>
	<polyline class="st0" points="499.6,317.4 499.6,317.6 499.6,317.8 499.8,317.4 500.4,317 500.8,316.5 501.2,316.1 	"/>
	<polyline class="st0" points="488.5,341.6 488.5,341.8 488.5,342 488.5,342.5 488.7,342.7 	"/>
	<polyline class="st0" points="511.7,327.7 512.1,328.5 512.5,329.5 	"/>
	<polyline class="st0" points="497,328.9 497.8,328.5 498.6,328.3 499.6,328.5 500.6,328.7 501.6,329.1 502.6,329.9 503.6,330.7 
		504.9,331.7 	"/>
	<polyline class="st0" points="506.1,333.1 506.7,334.2 507.3,335.2 507.9,336.2 508.3,337.2 508.7,338.2 508.9,339.4 509.1,340.4 
		509.3,341.4 509.3,342.2 509.3,343.3 509.1,344.1 508.9,344.7 508.7,345.5 508.3,345.9 507.9,346.5 507.3,346.7 	"/>
	<polyline class="st0" points="516.6,307.6 516.4,307.4 516,307.4 515.6,307.6 	"/>
	<line class="st0" x1="500.8" y1="315.9" x2="515.6" y2="307.6"/>
	<polyline class="st0" points="500.8,315.9 500.4,316.3 500,316.8 499.8,317 499.6,317.4 	"/>
	<line class="st0" x1="499.6" y1="317.4" x2="488.5" y2="341.6"/>
	<polyline class="st0" points="488.5,341.6 488.3,342 488.5,342.5 488.7,342.7 	"/>
	<line class="st0" x1="521.3" y1="322.2" x2="504.9" y2="331.5"/>
	<line class="st0" x1="523.9" y1="320.6" x2="521.7" y2="321.8"/>
	<line class="st0" x1="508.9" y1="329.1" x2="523.5" y2="320.8"/>
	<line class="st0" x1="504.9" y1="331.5" x2="506.9" y2="330.3"/>
	<polyline class="st0" points="513.8,326.5 514.4,326.1 515,325.9 515.4,325.5 515.8,325.3 516,325 515.6,325.3 515.2,325.7 
		514.6,325.9 514,326.3 513.6,326.5 513.4,326.7 513.2,326.7 513.4,326.7 513.8,326.5 	"/>
	<line class="st0" x1="507.9" y1="331.9" x2="506.1" y2="333.1"/>
	<line class="st0" x1="524.5" y1="322.4" x2="509.9" y2="330.9"/>
	<polyline class="st0" points="523.5,320.8 523.9,320.6 524.1,320.4 523.9,320.6 	"/>
	<polyline class="st0" points="506.9,330.3 507.3,330.1 507.9,329.7 508.3,329.5 508.9,329.1 	"/>
	<line class="st0" x1="499.6" y1="317.8" x2="506.9" y2="330.3"/>
	<line class="st0" x1="501.8" y1="349.7" x2="488.5" y2="342"/>
	<polyline class="st0" points="508.7,333.3 509.7,335 510.5,336.8 511.1,338.6 511.7,340.6 511.9,342.2 511.9,344.1 511.9,345.5 
		511.5,347.1 510.9,348.3 510.3,349.3 509.5,350.1 508.5,350.7 507.3,350.9 506.1,350.9 504.7,350.9 503.2,350.3 501.8,349.7 	"/>
	<line class="st0" x1="507.9" y1="331.9" x2="508.7" y2="333.3"/>
	<polyline class="st0" points="502.2,350.3 502,350.1 501.8,349.7 	"/>
	<polyline class="st0" points="510.9,351.2 511.9,350.3 512.8,349.3 513.4,348.1 514,346.9 514.2,345.3 514.2,343.5 514.2,341.6 
		513.8,339.8 513.2,337.8 512.5,336 511.7,334 510.5,332.1 	"/>
	<polyline class="st0" points="510.5,332.1 510.1,332.3 509.5,332.7 509.1,332.9 508.7,333.3 	"/>
	<line class="st0" x1="510.5" y1="332.1" x2="509.9" y2="330.9"/>
	<polyline class="st0" points="509.9,330.9 509.3,331.1 508.9,331.5 508.3,331.7 507.9,331.9 	"/>
	<line class="st0" x1="524.5" y1="322.4" x2="525.3" y2="323.6"/>
	<polyline class="st0" points="525.3,323.6 526.3,325.5 527.1,327.5 527.9,329.5 528.3,331.3 528.7,333.3 528.9,335.2 528.7,336.8 
		528.5,338.4 528.1,339.8 527.3,341 526.5,342 525.5,342.7 	"/>
	<line class="st0" x1="508.9" y1="329.1" x2="501.2" y2="316.1"/>
	<line class="st0" x1="516" y1="307.8" x2="523.5" y2="320.8"/>
	<polyline class="st0" points="525.9,323.4 525.9,323.4 525.7,323.4 525.5,323.6 525.3,323.6 	"/>
	<polyline class="st0" points="525.1,322.2 525.1,322.2 524.9,322.2 524.5,322.4 	"/>
	<line class="st0" x1="488.7" y1="342.7" x2="502.2" y2="350.3"/>
	<polyline class="st0" points="502.2,350.3 503.2,350.9 504.5,351.6 505.7,351.8 506.7,352 507.9,352 508.9,352 509.9,351.6 
		510.9,351.2 	"/>
	<line class="st0" x1="516.6" y1="307.6" x2="524.1" y2="320.4"/>
	<polyline class="st0" points="525.9,323.4 526.5,324.6 527.3,326.1 527.9,327.5 528.3,328.9 528.7,330.3 529.1,331.7 529.3,333.1 
		529.3,334.4 529.3,335.8 529.1,337 528.9,338.2 528.5,339.4 527.9,340.4 527.3,341.2 526.5,342 525.5,342.7 	"/>
	<line class="st0" x1="525.1" y1="322.2" x2="525.9" y2="323.4"/>
	<line class="st0" x1="510.5" y1="332.1" x2="525.3" y2="323.6"/>
	<line class="st0" x1="510.9" y1="351.2" x2="525.5" y2="342.7"/>
	<polyline class="st0" points="509.9,320.2 515.2,317.4 516.2,319.2 511.1,322.2 509.9,320.2 	"/>
	<line class="st0" x1="515.2" y1="317.4" x2="510.1" y2="320.4"/>
	<polyline class="st0" points="459.5,391.4 460.9,392.2 411,421 394,411.2 395.2,410.6 	"/>
	<polyline class="st0" points="357.8,474.4 357.3,473.6 374.3,483.3 386.5,509.8 385.7,509.4 	"/>
	<polyline class="st0" points="485.4,452.7 497.6,412.3 480.8,402.5 	"/>
	<line class="st0" x1="411" y1="421" x2="374.3" y2="483.3"/>
	<line class="st0" x1="357.3" y1="473.6" x2="394" y2="411.2"/>
	<line class="st0" x1="386.5" y1="509.8" x2="485.4" y2="452.7"/>
	<line class="st0" x1="497.6" y1="412.3" x2="460.9" y2="392.2"/>
	<line class="st0" x1="455.9" y1="389" x2="480.8" y2="402.5"/>
	<line class="st0" x1="352.5" y1="488.8" x2="350.3" y2="487.5"/>
	<polyline class="st0" points="355.3,501.5 354.7,501.1 353.9,500.7 353.5,500.3 353.1,500.1 352.9,500.1 	"/>
	<line class="st0" x1="355.3" y1="501.5" x2="352.1" y2="499.5"/>
	<polyline class="st0" points="361.8,496.4 362.2,495.6 362.4,494.6 	"/>
	<polyline class="st0" points="352.9,489.2 352.7,489 352.5,488.8 	"/>
	<polyline class="st0" points="377.2,495.8 378,496.4 378.6,497.5 379,498.5 379.4,499.9 379.4,501.3 379,502.9 378.6,504.5 
		378,506.2 377.2,507.8 376.2,509.2 375.2,510.6 373.9,511.8 372.7,512.8 371.3,513.6 370.1,514 368.9,514.2 367.9,514 366.9,513.8 
			"/>
	<line class="st0" x1="369.3" y1="498.5" x2="352.9" y2="489.2"/>
	<polyline class="st0" points="349.7,489.4 349.3,489.2 349,489.2 	"/>
	<line class="st0" x1="364.2" y1="497.9" x2="349.7" y2="489.4"/>
	<polyline class="st0" points="366.2,499.1 365.8,498.7 365.2,498.5 364.8,498.1 364.2,497.9 	"/>
	<line class="st0" x1="368.1" y1="500.1" x2="366.2" y2="499.1"/>
	<line class="st0" x1="368.1" y1="500.1" x2="368.1" y2="500.1"/>
	<polyline class="st0" points="369.3,498.7 369.3,498.7 369.3,498.5 	"/>
	<polyline class="st0" points="368.1,500.1 367.1,501.7 366.2,503.3 365.4,504.9 365,506.6 364.8,508.2 364.6,509.6 364.8,511 
		365.2,512.2 365.8,513.2 366.7,514 367.5,514.4 368.5,514.7 369.7,514.7 370.9,514.4 372.3,513.8 373.5,512.8 374.7,511.8 
		376,510.6 377,509.2 378,507.6 378.8,506 379.4,504.3 379.8,502.7 379.8,501.1 379.8,499.7 379.6,498.3 379.2,497.2 378.4,496.2 
		377.6,495.6 376.6,495.2 375.6,495 374.3,495.2 373.1,495.8 371.7,496.4 370.5,497.5 369.3,498.7 	"/>
	<line class="st0" x1="367.3" y1="497.2" x2="369.3" y2="498.7"/>
	<polyline class="st0" points="365.2,496.2 365.8,496.4 366.2,496.8 366.9,497 367.3,497.2 	"/>
	<line class="st0" x1="350.7" y1="487.7" x2="365.2" y2="496.2"/>
	<polyline class="st0" points="350.3,487.5 350.1,487.3 350.3,487.5 350.7,487.7 	"/>
	<polyline class="st0" points="358.8,492.4 358.4,492.2 358.2,492 358.2,492.2 358.6,492.2 359,492.6 359.6,493 360,493.2 
		360.6,493.6 360.8,493.6 361,493.8 360.8,493.6 360.4,493.4 359.8,493 359.2,492.8 358.8,492.4 	"/>
	<line class="st0" x1="365.4" y1="500.3" x2="366.2" y2="499.1"/>
	<polyline class="st0" points="372.3,516.7 370.9,517.3 369.5,517.9 368.1,518.1 366.9,517.9 365.6,517.7 364.6,517.1 363.8,516.3 
		363.2,515.3 362.6,514 362.2,512.6 362.2,511 362.2,509.2 362.6,507.6 363,505.7 363.6,503.9 364.4,501.9 365.4,500.3 	"/>
	<polyline class="st0" points="367.3,497.2 374.5,484.7 385.7,509 372.3,516.7 	"/>
	<polyline class="st0" points="357.5,474.6 357.8,474.6 358,474.6 358.2,474.8 358.4,474.6 358.6,474.6 	"/>
	<polyline class="st0" points="372.9,483.3 373.1,483.1 373.3,483.1 	"/>
	<line class="st0" x1="358.2" y1="474.8" x2="372.9" y2="483.3"/>
	<polyline class="st0" points="372.9,483.3 373.3,483.5 373.9,483.9 374.3,484.3 374.5,484.7 374.7,484.5 374.5,484.5 	"/>
	<polyline class="st0" points="385.5,509.6 385.7,509.4 385.7,509 385.7,508.8 385.7,508.6 	"/>
	<line class="st0" x1="372.9" y1="483.3" x2="365.2" y2="496.2"/>
	<line class="st0" x1="350.7" y1="487.7" x2="358.2" y2="474.8"/>
	<polyline class="st0" points="359.2,484.3 364.2,487.1 363,489.2 358,486.1 359.2,484.3 	"/>
	<polyline class="st0" points="372.3,516.7 372.1,517.1 371.9,517.5 	"/>
	<polyline class="st0" points="363.6,499.1 362.6,500.9 361.6,502.9 361,504.9 360.4,506.8 360,508.8 360,510.6 360,512.2 
		360.2,513.8 360.8,515.3 361.4,516.5 362.2,517.3 363.2,518.1 	"/>
	<polyline class="st0" points="365.4,500.3 365,500.1 364.6,499.7 364,499.3 363.6,499.1 	"/>
	<line class="st0" x1="364.2" y1="497.9" x2="363.6" y2="499.1"/>
	<line class="st0" x1="363.6" y1="499.1" x2="348.8" y2="490.6"/>
	<polyline class="st0" points="348.6,509.6 347.6,509 346.8,508 346,506.8 345.6,505.3 345.4,503.7 345.2,502.1 345.4,500.3 
		345.8,498.3 346.2,496.4 347,494.4 347.8,492.6 348.8,490.6 	"/>
	<line class="st0" x1="348.8" y1="490.6" x2="349.7" y2="489.4"/>
	<polyline class="st0" points="348.2,490.4 348.4,490.4 348.6,490.6 348.8,490.6 	"/>
	<line class="st0" x1="359.2" y1="484.3" x2="364" y2="487.3"/>
	<polyline class="st0" points="364,487.3 363.6,486.9 363,486.5 362.4,486.3 362,485.9 361.8,485.9 362,485.9 362.4,486.3 
		363,486.5 363.6,486.9 364,487.1 	"/>
	<polyline class="st0" points="355.3,501.5 354.9,501.3 354.5,501.1 354.1,500.9 353.9,500.7 353.5,500.5 353.3,500.3 353.1,500.1 
		352.9,500.1 	"/>
	<polyline class="st0" points="362.4,494.6 362,495.4 361.6,496.4 	"/>
	<polyline class="st0" points="377.2,495.8 376.4,495.4 375.6,495.4 374.5,495.4 373.5,495.6 372.5,496.2 371.5,496.8 370.5,497.7 
		369.3,498.7 	"/>
	<polyline class="st0" points="368.1,500.1 367.5,501.1 366.9,502.1 366.2,503.1 365.8,504.1 365.4,505.3 365.2,506.4 365,507.4 
		364.8,508.4 364.8,509.2 364.8,510.2 365,511 365.2,511.8 365.6,512.4 365.8,513 366.5,513.4 366.9,513.8 	"/>
	<polyline class="st0" points="358.6,474.6 358.2,474.4 357.8,474.4 357.5,474.6 	"/>
	<line class="st0" x1="373.3" y1="483.1" x2="358.6" y2="474.6"/>
	<polyline class="st0" points="374.5,484.5 374.3,484.1 374.1,483.7 373.7,483.3 373.3,483.1 	"/>
	<line class="st0" x1="374.5" y1="484.5" x2="385.7" y2="508.6"/>
	<polyline class="st0" points="385.5,509.6 385.7,509.4 385.9,509.2 385.7,508.6 	"/>
	<line class="st0" x1="357.5" y1="474.6" x2="350.1" y2="487.3"/>
	<line class="st0" x1="385.5" y1="509.6" x2="371.9" y2="517.5"/>
	<polyline class="st0" points="371.9,517.5 370.9,517.9 369.7,518.5 368.7,518.7 367.5,518.9 366.2,518.9 365.2,518.9 364.2,518.5 
		363.2,518.1 	"/>
	<line class="st0" x1="348.6" y1="509.6" x2="363.2" y2="518.1"/>
	<line class="st0" x1="349" y1="489.2" x2="348.2" y2="490.4"/>
	<polyline class="st0" points="348.2,490.4 347.6,491.6 346.8,493 346.2,494.4 345.8,495.8 345.4,497.2 345,498.7 344.8,500.1 
		344.8,501.5 344.8,502.7 345,503.9 345.2,505.1 345.6,506.4 346.2,507.4 346.8,508.2 347.6,509 348.6,509.6 	"/>
	<line class="st0" x1="355.3" y1="501.5" x2="355.3" y2="501.5"/>
	<polyline class="st0" points="355.9,503.1 356.1,503.1 356.3,503.1 356.5,503.3 	"/>
	<polyline class="st0" points="356.5,503.3 356.3,502.7 356.1,502.1 355.7,501.7 355.3,501.5 	"/>
	<line class="st0" x1="355.3" y1="501.5" x2="355.3" y2="501.5"/>
	<polyline class="st0" points="355.5,501.7 354.9,501.3 354.3,500.9 353.9,500.7 353.5,500.3 352.9,500.5 352.3,500.7 351.9,501.3 
		352.5,501.7 353.1,501.9 353.9,502.5 354.7,502.9 355.3,503.3 355.9,503.5 	"/>
	<polyline class="st0" points="351.5,500.9 351.9,500.5 352.3,500.1 352.7,500.1 352.9,500.1 352.5,499.9 352.1,499.5 	"/>
	<polyline class="st0" points="352.1,499.5 351.5,499.3 351.1,499.3 350.7,499.5 350.1,499.5 	"/>
	<polyline class="st0" points="350.1,499.5 350.5,499.7 350.9,500.1 351.3,500.5 351.5,500.9 351.9,501.3 	"/>
	<polyline class="st0" points="353.5,500.3 353.3,500.3 353.1,500.3 352.9,500.1 	"/>
	<polyline class="st0" points="354.9,506.6 354.7,507 354.3,507.2 354.1,507.4 353.7,507.6 353.3,507.4 352.9,507.2 352.5,507 
		352.3,506.6 351.9,506 351.7,505.3 351.5,504.7 351.5,504.1 351.7,502.7 351.9,501.3 	"/>
	<polyline class="st0" points="350.1,499.5 349.9,500.9 349.7,502.1 349.7,503.3 349.9,504.7 350.3,506 350.7,506.6 351.1,507 
		351.5,507.6 351.9,508 352.3,508.4 352.7,508.6 353.1,508.8 353.5,509 353.9,509 354.3,509 354.5,508.8 354.9,508.6 355.3,507.8 
		355.7,506.8 355.9,505.7 356.3,504.5 356.5,503.3 	"/>
	<polyline class="st0" points="354.9,506.6 355.1,506.4 355.1,506 355.5,505.1 355.7,504.3 355.9,503.1 355.9,502.7 355.9,502.3 
		355.9,502.1 355.7,501.9 355.7,501.7 355.5,501.7 355.5,501.5 355.3,501.5 	"/>
	<line class="st0" x1="445" y1="395.3" x2="445" y2="397.9"/>
	<polyline class="st0" points="445,397.9 445,397.7 445,397.5 	"/>
	<line class="st0" x1="445" y1="395.3" x2="445" y2="395.3"/>
	<line class="st0" x1="450" y1="392.4" x2="450" y2="394.3"/>
	<polyline class="st0" points="450,394.3 450.2,394.5 450.4,394.5 450.6,394.7 	"/>
	<line class="st0" x1="450.6" y1="394.7" x2="450.6" y2="392"/>
	<polyline class="st0" points="450.2,392.2 450.4,392.2 450.6,392 	"/>
	<line class="st0" x1="445" y1="397.9" x2="450.6" y2="394.7"/>
	<line class="st0" x1="450" y1="394.3" x2="445" y2="397.1"/>
	<line class="st0" x1="450.6" y1="392" x2="445" y2="395.3"/>
	<polyline class="st0" points="445,397.5 445,395.3 450.2,392.2 	"/>
	<line class="st0" x1="448.4" y1="393.4" x2="450" y2="394.3"/>
	<line class="st0" x1="450.4" y1="387.2" x2="443.5" y2="391.2"/>
	<line class="st0" x1="443.5" y1="393.4" x2="452.2" y2="388.4"/>
	<line class="st0" x1="443.5" y1="391.2" x2="443.3" y2="391.4"/>
	<polyline class="st0" points="450.2,387.4 450.4,387.2 450.8,386.8 451,386.4 451,386 450.6,385.6 	"/>
	<line class="st0" x1="442.9" y1="391.4" x2="442.9" y2="391.2"/>
	<line class="st0" x1="442.9" y1="391.2" x2="436.7" y2="387.6"/>
	<polyline class="st0" points="443.5,391.2 443.1,391.2 442.9,391.2 	"/>
	<line class="st0" x1="434.8" y1="388.8" x2="442.9" y2="393.4"/>
	<polyline class="st0" points="452.5,386.8 452.2,386.8 452.5,387 452.5,387.4 452.2,387.6 452,388 452,388.2 452.2,388.4 
		452.7,388 452.9,387.6 452.9,387.2 452.5,386.8 	"/>
	<polyline class="st0" points="443.1,393 443.3,393.2 443.5,393.4 	"/>
	<line class="st0" x1="452" y1="388" x2="443.1" y2="393"/>
	<line class="st0" x1="451" y1="386.2" x2="452.2" y2="386.8"/>
	<polyline class="st0" points="442.9,393.4 442.9,393 443.1,393 	"/>
	<line class="st0" x1="443.1" y1="393" x2="435.3" y2="388.4"/>
	<polyline class="st0" points="442.9,393.4 443.1,393.4 443.5,393.4 	"/>
	<line class="st0" x1="443.3" y1="391.4" x2="450.2" y2="387.4"/>
	<polyline class="st0" points="450.2,387.4 450.8,387 451,386.6 451,386.4 451,386 450.8,385.8 450.6,385.6 	"/>
	<line class="st0" x1="436.7" y1="387.6" x2="442.9" y2="391.4"/>
	<path class="st0" d="M443.1,391.2c0.1,0.1,0.2,0.1,0.3,0"/>
	<line class="st0" x1="452.5" y1="386.8" x2="452.5" y2="386.8"/>
	<line class="st0" x1="451" y1="386" x2="452.5" y2="386.8"/>
	<line class="st0" x1="445.2" y1="383.7" x2="450.4" y2="387.2"/>
	<polyline class="st0" points="426.8,394.3 427.8,392.4 429,390.6 430.2,388.8 431.6,387.2 433,385.8 434.4,384.5 435.9,383.5 
		437.5,382.9 438.9,382.3 440.3,382.1 441.7,382.1 442.9,382.3 444.2,382.9 445.2,383.7 	"/>
	<line class="st0" x1="412.8" y1="419.7" x2="426.8" y2="394.3"/>
	<line class="st0" x1="452.2" y1="388.4" x2="459.1" y2="392.8"/>
	<polyline class="st0" points="443.5,380.9 442.3,380.3 440.9,380.1 439.5,380.1 437.9,380.3 436.3,380.9 434.6,381.9 432.8,382.9 
		431.2,384.3 429.8,386 428.2,387.6 427,389.6 425.7,391.6 	"/>
	<line class="st0" x1="395.6" y1="411.2" x2="401.3" y2="400.9"/>
	<line class="st0" x1="415.8" y1="409.4" x2="410.2" y2="419.5"/>
	<polyline class="st0" points="411,383.1 412.2,381.1 413.6,379.3 415,377.5 416.6,375.8 418.3,374.4 419.9,373.4 421.5,372.6 
		423.1,372 424.7,371.6 426.3,371.6 427.8,371.8 429,372.4 	"/>
	<line class="st0" x1="452.5" y1="386.8" x2="459.5" y2="391.2"/>
	<line class="st0" x1="445.4" y1="382.1" x2="450.6" y2="385.6"/>
	<line class="st0" x1="443.5" y1="380.9" x2="444.8" y2="381.7"/>
	<line class="st0" x1="395.2" y1="410.4" x2="403.1" y2="396.5"/>
	<polyline class="st0" points="410.4,382.9 411.4,381.3 412.2,379.9 413.2,378.7 414.4,377.3 415.4,376.2 416.6,375 417.8,374.2 
		419.1,373.4 420.3,372.6 421.7,372 422.9,371.8 424.1,371.4 425.3,371.4 426.8,371.6 427.8,371.8 429,372.4 	"/>
	<line class="st0" x1="459.1" y1="392.8" x2="412.8" y2="419.7"/>
	<polyline class="st0" points="443.5,391.2 443.1,389.8 442.7,388.8 441.9,387.8 441.1,387.2 440.1,387 438.9,386.8 437.7,387 
		436.5,387.6 435,388.4 433.8,389.4 432.6,390.6 431.6,392 430.6,393.6 429.8,395.3 429,396.9 428.6,398.7 428.4,400.3 428.4,401.7 
		428.6,403.2 429,404.4 429.8,405.2 430.6,406 431.6,406.4 432.6,406.4 433.8,406.4 435,405.8 436.5,405.2 437.7,404.2 438.9,403 
		440.1,401.5 441.1,400.1 441.9,398.5 442.7,396.7 443.1,395.1 443.5,393.4 	"/>
	<polyline class="st0" points="442.9,393.4 442.7,394.9 442.1,396.5 441.5,398.1 440.7,399.7 439.7,401.1 438.7,402.5 437.5,403.8 
		436.3,404.6 435,405.4 433.6,405.8 432.6,406 431.4,405.8 430.6,405.4 	"/>
	<polyline class="st0" points="440.9,387.6 441.5,388.2 442.3,389 442.7,390 442.9,391.2 	"/>
	<polyline class="st0" points="459.5,391.2 459.7,391.6 459.7,392 459.5,392.4 459.1,392.8 	"/>
	<line class="st0" x1="410.2" y1="419.5" x2="395.6" y2="411.2"/>
	<polyline class="st0" points="395.6,411.2 395.4,410.8 395.2,410.6 395.2,410.4 	"/>
	<line class="st0" x1="459.1" y1="392.8" x2="459.1" y2="393"/>
	<line class="st0" x1="412.8" y1="419.7" x2="412.6" y2="420"/>
	<polyline class="st0" points="412.8,419.7 412.2,419.7 411.4,420 410.8,419.7 410.2,419.5 410.2,420 	"/>
	<polyline class="st0" points="395.6,411.2 395.6,411.5 395.6,411.7 	"/>
	<polyline class="st0" points="430.6,405.4 430,405.2 429.6,404.8 429.4,404.4 429,403.8 428.8,403.2 428.6,402.3 428.6,401.7 
		428.4,400.9 428.6,399.9 428.6,399.1 428.8,398.3 429,397.3 429.4,396.3 429.8,395.5 430.2,394.5 430.6,393.6 431.2,392.6 
		431.8,391.8 432.4,391 433,390.4 433.6,389.6 434.4,389 435,388.6 435.9,388 436.7,387.6 437.3,387.4 437.9,387.2 438.7,387.2 
		439.3,387 439.9,387.2 440.3,387.2 440.9,387.6 	"/>
	<polyline class="st0" points="459.1,393 459.5,392.8 459.9,392.2 459.9,392 459.7,391.8 459.7,391.4 459.5,391.2 	"/>
	<line class="st0" x1="459.1" y1="393" x2="412.6" y2="420"/>
	<polyline class="st0" points="410.2,420 410.8,420.2 411.4,420.2 412,420.2 412.6,420 	"/>
	<line class="st0" x1="410.2" y1="420" x2="395.6" y2="411.7"/>
	<polyline class="st0" points="395.2,410.4 395.2,410.6 395.2,411 395.4,411.5 395.6,411.7 	"/>
	<polyline class="st0" points="444.8,381.7 445,382.1 445.2,382.5 445.2,383.1 445.2,383.7 445.6,383.3 445.6,382.9 445.6,382.3 
		445.4,382.1 	"/>
	<line class="st0" x1="444.8" y1="381.7" x2="445.4" y2="382.1"/>
	<polyline class="st0" points="426.8,394.3 427,394 427,393.8 427.2,393.6 427.2,393.4 427.4,393.2 427.4,393 427.4,392.8 
		427.2,392.4 426.8,392.2 426.1,391.8 425.7,391.6 	"/>
	<polyline class="st0" points="403.1,396.5 402.5,397.5 402.1,398.3 401.7,399.1 401.5,399.7 401.3,400.3 401.1,400.5 401.1,400.9 
		401.3,400.9 411,383.1 410.8,382.9 410.6,382.9 410.4,382.9 	"/>
	<line class="st0" x1="415.8" y1="409.4" x2="425.7" y2="391.6"/>
	<line class="st0" x1="425.7" y1="391.6" x2="411" y2="383.1"/>
	<line class="st0" x1="401.3" y1="400.9" x2="415.8" y2="409.4"/>
	<polyline class="st0" points="415.8,409.4 416,409.4 416.2,409.4 416.4,409.2 416.8,409 417,408.6 417.4,408.2 418.1,407.8 
		418.5,407.2 419.1,406.4 419.7,405.6 420.5,404.6 421.3,403.6 422.1,402.1 422.5,401.3 423.1,400.5 423.7,399.5 424.5,398.3 
		424.9,397.7 425.3,396.9 425.7,396.3 425.9,395.9 426.3,395.1 426.6,394.7 426.8,394.3 	"/>
	<line class="st0" x1="403.1" y1="396.5" x2="410.4" y2="382.9"/>
	<line class="st0" x1="443.5" y1="380.9" x2="429" y2="372.4"/>
	<polyline class="st0" points="504.5,422.6 505.3,423.2 505.9,424 506.5,425.2 506.7,426.4 506.7,428 506.5,429.5 506.1,431.3 
		505.3,432.9 504.5,434.5 503.4,435.9 502.4,437.4 501.2,438.6 500,439.6 498.8,440.2 497.4,440.8 496.2,441 495.1,440.8 
		494.1,440.4 	"/>
	<polyline class="st0" points="502.2,422 502.4,422 502.6,421.8 	"/>
	<polyline class="st0" points="502.6,421.8 501.4,422 500.2,422.6 498.8,423.4 497.6,424.4 496.4,425.6 495.3,426.8 494.3,428.4 
		493.5,430.1 492.7,431.7 492.3,433.3 492.1,434.9 492.1,436.5 492.1,437.8 492.5,439 493.1,440 493.9,440.8 494.9,441.2 496,441.4 
		497.2,441.4 498.4,441 499.6,440.4 501,439.6 502.2,438.4 503.4,437.2 504.5,435.7 505.3,434.1 506.1,432.5 506.7,430.9 
		507.1,429.3 507.3,427.6 507.1,426.2 506.9,424.8 506.5,423.8 505.7,422.8 504.9,422.2 503.8,422 	"/>
	<polyline class="st0" points="503.8,422 503.6,422.2 503.4,422.2 	"/>
	<line class="st0" x1="486.2" y1="450.9" x2="497.4" y2="414.1"/>
	<line class="st0" x1="482.2" y1="403.4" x2="482.2" y2="403.4"/>
	<line class="st0" x1="496.8" y1="411.9" x2="496.8" y2="411.9"/>
	<line class="st0" x1="496.8" y1="411.9" x2="482.2" y2="403.4"/>
	<polyline class="st0" points="497.2,414.1 497.4,414.1 497.6,413.5 497.4,412.9 	"/>
	<line class="st0" x1="497" y1="411.9" x2="496.8" y2="411.9"/>
	<polyline class="st0" points="486,450.9 486.2,450.9 486,451.5 485.8,451.9 	"/>
	<polyline class="st0" points="503.4,422.2 504.1,422.2 504.5,422.6 	"/>
	<polyline class="st0" points="494.1,440.4 493.3,439.8 492.7,439 492.3,438 492.1,436.7 492.1,435.1 492.3,433.7 492.7,432.1 
		493.3,430.5 494.1,428.9 495.1,427.2 496.2,425.8 497.4,424.6 498.6,423.6 499.8,422.8 501,422.4 502.2,422 	"/>
	<line class="st0" x1="482" y1="403.4" x2="482.2" y2="403.4"/>
	<line class="st0" x1="503.4" y1="422.2" x2="502.6" y2="421.6"/>
	<line class="st0" x1="504.5" y1="416.1" x2="489.7" y2="407.6"/>
	<line class="st0" x1="502.6" y1="421.8" x2="504.7" y2="418.1"/>
	<line class="st0" x1="505.7" y1="418.5" x2="503.8" y2="422"/>
	<line class="st0" x1="490.7" y1="408.2" x2="505.5" y2="416.5"/>
	<line class="st0" x1="489.7" y1="407.6" x2="489.7" y2="407.6"/>
	<polyline class="st0" points="504.7,418.1 504.9,417.5 504.9,416.9 504.7,416.3 504.5,416.1 	"/>
	<line class="st0" x1="497.4" y1="414.1" x2="504.7" y2="418.1"/>
	<line class="st0" x1="499.6" y1="443.4" x2="486.2" y2="450.9"/>
	<polyline class="st0" points="506.5,418.9 507.5,419.7 508.3,420.6 508.9,421.6 509.3,423 509.7,424.4 509.7,426 509.7,427.6 
		509.3,429.5 508.7,431.3 508.1,433.1 507.3,434.9 506.3,436.7 505.1,438.4 503.8,440 502.4,441.2 501,442.4 499.6,443.4 	"/>
	<line class="st0" x1="505.7" y1="418.5" x2="506.5" y2="418.9"/>
	<polyline class="st0" points="499.2,444 499.6,443.8 499.6,443.4 	"/>
	<line class="st0" x1="506.5" y1="417.1" x2="506.1" y2="416.9"/>
	<polyline class="st0" points="506.1,416.9 506.5,417.3 506.7,417.9 506.7,418.5 506.5,418.9 	"/>
	<line class="st0" x1="506.1" y1="416.9" x2="505.5" y2="416.5"/>
	<polyline class="st0" points="505.5,416.5 505.7,416.9 505.9,417.5 505.9,418.1 505.7,418.5 	"/>
	<line class="st0" x1="490.7" y1="408.2" x2="491.5" y2="408.6"/>
	<line class="st0" x1="491.5" y1="408.6" x2="491.7" y2="408.8"/>
	<line class="st0" x1="504.5" y1="416.1" x2="496.8" y2="411.9"/>
	<line class="st0" x1="482.2" y1="403.4" x2="489.7" y2="407.6"/>
	<line class="st0" x1="491.5" y1="408.6" x2="491.5" y2="408.6"/>
	<line class="st0" x1="490.5" y1="408" x2="490.7" y2="408.2"/>
	<line class="st0" x1="485.8" y1="451.9" x2="499.2" y2="444"/>
	<polyline class="st0" points="499.2,444 500.2,443.6 501,443 502.4,441.6 504.1,440.2 505.5,438.4 506.1,437.6 506.7,436.5 
		507.7,434.5 508.3,433.5 508.7,432.5 509.3,430.5 509.9,428.4 510.1,426.4 510.1,425.4 510.1,424.4 510.1,423.6 509.9,422.6 
		509.7,421.8 509.5,421 509.1,420.2 508.7,419.3 508.3,418.7 507.7,418.1 507.1,417.5 506.5,417.1 	"/>
	<line class="st0" x1="482.2" y1="403.4" x2="489.7" y2="407.6"/>
	<line class="st0" x1="491.5" y1="408.6" x2="491.7" y2="408.8"/>
	<line class="st0" x1="490.7" y1="408.2" x2="491.5" y2="408.6"/>
	<line class="st0" x1="506.1" y1="416.9" x2="491.5" y2="408.6"/>
	<line class="st0" x1="506.5" y1="417.1" x2="491.7" y2="408.8"/>
	<polyline class="st0" points="496,411.2 490.9,408.4 491.9,409 497.2,411.9 496,411.2 	"/>
	<line class="st0" x1="491.9" y1="409" x2="491.9" y2="409"/>
</g>
</svg>
