<?xml version="1.0" encoding="utf-8"?>
<!-- Generator: Adobe Illustrator 20.1.0, SVG Export Plug-In . SVG Version: 6.00 Build 0)  -->
<svg version="1.1"
	 id="svg2" inkscape:version="0.48.2 r9819" sodipodi:docname="arduino-logo.svg" xmlns:cc="http://creativecommons.org/ns#" xmlns:dc="http://purl.org/dc/elements/1.1/" xmlns:inkscape="http://www.inkscape.org/namespaces/inkscape" xmlns:rdf="http://www.w3.org/1999/02/22-rdf-syntax-ns#" xmlns:sodipodi="http://sodipodi.sourceforge.net/DTD/sodipodi-0.dtd" xmlns:svg="http://www.w3.org/2000/svg"
	 xmlns="http://www.w3.org/2000/svg" xmlns:xlink="http://www.w3.org/1999/xlink" x="0px" y="0px" viewBox="0 0 425.2 425.2"
	 style="enable-background:new 0 0 425.2 425.2;" xml:space="preserve">
<style type="text/css">
	.st0{fill:#00979C;}
</style>
<g>
	<path class="st0" d="M388.2,140.1c-3.5-7.8-8.1-15-13.4-21.4c-8.2-9.7-18.5-17.4-30.2-22.8c-11.7-5.4-24.8-8.4-38.6-8.4
		c-7.1,0-13.9,0.6-20.4,1.9c-6,1.1-11.7,2.8-17.1,4.9c-10.1,4-19,9.5-26.7,16c-6.8,5.7-12.8,12-18.2,18.5
		c-4.1,5.1-8.1,10.3-11.5,15.7c-2.2-3.3-4.6-6.6-7.1-9.8c-4.7-6.3-9.8-12.3-15.7-17.9c-4.3-4.3-9-8.2-14.1-11.7
		c-7.6-5.4-16.3-9.8-25.8-12.8c-9.7-3-20.1-4.7-31.6-4.7l0,0c-12.2,0-23.9,2.4-34.6,6.8c-16,6.5-29.6,17.4-39.4,31.2
		c-4.9,7-8.7,14.6-11.4,22.8s-4.1,16.9-4.1,25.9c0,12,2.5,23.6,7.1,33.9c3.5,7.8,8.1,15,13.4,21.4c8.2,9.7,18.5,17.4,30.2,22.8
		c11.5,5.4,24.5,8.4,38.1,8.4c1.7,0.2,3.5,0.2,5.2,0.2c6.6,0,13.1-0.6,19.1-1.9c5.7-1.3,11.1-2.8,16.1-5.1c4.7-2.1,9.2-4.4,13.3-7.3
		c7.8-5.1,14.6-11.2,20.6-17.9c5.2-5.9,10-12,14.4-18.4c1.9-2.8,3.8-5.7,5.7-8.5c3.6,5.5,7.4,11.1,11.5,16.5
		c4.3,5.7,9,11.2,14.2,16.3c4,3.8,8.1,7.4,12.7,10.6c6.8,4.7,14.6,8.9,23.1,11.5c8.5,2.7,17.9,4.3,27.8,4.3c1.7,0,3.5,0,5.2-0.2
		c12,0,23.7-2.4,34.2-6.8c16-6.5,29.6-17.4,39.4-31.2c4.9-7,8.7-14.6,11.4-22.8s4.1-16.9,4.1-25.9
		C395.3,162.1,392.6,150.5,388.2,140.1z M190.2,178.4c-4.7,7.6-9.5,14.7-14.4,21.2c-3.6,4.7-7.4,9.2-11.2,12.8
		c-2.8,2.8-5.9,5.4-9,7.4c-4.6,3.3-9.5,5.7-14.9,7.4c-5.4,1.7-11.4,2.7-18.5,2.7c-1.3,0-2.7,0-4-0.2h-0.5h-0.5
		c-8.2,0-16-1.6-23.1-4.4c-10.6-4.3-19.6-11.5-25.8-20.4c-3.2-4.4-5.5-9.3-7.3-14.6c-1.7-5.2-2.5-10.8-2.5-16.5
		c0-7.8,1.6-14.9,4.6-21.7c2.2-5.1,5.1-9.7,8.7-13.8c5.4-6.3,12.2-11.4,19.9-15c7.8-3.6,16.5-5.5,25.8-5.5l0,0
		c5.4,0,10.3,0.5,14.7,1.3c4.3,0.8,8.1,1.9,11.7,3.3c6.8,2.7,12.8,6.5,18.5,11.1c4.9,4.1,9.7,9,14.1,14.4c4,4.7,7.8,10,11.4,15.5
		c2.1,3,4,6,5.9,9.2C192.5,174.7,191.3,176.6,190.2,178.4z M360.2,195.6c-2.2,5.1-5.1,9.7-8.7,13.8c-5.4,6.3-12.2,11.4-19.9,15
		s-16.5,5.5-25.6,5.5h-0.5h-0.5c-1.4,0-2.7,0.2-4,0.2c-4.7,0-9-0.5-13-1.3c-3.6-0.8-7.1-1.9-10.3-3.3c-3-1.3-5.9-2.8-8.7-4.7
		c-5.2-3.5-10-7.8-14.7-13c-4.1-4.6-8.1-9.7-12-15.3c-4.3-6.2-8.5-12.8-12.8-19.9c4.4-7,8.9-13.6,13.4-19.8
		c4.1-5.4,8.2-10.3,12.7-14.6c3.3-3.2,6.6-6,10.3-8.5c5.4-3.8,11.1-6.6,17.6-8.7c6.5-2.1,13.8-3.3,22.3-3.3c8.2,0,16,1.6,23.1,4.4
		c10.6,4.3,19.6,11.5,25.8,20.4c3.2,4.4,5.5,9.3,7.3,14.6c1.7,5.2,2.5,10.8,2.5,16.5C364.6,181.7,363,189,360.2,195.6z"/>
	<polygon class="st0" points="309.8,162.9 309.8,146.4 292.6,146.4 292.6,162.9 276,162.9 276,180.1 292.6,180.1 292.6,196.7 
		297.7,196.7 309.8,196.7 309.8,180.1 326.5,180.1 326.5,162.9 	"/>
	<path class="st0" d="M71.9,335.1l-3.3-11.5h-21l-3.5,11.5H32.8l17.9-58.2h15.8l17.9,58.2H71.9z M58.3,287.7l-7.9,27.1h15.8
		L58.3,287.7z"/>
	<path class="st0" d="M121.1,335.1l-8.5-18.7c-0.8-1.7-1.9-3.2-3.3-4c-1.4-0.9-3.2-1.4-5.1-1.4H102v24H90.6v-58.2h17.6
		c3.3,0,6.3,0.3,9,0.8c2.7,0.5,5.1,1.4,7,2.7c1.9,1.3,3.3,3,4.4,5.1c1.1,2.1,1.6,4.6,1.6,7.6c0,2.2-0.3,4.1-0.9,5.7
		c-0.6,1.7-1.6,3.2-2.7,4.3c-1.1,1.3-2.5,2.2-4.1,2.8c-1.6,0.8-3.3,1.3-5.2,1.6c1.4,0.3,2.8,1.1,4.1,2.4s2.5,3.2,3.6,5.7l9.7,19.5
		h-13.4V335.1z M118.3,294.2c0-2.8-0.9-4.9-2.8-6.2c-1.9-1.3-4.7-1.9-8.4-1.9h-4.9v16.5h4.6c1.7,0,3.3-0.2,4.7-0.5
		c1.4-0.3,2.7-0.9,3.6-1.6c0.9-0.8,1.7-1.6,2.4-2.7C117.9,296.7,118.3,295.4,118.3,294.2L118.3,294.2z"/>
	<path class="st0" d="M186.1,305.4c0,4.6-0.6,8.5-1.7,12.3c-1.1,3.6-3,6.8-5.4,9.5c-2.4,2.5-5.5,4.6-9.3,6
		c-3.8,1.4-8.4,2.1-13.8,2.1h-15.3v-58.4h17.9c4.6,0,8.7,0.6,12,1.7c3.5,1.1,6.3,2.8,8.7,5.2c2.4,2.4,4,5.2,5.2,8.9
		C185.7,296.2,186.1,300.3,186.1,305.4L186.1,305.4z M174.1,306c0-3.2-0.3-6-0.8-8.4c-0.5-2.5-1.4-4.6-2.7-6.3c-1.3-1.7-2.8-3-5.1-4
		c-2.1-0.9-4.7-1.3-7.8-1.3h-5.7V326h4.9c5.5,0,9.8-1.6,12.7-4.7C172.5,318.1,174.1,313,174.1,306L174.1,306z"/>
	<path class="st0" d="M236.6,313.8c0,3.6-0.5,7-1.6,9.8c-1.1,2.8-2.5,5.2-4.4,7c-1.9,1.9-4.3,3.3-7,4.3c-2.7,0.9-5.9,1.4-9.3,1.4
		c-3.8,0-7.1-0.5-10-1.4c-2.7-0.9-5.1-2.4-6.8-4.1s-3-4-3.8-6.5c-0.8-2.5-1.1-5.4-1.1-8.5v-38.8H204v38c0,1.9,0.2,3.6,0.5,5.2
		c0.3,1.6,0.9,2.8,1.9,3.8c0.9,1.1,1.9,1.9,3.3,2.4c1.3,0.5,3,0.8,4.9,0.8c1.9,0,3.5-0.2,4.7-0.6c1.3-0.5,2.4-1.3,3.2-2.2
		c0.8-0.9,1.6-2.4,1.9-4c0.5-1.6,0.6-3.5,0.6-5.9v-37.5h11.4v36.9H236.6z"/>
	<polygon class="st0" points="247.7,285.9 247.7,276.9 285.8,276.9 285.8,285.9 272.5,285.9 272.5,326.1 285.8,326.1 285.8,335.1 
		247.7,335.1 247.7,326.1 261,326.1 261,285.9 	"/>
	<polygon class="st0" points="326.9,335.1 310.8,300.5 307.5,292.9 307.5,317.1 307.5,335.1 297,335.1 297,276.9 311,276.9 
		327.4,311.9 330.4,318.7 330.4,293.1 330.4,276.9 340.7,276.9 340.7,335.1 	"/>
	<path class="st0" d="M395,305.9c0,5.2-0.6,9.8-1.9,13.6c-1.3,3.8-3,7-5.2,9.5c-2.2,2.5-4.9,4.3-7.9,5.5c-3,1.3-6.2,1.7-9.7,1.7
		c-7.9,0-13.9-2.5-17.9-7.6c-4-5.1-6-12.5-6-22.1c0-5.2,0.6-9.8,1.9-13.6c1.3-3.8,3-7,5.2-9.5c2.2-2.5,4.9-4.3,7.9-5.5
		c3-1.3,6.2-1.7,9.7-1.7c7.9,0,13.9,2.5,17.9,7.6C392.9,288.6,395,296.1,395,305.9z M382.9,306.4c0-7-0.9-12-2.8-15.3
		c-1.9-3.3-5.1-5.1-9.3-5.1c-2.2,0-4.1,0.5-5.5,1.3c-1.6,0.9-2.8,2.2-3.8,3.8c-0.9,1.7-1.7,3.8-2.2,6.3c-0.5,2.5-0.6,5.4-0.6,8.5
		c0,7,0.9,12,2.8,15.3c1.9,3.3,5.1,5.1,9.3,5.1c2.2,0,4.1-0.5,5.5-1.3c1.6-0.9,2.8-2.2,3.8-3.8c0.9-1.7,1.7-3.8,2.2-6.3
		C382.8,312.4,382.9,309.5,382.9,306.4L382.9,306.4z"/>
	<polygon class="st0" points="92.6,162.7 92.6,180.4 98.6,180.4 147,180.4 147,162.7 	"/>
</g>
</svg>
