<?xml version="1.0" encoding="utf-8"?>
<!-- Generator: Adobe Illustrator 20.1.0, SVG Export Plug-In . SVG Version: 6.00 Build 0)  -->
<svg version="1.1" id="Capa_1" xmlns="http://www.w3.org/2000/svg" xmlns:xlink="http://www.w3.org/1999/xlink" x="0px" y="0px"
	 viewBox="0 0 425.2 425.2" style="enable-background:new 0 0 425.2 425.2;" xml:space="preserve">
<style type="text/css">
	.st0{fill:#FE7F01;}
	.st1{fill:#819CC9;}
	.st2{fill:#4774B3;}
	.st3{fill:#FEFEFE;}
	.st4{fill:#A6A6A6;}
	.st5{fill:#FFFFFF;}
	.st6{fill:#AE4C4C;}
	.st7{fill:#0B0B08;}
</style>
<g>
	<path class="st0" d="M170,328.6c0-10.2,0-20.4,0-30.6c0-1.3,0-2.6,0.6-4c0.7-4,4-6,8.1-5.3c2,0.6,4,1,6,1.6
		c2.3,0.7,4.4,0.6,6.7-0.3c1.3-0.6,2.6-1.3,4.2-1.8c5.3-2.3,10.2-1.8,14.9,1.8c1.3,1,2.9,2,4.4,3.1c1.8,1.3,4,1.3,6,0
		c1.6-1,3.1-2,4.7-3.1c4.2-2.9,8.6-4,13.6-2.9c5.7,1,9.1,4.7,11,10.2c1.6,4.4,1.8,8.9,1.8,13.3c0,16.4,0,32.9,0,49.3
		c0,1,0,2.3-0.3,3.4c-0.6,3.4-2.9,5.3-6.6,5.3c-3.1,0-5.4-2-6-5.4c-0.3-1-0.3-2.3-0.3-3.7c0-10.7,0-21.7,0-32.4
		c0-5.3-0.3-10.4-1.6-15.4c-0.6-2-1.3-4.2-2.6-5.7c-3.1-4.4-8.6-4.7-12.3-0.6c-2,2.6-3.1,5.4-3.7,8.6c-1.3,4.2-1.6,8.1-1.6,12.3
		c0,11.3,0,22.5,0,33.5c0,1.6-0.3,3.4-0.7,5c-0.7,2.6-2.9,4-5.7,4c-3.1,0-5.3-1.3-6-4c-0.6-1.6-0.7-3.4-0.7-5c0-12.6,0-25.3,0-37.9
		c0-4.4-0.6-8.9-2-13c-0.6-1-1-2-1.6-3.1c-3.1-4.4-9.4-4.7-12.7-0.3c-2,2.6-3.1,5.4-3.4,8.6c-0.6,3.7-0.7,7.6-0.7,11.3
		c0,11.6,0,22.7,0,34.3c0,1.6-0.3,3.1-0.6,4.7c-0.7,2.6-2.6,4.2-5.4,4.2c-3.1,0-5.3-1-6.3-4c-0.6-1.8-0.7-3.7-0.7-5.7
		C170,349,170,338.9,170,328.6z"/>
	<path class="st0" d="M166.1,333.3c0,9.4,0,18.6,0,28c0,0.6,0,1.3,0,1.8c-0.3,2-1.3,3.4-3.1,4.2c-2.6,0.7-5.3,0.7-7.9,0
		c-1.6-0.6-2.6-1.8-2.9-3.4c-0.3-1.6-0.3-3.1-0.6-4.7c-0.3-1.8-0.3-3.4-0.6-5.3c-0.7-3.7-2.9-5-6.6-4.2c-3.4,0.7-6.7,1.3-10.2,1
		c-9.1-0.6-15.7-4.7-19-13c-3.7-9.1-4.2-18.6-0.3-27.7c3.1-7.3,8.6-11.7,16.4-13c4-0.7,7.6-0.6,11.3,0.7c4.4,1.6,8.9,1.6,13.6,0.6
		c1.8-0.6,4,0,6,0.3c2,0.6,3.4,2,3.7,4.2c0,0.7,0.3,1.6,0.3,2.3C166.1,314.5,166.1,323.9,166.1,333.3z M152,324.2
		c-0.3-5-1-9.4-4-13.3c-2.9-3.7-7.9-5.4-12-4.2c-3.4,1-5.7,3.4-7.3,6.3c-2.3,4.4-2.6,8.9-2,13.9c0.3,3.7,1.3,7,3.7,10
		c4.4,6,13,6,17.6,0.3C151,333.3,151.7,328.6,152,324.2z"/>
	<path class="st0" d="M255.5,332.6c0-9.4,0-18.9,0-28c0-0.6,0-1.3,0-1.8c0.6-2.9,2.3-4.7,6-4.7c2,0,4.2,0.3,6,0.7
		c2.9,0.6,5.7,0.6,8.6-0.6c5.3-1.8,10.7-2,16-0.6c6.7,1.8,11.7,6.3,14.1,12.6c4,10.2,3.4,20.1-1.3,29.9c-3.1,6.6-8.9,9.7-16,10.4
		c-4.2,0.6-8.3-0.3-12.6-1c-2.9-0.6-5.3,0.7-6,3.4c-0.3,1.3-0.6,2.6-0.6,4c-0.3,2-0.3,4.2-0.6,6c-0.3,2.9-1.8,4.2-4.4,4.4
		c-1.6,0.3-3.1,0.3-4.4,0c-3.1-0.6-4.7-2-5-5.4c0-0.7,0-1.3,0-2C255.5,350.9,255.5,341.6,255.5,332.6z M269.6,322.9
		c0,5.3,0.7,9.1,3.1,12.7c2.9,4.4,7.3,6.3,12.3,5.3c4.2-0.7,6.6-3.7,8.1-7.3c1-2.6,1.6-5.4,1.8-8.6c0.3-4.2-0.3-8.3-2-12
		c-4-8.1-14.1-8.9-19.6-1.8C270.3,314.7,269.6,319.2,269.6,322.9z"/>
	<path class="st1" d="M134.4,276.3c5.4,0,10.2,0.6,14.9,2c1.6,0.6,3.1,1.6,4.4,2.3c0.7,0.6,1.3,1.6,1.3,2.6c0,1.3-1,2.6-2.3,2.6
		c-1.3,0-2.6,0-3.7-0.6c-5-1.6-10-2.6-14.9-2.3c-11,0.6-20.1,4.2-27.4,12.3c-2.9,3.1-5,6.7-6.7,11c-0.7,1.8-2.3,2.9-4.2,2.9
		c-1.3,0-2.3-0.7-2.6-2s-0.3-2.3,0.3-3.7c6.3-14.3,17-23,32.2-26.2c1-0.3,1.8-0.3,2.9-0.6C130.8,276.6,132.8,276.6,134.4,276.3z"/>
	<path class="st1" d="M286.3,276.3c10.7,0,20.6,3.1,29,10c5.7,4.7,10,10.7,12.6,17.6c0.6,1,0.3,2.3,0,3.4c-0.3,1-1.3,1.8-2.3,1.8
		c-2,0-3.7-1-4.4-3.1c-3.7-8.3-9.4-14.6-17.6-18.9c-4.4-2-8.9-3.4-13.9-3.7c-6-0.6-11.7,0.3-17.6,2c-1,0.3-2,0.6-3.4,0.6
		c-2.3,0-3.4-2.3-2-4.2c1.3-2,3.4-2.9,5.7-3.4C276.9,276.9,281.6,276.3,286.3,276.3z"/>
	<path class="st1" d="M132.1,371.2c-6.3-0.3-11.6-1.6-16.7-3.7c-8.1-3.7-14.3-9.4-18.9-17c-1-1.6-1.3-3.4-1-5.3
		c0.3-1.6,1.3-2,2.6-1.8c2,0.3,3.4,1.6,4.4,3.4c5.4,10,13.9,15.7,25,17.3c2.9,0.6,6,0.6,9.1,0.6c2,0,3.4,0.6,3.7,2
		c0.3,1.3-0.6,2.9-2.3,3.4C135.8,370.6,133.7,370.9,132.1,371.2z"/>
	<path class="st1" d="M290.2,370.9c-2.9-0.3-5.3-0.3-7.6-1.6c-0.7-0.6-1.6-1-1.8-2c-0.3-1.8,0.7-2.9,3.1-2.9c1.8,0,3.7,0,5.4,0
		c9.4-0.6,17.7-4,24.3-10.7c1.8-2,3.4-4.4,5-6.7c1-1.6,2-3.1,4.2-3.7c1.8-0.6,3.1,0.6,3.1,2.3c0,1.6-0.3,3.4-1,4.7
		c-6.3,11-16,17.6-28.3,20.1C294.5,370.5,292.1,370.6,290.2,370.9z"/>
	<path class="st2" d="M135,288.9c5,0,9.4,1.3,14.1,2.9c1.3,0.6,2,1.3,1.8,2.3c-0.3,1-1.6,2-2.9,1.8c-1.3-0.3-2.3-0.6-3.7-1
		c-8.3-2.3-16.4-2-24,2.6c-5,2.9-8.1,7.3-10.4,12.6c-0.3,0.7-0.7,1.6-1.3,2.3c-1,1-2.3,0.7-2.9-0.6c-0.7-1-0.7-2-0.3-3.1
		c4.4-11,12.6-17.7,24.3-19.6C131.4,288.9,133.1,288.9,135,288.9z"/>
	<path class="st2" d="M284.8,288.9c11,0,19,3.1,25.3,10.2c2.6,2.9,4.4,6.3,5.7,10c0.3,0.7,0.3,1.8,0,2.6c-0.6,1.6-2,1.8-3.1,0.6
		c-0.6-0.6-1-1.3-1.3-2c-3.7-8.9-10-14.3-19.6-16.3c-5.4-1-10.7-0.6-16,1.3c-0.7,0.3-1.6,0.6-2.6,0.7c-1,0.3-1.8-0.3-2.6-1
		c-0.7-0.7-0.6-2,0.3-2.9c0.3-0.3,0.7-0.6,1-0.6C276.6,290,281.3,288.6,284.8,288.9z"/>
	<path class="st2" d="M286.3,358.9c-2.6-0.3-5.4-0.7-8.6-1.3c-0.7,0-1.6-0.6-2.3-0.7c-1.3-0.7-1.8-1.8-1.3-2.9c0.3-1,1.3-1.3,2.9-1
		c2.6,0.6,5.3,1,8.1,1.3c10.4,0.6,18.9-2.9,24.3-12.3c0.3-0.6,0.7-1.3,1.3-1.6c1-1,2.6-0.7,3.1,0.6c0.6,1,0.3,2-0.3,3.1
		c-4.4,8.1-11.6,12.7-20.6,14.3C290.8,358.6,288.9,358.6,286.3,358.9z"/>
	<path class="st2" d="M135.8,358.9c-8.9,0-16-2-21.7-7c-2.6-2.3-4.7-5-6.3-7.9c-0.3-0.6-0.3-1-0.3-1.6c0-1.3,0.6-2,1.6-2.3
		c1-0.3,1.8,0.3,2.3,1c1,1.6,2,3.1,3.1,4.7c4.2,5.3,10,7.9,16.7,8.6c4.4,0.6,8.9-0.3,13.3-1.3c1.8-0.3,2.6,0.3,2.9,1.6
		c0,1-0.6,1.8-1.3,2c-1,0.6-1.8,1-2.9,1C140.2,358.5,137.4,358.9,135.8,358.9z"/>
	<path class="st2" d="M181.4,380.6c0-1,0-2,0-2.9c0-1,0.6-1.3,1.3-1.3c1,0,2,0,3.1,0c0.7,0,1.6,0,2.3,0.3s1.3,0.3,2,0
		c0.7-0.3,1.8-0.6,2.9-0.3c1,0,1.8,0.7,1.8,2c0,1.8,0,4,0,5.7c0,0.7-0.6,1-1,1c-0.6,0-1-0.3-1-1c0-1,0-2,0-3.1c0-0.6,0-1.3-0.3-1.8
		c-0.3-0.7-0.7-1.3-1.6-1.3s-1.3,0.3-1.6,1c-0.3,1-0.3,2-0.3,3.1c0,0.6,0,1,0,1.6c0,0.7-0.3,1-1,1.3c-0.7,0-1-0.6-1-1
		c0-1.3,0-2.6,0-4c0-1.3-0.6-2-1.6-2s-1.6,0.6-1.8,1.8c0,1.3,0,2.3,0,3.7c0,0.7,0,1.6-1,1.6c-1,0-1.3-0.6-1-1.6
		C181.4,382.5,181.4,381.5,181.4,380.6z"/>
	<path class="st2" d="M140.7,381.9c0,1.6,0,3.1,0,4.7c0,0.7-0.3,1.3-1.3,1.3c-0.7,0-1.3-0.3-1.3-1c0-0.3,0-0.6,0-0.7
		c0-0.7-0.6-1.3-1.3-1c-1.8,0.3-3.4,0.3-4.4-1.6c-1-1.8-1-4,0-6c0.7-1.3,2.3-1.8,4.2-1.6c0.7,0.3,1.8,0.3,2.6,0c1,0,1.6,0.3,1.6,1.3
		C140.7,378.8,140.7,380.4,140.7,381.9z M133.9,380.4c0,0.3,0,0.7,0.3,1.3c0.3,1,0.7,1.6,1.8,1.8c1,0,1.8-0.7,1.8-1.6
		c0.3-0.7,0.3-1.8,0-2.6c-0.3-1-1-1.6-2-1.6s-1.6,0.7-1.8,1.8C133.9,379.6,134.2,380.1,133.9,380.4z"/>
	<path class="st2" d="M232.7,381.9c0-1.6,0-3.1,0-4.4c0-1,0.3-1.3,1.3-1.3s1.8,0,2.9-0.3c2.6-0.3,4.4,1,4.7,4c0,1.3,0,2.6-0.7,3.7
		c-1,1.3-2.3,1.6-4,1.3c-1.6-0.3-1.6,0-1.8,1.6c0,0.7-0.3,1.3-1.3,1.3c-0.7,0-1.3-0.3-1.3-1.3C232.7,385.1,232.7,383.5,232.7,381.9z
		 M239.3,380.6c0-0.6,0-1,0-1.3c-0.3-1-1-1.8-1.8-1.8c-1,0-1.8,0.6-2,1.6c-0.3,1,0,2,0.3,3.1c0.3,0.6,1,1,1.8,1
		c0.7,0.3,1.3-0.6,1.6-1.3C239,381.5,239.3,380.9,239.3,380.6z"/>
	<path class="st2" d="M165,379.1c0-1.6,0-3.1,0-4.4c0-1,0.3-1.3,1.3-1.3s1.3,0.6,1.3,1.6s0,2,0,3.1c0,0.7,0.6,0.7,1,0.6
		c0.6-0.3,0.7-0.7,1.3-1c0.7-0.3,1.6-0.7,2.3-0.7s1,0.6,0.6,1c-0.3,0.6-0.7,0.7-1,1.3c-0.6,0.7-0.7,1.3-0.3,2c0.7,1,1.3,2,1.8,3.1
		c0.6,0.7,0.3,1.3-0.7,1.3c-0.7,0-1.3-0.6-1.8-1c-0.6-0.6-0.7-1-1-1.6c-0.3-0.3-0.7-0.6-1-0.6s-0.6,0.6-0.7,0.7
		c-0.3-0.3-0.3,0-0.3,0.6c0,0.7-0.3,1.3-1.3,1.3c-1,0-1.3-0.6-1.3-1.3C165,381.9,165,380.4,165,379.1z"/>
	<path class="st2" d="M216,379.1c0-1.6,0-3.1,0-4.7c0-0.7,0.3-1.3,1.3-1.3c0.7,0,1.3,0.6,1.3,1.3c0,0.3,0,0.3,0,0.6
		c0,1.3,0.3,1.6,1.6,1.3c2.6-0.6,4,0.6,4.2,3.1c0,1.6,0,2.9,0,4.4c0,1-0.6,1.3-1.3,1.3c-1,0-1.3-0.6-1.3-1.3c0-1,0-2,0-3.4
		c0-0.6,0-1-0.3-1.3c-0.3-0.6-0.7-1-1.3-1c-0.6,0-1,0.6-1.3,1c-0.3,0.3-0.3,0.7-0.3,1.3c0,1,0,2,0,3.4c0,1-0.3,1.6-1.3,1.6
		s-1.3-0.6-1.3-1.6C216,381.9,216,380.4,216,379.1z"/>
	<path class="st2" d="M253.6,375.6c2.9,0,4.7,1.6,5,4c0.6,4.2-2.6,5.7-5.7,5.4c-2.9-0.3-4.4-2.3-4.2-5.3
		C248.9,377.2,251,375.6,253.6,375.6z M256,380.4c0-1.6-1-2.6-2.3-2.6c-1.6,0-2.3,1-2.3,2.6c0,1.6,1,2.9,2.3,2.9
		C254.9,383.2,256,381.9,256,380.4z"/>
	<path class="st2" d="M202.4,380.9c-0.7,0-1.6,0-2,0c-0.3,0-0.7,0.3-0.7,0.6c0,0.3,0,0.7,0.3,1c0.7,1,1.8,0.7,3.1,0
		c0.6-0.3,1-0.6,1.6-0.3c0.7,0.3,0.7,0.7,0.3,1.3c-1,1.3-3.7,1.8-5.4,1c-1.8-0.6-2.9-2-2.9-4c-0.3-3.7,2.3-6,6-5
		c1.8,0.6,3.1,2,3.1,4c0,0.7-0.3,1-1,1C203.7,380.6,203.3,380.6,202.4,380.9C202.4,380.6,202.4,380.9,202.4,380.9z M200.8,379.6
		c0.7-0.6,1.6-0.7,1.6-1c0-0.7-0.7-1-1.6-1c-0.7,0-1.8,0.6-1.6,1C199.6,379.1,200.3,379.3,200.8,379.6z"/>
	<path class="st2" d="M268.6,375.6c2.6,0,4.2,1.6,4.4,4c0,0.7-0.3,1.3-1,1.3c-1.3,0-2.6,0-3.7,0c-0.6,0-0.7,0.6-1.3,0.7
		c0.3,0.6,0.6,1,0.7,1.3c0.7,0.6,1.6,0.3,2.3-0.3c0.3-0.3,0.6-0.6,1-0.6c0.6,0,1,0.3,1.6,0.6c0,0,0,0.7-0.3,1
		c-1.3,1.6-4.2,1.8-6.3,0.7c-1.8-1-2.6-3.1-1.8-5.4C264.6,376.9,266.2,375.6,268.6,375.6z M268.6,379.6c0.7-0.3,1.3-0.6,1.6-1
		c0.3-0.3-0.7-1-1.6-1c-0.7,0-1.6,0.3-1.6,1C266.9,379.1,267.7,379.3,268.6,379.6z"/>
	<path class="st2" d="M150.1,380.4c0,1,0,2,0,3.1s-0.6,1.3-1.3,1.3c-1.3,0-2.6,0.3-4,0.3c-2,0.3-3.1-0.7-3.1-2.9c0-1.6,0-3.1,0-5
		c0-0.7,0.3-1.3,1.3-1.3c0.7,0,1.3,0.3,1.3,1.3c0,1.3,0,2.6,0,4c0,1.3,0.6,1.8,1.3,1.8c1,0,1.6-0.6,1.6-1.8s0-2.6,0-4
		c0-1,0.3-1.3,1.3-1.3s1.3,0.3,1.3,1.3C150.1,378.2,150.1,379.3,150.1,380.4z"/>
	<path class="st2" d="M210.3,385.3c-1-0.3-2-0.6-3.1-1c-0.3-0.3-0.6-0.7-0.6-1.3c0.6-0.3,1-0.6,1.6-0.6c0.3,0,0.6,0.3,1,0.3
		c0.6,0.3,1,0.6,1.8,0.3c0.6,0,0.7-0.6,1.3-0.7c-0.3-0.3-0.6-0.7-1-0.7c-0.7-0.3-1.8-0.6-2.6-0.7c-1-0.3-1.6-1-1.8-2
		c0-1,0.6-1.8,1.3-2.3c1.8-1,3.7-0.7,5.4,0c0.3,0,0.6,0.7,0.6,0.7c-0.3,0.3-0.6,0.7-1,0.7c-0.3,0-0.7,0-1-0.3c-0.3,0-0.7-0.3-1-0.3
		c-0.6,0-1,0.3-1.6,0.6c0.3,0.3,0.7,0.7,1,1c0.7,0.3,1.6,0.3,2.3,0.6c1,0.3,1.8,1,1.8,2c0,1.3-0.6,2-1.6,2.6
		C212.3,384.8,211.3,385.1,210.3,385.3z"/>
	<path class="st2" d="M155.4,380.4c0-1.8,0.7-3.4,2.6-4.4c1.8-0.7,3.7-0.7,5.4,0.6c0.3,0.3,0.3,0.7,0.6,1.3c-0.6,0.3-1,0.6-1.6,0.6
		c-0.3,0-0.6-0.3-1-0.6c-1.3-0.6-2.6,0-2.9,1.3c-0.7,2,0.6,4,2.3,3.7c0.6,0,0.7-0.3,1-0.6c0.7-0.6,1.3-0.6,1.8,0.3
		c0.6,0.7-0.3,1-0.6,1.6c-1.8,1.3-3.7,1.3-5.4,0.6C155.8,383.8,155.4,382.2,155.4,380.4z"/>
	<path class="st2" d="M278.2,385.1c-1.6,0-3.1-0.6-4-2.3c-0.7-1.8-0.7-3.7,0.6-5.4c1.3-1.6,2.9-2,4.7-1.8c0.7,0,1.6,0.6,2,0.7
		c0.3,0.3,0.6,0.7,0.6,1.3c-0.6,0.3-1,0.6-1.6,0.6c-0.3,0-0.7-0.3-1-0.6c-0.6,0-1-0.3-1.6-0.3c-1,0.3-1.3,1-1.6,2c0,1,0,2,1,2.9
		c0.7,0.6,1.6,0.6,2.3,0c0.3-0.3,0.6-0.6,0.7-0.6c0.6,0,1,0.3,1,0.6c0.3,0.3,0,0.7-0.3,1C281.1,384.8,280,385.1,278.2,385.1z"/>
	<path class="st2" d="M287.3,385.3c-2.3-0.3-3.1-1-3.1-3.1c0-0.7,0-1.8,0-2.6c0-0.6-0.3-1.3-0.7-1.8c-0.6-0.6-0.6-1,0-1.6
		c0.3-0.6,0.7-1,0.7-1.6c0.3-0.7,0.7-1.3,1.6-1.3c0.9,0,1.3,0.3,1.6,1.3c0,0.6,0.6,1,1,1.3c0.7,0.6,0.7,1,0,1.6
		c-0.7,0.3-1,0.7-1,1.6c0,0.9,0,1.3,0,2s0.3,1.3,0.7,1.6c0.6,0.3,1,0.7,0.7,1.3C288.5,384.5,287.9,384.8,287.3,385.3z"/>
	<path class="st2" d="M262.8,380.9c0,1.3,0,2.9,0,4.2c0,1.6-1.3,2.6-2.9,2.3c-1-0.3-1.6-1-0.7-1.8s1-1.6,1-2.6c0-2,0-4,0-6
		c0-1,0.6-1.6,1.6-1.6c1,0,1.3,0.3,1.3,1.6C262.8,378.2,262.8,379.6,262.8,380.9L262.8,380.9z"/>
	<path class="st2" d="M242.6,380.4c0-1,0-2,0-3.1c0-1.3,0.6-1.6,1.8-1.6c1,0,2,0,2.9,0.3c0.3,0,0.7,0.6,0.7,0.7c0,0.6-0.3,1-0.6,1.6
		c0,0.3-0.6,0.3-0.7,0.3c-0.7,0.3-1.3,0.7-1.3,1.8s0,2.3,0,3.4c0,0.7-0.3,1.3-1.3,1.3c-1,0-1.6-0.3-1.6-1.3
		C242.6,382.5,242.6,381.5,242.6,380.4L242.6,380.4z"/>
	<path class="st2" d="M151.4,380.4c0-1,0-2,0-3.1c0-0.7,0.6-1.3,1.3-1.3s1.6,0.3,1.6,1c0,2.3,0,4.7,0,7c0,1-0.7,1-1.6,1
		c-0.7,0-1.3-0.3-1.3-1C151.4,382.8,151.4,381.5,151.4,380.4L151.4,380.4z"/>
	<path class="st2" d="M153,372.5c0.7,0,1.3,0.3,1.3,1c0,1-0.7,1-1.6,1c-0.7,0-1.3-0.3-1.3-1C151.4,373.1,152,372.5,153,372.5z"/>
	<path class="st2" d="M261.7,372.2c0.6,0,1.3,0.3,1.3,1c0,1-0.7,1-1.3,1c-0.7,0-1.3-0.3-1.3-1C260.2,372.5,260.9,372.2,261.7,372.2z
		"/>
	<path class="st3" d="M253.6,383.2c-1.3,0-2.3-1.3-2.3-2.9s1-2.6,2.3-2.6"/>
</g>
<g>
	<path class="st4" d="M338.5,244.5c0,0.6,0,1.5,0.4,1.9c0.3,0.3,0.6,0.4,1,0.4c0.4,0,0.7-0.1,1-0.4c0.4-0.4,0.4-1.3,0.4-1.9
		s0-1.3-0.4-1.8c-0.3-0.3-0.6-0.4-1-0.4s-0.7,0.1-1,0.4C338.5,243.1,338.5,243.9,338.5,244.5L338.5,244.5L338.5,244.5z M324.1,244.5
		c0-0.4,0-1.2-0.4-1.6c-0.3-0.3-0.6-0.4-0.9-0.4s-0.6,0.1-0.7,0.3c-0.3,0.4-0.3,1.3-0.3,1.8c0,0.4,0,1.3,0.4,1.6
		c0.1,0.3,0.4,0.4,0.7,0.4s0.6-0.1,0.9-0.4C324.1,245.8,324.1,244.9,324.1,244.5L324.1,244.5z M308,242.6c0-0.1-0.1-0.4-0.3-0.6
		c-0.3-0.3-0.6-0.3-1-0.3c-0.4,0-0.9,0.1-1.2,0.6c0,0.1-0.1,0.1-0.1,0.3H308L308,242.6L308,242.6z M291.5,242.6
		c0-0.1-0.1-0.4-0.3-0.6c-0.3-0.3-0.6-0.3-1-0.3c-0.4,0-0.9,0.1-1.2,0.6c0,0.1-0.1,0.1-0.1,0.3H291.5L291.5,242.6L291.5,242.6z
		 M209.8,242.6c0-0.1-0.1-0.4-0.3-0.6c-0.3-0.3-0.6-0.3-1-0.3s-0.9,0.1-1.2,0.6c0,0.1-0.1,0.1-0.1,0.3H209.8L209.8,242.6
		L209.8,242.6z M184.3,242.6c0-0.1-0.1-0.4-0.3-0.6c-0.3-0.3-0.6-0.3-1-0.3s-0.9,0.1-1.2,0.6c0,0.1-0.1,0.1-0.1,0.3H184.3
		L184.3,242.6L184.3,242.6z M355.3,238.3c0.1-0.1,0.4-0.3,0.7-0.4c0.9-0.4,1.8-0.6,2.6-0.6c0.9,0,1.9,0.1,2.8,0.6
		c0.4,0.3,0.7,0.6,1,0.9c0.4-0.4,1-0.7,1.5-1c0.7-0.4,1.8-0.4,2.6-0.4c1.3,0,2.6,0.4,3.7,1.5c1,1.2,1.3,2.6,1.3,4.1v8.3h-6.3v-7.6
		c0-0.1,0-0.6-0.1-0.7l0,0c-0.1-0.1-0.3-0.3-0.4-0.3c-0.3,0-0.4,0.1-0.7,0.3c-0.3,0.3-0.3,1-0.3,1.3v7h-6.3v-7.5c0-0.1,0-0.6,0-0.9
		c0-0.1-0.1-0.3-0.3-0.3c-0.1-0.1-0.1-0.1-0.3-0.1c-0.3,0-0.4,0.1-0.7,0.3c-0.3,0.3-0.3,1-0.3,1.5v6.9h-6.3v-13.6h6v0.9H355.3z
		 M332.2,244.5c0-2,0.7-3.8,2-5.1c1.5-1.5,3.5-2,5.6-2c2.3,0,4.5,0.6,6.1,2.3c1.2,1.3,1.8,2.9,1.8,4.7c0,2-0.6,3.8-2,5.1
		c-1.6,1.5-3.5,2-5.7,2c-1.9,0-3.8-0.4-5.3-1.6C333.1,248.6,332.2,246.7,332.2,244.5L332.2,244.5z M324.6,250.6
		c-0.1,0.1-0.3,0.1-0.4,0.3c-0.9,0.4-1.8,0.6-2.6,0.6c-1.9,0-3.4-0.7-4.4-2.2s-1.5-3.2-1.5-5c0-1.9,0.4-3.7,1.6-5.1
		c1.2-1.3,2.6-1.9,4.2-1.9c0.7,0,1.6,0.1,2.3,0.4c0.1,0,0.3,0.1,0.4,0.1V233h6.3v18.2h-6V250.6L324.6,250.6L324.6,250.6z
		 M305.5,246.4c0,0.1,0.1,0.1,0.1,0.3c0.3,0.3,0.7,0.4,1.2,0.4c0.3,0,0.6,0,0.9-0.3c0.1-0.1,0.4-0.3,0.6-0.6l0,0h-2.8V246.4z
		 M312.3,246.4l2.6,0.3l-0.6,1.2c-0.7,1.2-1.6,2.2-2.8,2.9c-1.3,0.7-3.1,0.9-4.7,0.9c-1.3,0-2.9-0.1-4.1-0.7s-2-1.5-2.6-2.5
		c-0.7-1.2-1-2.5-1-4c0-2,0.6-3.8,2-5.1c1.5-1.5,3.5-1.9,5.6-1.9c1.5,0,3.1,0.1,4.5,0.9c1.2,0.6,2,1.5,2.6,2.6
		c0.7,1.3,0.9,2.8,0.9,4.2v1.3L312.3,246.4L312.3,246.4L312.3,246.4z M288.9,246.4c0,0.1,0.1,0.1,0.1,0.3c0.3,0.3,0.7,0.4,1.2,0.4
		c0.3,0,0.6,0,0.9-0.3c0.1-0.1,0.4-0.3,0.6-0.6l0,0h-2.8V246.4z M295.6,246.4l2.6,0.3l-0.6,1.2c-0.7,1.2-1.6,2.2-2.8,2.9
		c-1.3,0.7-3.1,0.9-4.7,0.9c-1.3,0-2.9-0.1-4.1-0.7c-1.2-0.6-2-1.5-2.6-2.5c-0.7-1.2-1-2.5-1-4c0-2,0.6-3.8,2-5.1
		c1.5-1.5,3.5-1.9,5.6-1.9c1.5,0,3.1,0.1,4.5,0.9c1.2,0.6,2,1.5,2.6,2.6c0.7,1.3,0.9,2.8,0.9,4.2v1.3L295.6,246.4L295.6,246.4z
		 M277.1,238c0.6-0.4,1.3-0.6,2-0.6c0.9,0,1.8,0.3,2.6,0.7l0.7,0.3l-2,4.7l-0.7-0.3c-0.3-0.1-0.7-0.3-1-0.3s-0.6,0.1-0.7,0.4
		c-0.6,0.7-0.6,2.6-0.6,3.5v4.8h-6.3v-13.6h6L277.1,238L277.1,238z M262.4,238.3v1.3h6.4v5h-6.4v6.7h-6.7v-18.2H270v5.3h-7.6V238.3z
		 M240.4,241.8l-0.1-0.1c-0.3-0.1-0.6-0.1-0.9-0.1c-0.1,0-0.4,0-0.6,0.1C239.2,241.7,240.1,241.8,240.4,241.8z M241,247.1L241,247.1
		c-0.4-0.1-1.5-0.4-1.8-0.4c-0.1,0-0.3,0-0.6-0.1c0.1,0.3,0.3,0.4,0.4,0.6c0.3,0.1,0.6,0.1,0.9,0.1
		C240.4,247.4,240.7,247.4,241,247.1L241,247.1L241,247.1L241,247.1z M236.3,246.1c-0.1,0-0.4-0.1-0.6-0.1c-0.7-0.3-1.5-0.9-1.9-1.5
		c-0.6-0.7-0.7-1.6-0.7-2.5c0-0.9,0.3-1.8,0.9-2.5c0.6-0.7,1.3-1.2,2.3-1.6c1-0.4,2.3-0.4,3.5-0.4c1,0,2.3,0,3.4,0.3
		c0.7,0.3,1.5,0.6,2,1.2c0.6,0.6,1,1.3,1.3,2.2l0.4,1l-3.2,0.3c0.1,0,0.3,0.1,0.4,0.1c0.9,0.3,1.6,0.9,2,1.6
		c0.4,0.7,0.7,1.5,0.7,2.3c0,0.9-0.3,1.8-0.7,2.5c-0.6,0.9-1.5,1.5-2.3,1.9c-1.2,0.6-2.6,0.6-4.1,0.6c-1.6,0-3.8-0.1-5.1-1
		c-1.2-0.7-1.9-1.9-2.2-3.2l-0.1-0.9L236.3,246.1L236.3,246.1z M225.2,241.8l-0.1-0.1c-0.3-0.1-0.6-0.1-0.9-0.1
		c-0.1,0-0.4,0-0.6,0.1C223.9,241.7,224.7,241.8,225.2,241.8z M225.8,247.1C225.8,247.1,225.6,247.1,225.8,247.1
		c-0.4-0.1-1.5-0.4-1.8-0.4c-0.1,0-0.3,0-0.6-0.1c0.1,0.3,0.3,0.4,0.4,0.6c0.3,0.1,0.6,0.1,0.9,0.1
		C225,247.4,225.5,247.4,225.8,247.1L225.8,247.1L225.8,247.1L225.8,247.1z M220.9,246.1c-0.1,0-0.4-0.1-0.6-0.1
		c-0.7-0.3-1.5-0.9-1.9-1.5c-0.6-0.7-0.9-1.6-0.9-2.5c0-0.9,0.3-1.8,0.9-2.5s1.3-1.2,2.3-1.6s2.3-0.4,3.5-0.4c1,0,2.3,0,3.4,0.3
		c0.7,0.3,1.5,0.6,2,1.2c0.6,0.6,1,1.3,1.3,2.2l0.4,1l-3.2,0.3c0.1,0,0.3,0.1,0.4,0.1c0.9,0.3,1.6,0.9,2,1.6
		c0.4,0.7,0.7,1.5,0.7,2.3c0,0.9-0.3,1.8-0.7,2.5c-0.6,0.9-1.5,1.5-2.3,1.9c-1.2,0.6-2.8,0.6-4.1,0.6c-1.6,0-3.8-0.1-5.1-1
		c-1.2-0.7-1.9-1.9-2.2-3.2l-0.1-0.9L220.9,246.1L220.9,246.1z M207.3,246.4c0,0.1,0.1,0.1,0.1,0.3c0.3,0.3,0.7,0.4,1.2,0.4
		c0.3,0,0.6,0,0.9-0.3c0.1-0.1,0.4-0.3,0.6-0.6l0,0h-2.8V246.4z M214,246.4l2.6,0.3l-0.6,1.2c-0.7,1.2-1.6,2.2-2.8,2.9
		c-1.3,0.7-3.1,0.9-4.7,0.9c-1.3,0-2.9-0.1-4.1-0.7s-2-1.5-2.6-2.5c-0.7-1.2-1-2.5-1-4c0-2,0.6-3.8,2-5.1c1.5-1.5,3.5-1.9,5.6-1.9
		c1.5,0,3.1,0.1,4.5,0.9c1.2,0.6,2,1.5,2.6,2.6c0.7,1.3,0.9,2.8,0.9,4.2v1.3L214,246.4L214,246.4z M192.7,233h6.3v18.2h-6.3V233z
		 M181.8,246.4c0,0.1,0.1,0.1,0.1,0.3c0.3,0.3,0.7,0.4,1.2,0.4c0.3,0,0.6,0,0.9-0.3c0.1-0.1,0.4-0.3,0.6-0.6l0,0h-2.8V246.4z
		 M188.6,246.4l2.6,0.3l-0.6,1.2c-0.7,1.2-1.6,2.2-2.8,2.9c-1.3,0.7-3.1,0.9-4.7,0.9c-1.3,0-2.9-0.1-4.1-0.7s-2-1.5-2.6-2.5
		c-0.7-1.2-1-2.5-1-4c0-2,0.6-3.8,2-5.1c1.5-1.5,3.5-1.9,5.6-1.9c1.5,0,3.1,0.1,4.5,0.9c1.2,0.6,2,1.5,2.6,2.6
		c0.7,1.3,0.9,2.8,0.9,4.2v1.3L188.6,246.4L188.6,246.4z M170.1,238c0.6-0.4,1.3-0.6,2-0.6c0.9,0,1.8,0.3,2.6,0.7l0.7,0.3l-2,4.7
		l-0.7-0.3c-0.3-0.1-0.7-0.3-1-0.3c-0.3,0-0.6,0.1-0.7,0.4c-0.6,0.7-0.6,2.6-0.6,3.5v4.8h-6.3v-13.6h6L170.1,238L170.1,238
		L170.1,238z M136.3,239.5l1.8-6.4h6.1l1.8,6.4l1.2-6.4h6.6l-4.1,18.2h-6.3L141,243l-2.3,8.2h-6.3l-4.1-18.2h6.6L136.3,239.5
		L136.3,239.5z M161.6,237.6v13.6h-6.3V233h6.3V237.6z"/>
	<path d="M350.2,238.5h4.4v1.8c0.6-0.7,1.3-1.3,1.9-1.6c0.6-0.3,1.5-0.4,2.3-0.4c1,0,1.8,0.1,2.3,0.4s1,0.9,1.3,1.5
		c0.7-0.7,1.3-1.3,2-1.6c0.6-0.3,1.3-0.4,2.2-0.4c1.3,0,2.3,0.4,3.1,1.2s1,1.9,1,3.7v7.6h-4.7v-6.9c0-0.6-0.1-1-0.3-1.2
		c-0.3-0.4-0.7-0.6-1.2-0.6c-0.6,0-1,0.1-1.3,0.6c-0.3,0.4-0.4,1-0.4,1.9v6.1h-4.7v-6.6c0-0.6,0-0.9-0.1-1c-0.1-0.3-0.3-0.6-0.4-0.7
		c-0.3-0.1-0.6-0.3-0.9-0.3c-0.6,0-1,0.1-1.3,0.6c-0.3,0.4-0.4,1-0.4,1.9v6.1h-4.7L350.2,238.5L350.2,238.5L350.2,238.5z
		 M337.6,244.5c0,1,0.1,1.9,0.6,2.3c0.4,0.4,1,0.7,1.6,0.7c0.6,0,1.2-0.3,1.6-0.7c0.4-0.4,0.6-1.3,0.6-2.5c0-1-0.1-1.8-0.6-2.3
		c-0.4-0.4-1-0.7-1.6-0.7c-0.7,0-1.2,0.3-1.6,0.7C337.9,242.7,337.6,243.4,337.6,244.5L337.6,244.5z M333.1,244.5
		c0-1.9,0.6-3.4,1.9-4.5c1.2-1.2,2.9-1.8,5-1.8c2.3,0,4.2,0.7,5.4,2c1,1.2,1.5,2.5,1.5,4.1c0,1.9-0.6,3.4-1.9,4.5
		c-1.2,1.2-2.9,1.8-5.1,1.8c-1.9,0-3.5-0.4-4.7-1.5C333.8,248.1,333.1,246.5,333.1,244.5L333.1,244.5z M325,244.5
		c0-0.9-0.1-1.6-0.6-2c-0.4-0.4-0.9-0.7-1.5-0.7c-0.6,0-1,0.1-1.3,0.7c-0.3,0.4-0.6,1.2-0.6,2.2s0.1,1.8,0.6,2.2
		c0.4,0.4,0.9,0.7,1.5,0.7c0.6,0,1-0.3,1.5-0.7C324.9,246.2,325,245.5,325,244.5L325,244.5z M329.7,233.9v16.5h-4.4v-1.8
		c-0.6,0.7-1.2,1.3-1.6,1.6c-0.7,0.3-1.5,0.6-2.2,0.6c-1.6,0-2.9-0.6-3.8-1.9c-0.9-1.3-1.3-2.8-1.3-4.5c0-2,0.4-3.5,1.5-4.5
		c1-1,2.2-1.6,3.7-1.6c0.7,0,1.3,0.1,1.9,0.3c0.6,0.3,1.2,0.6,1.6,1v-5.7L329.7,233.9L329.7,233.9z M309.1,243.4
		c-0.1-0.9-0.3-1.6-0.7-1.9c-0.4-0.4-0.9-0.6-1.6-0.6s-1.3,0.3-1.8,0.9c-0.3,0.3-0.4,0.9-0.6,1.6L309.1,243.4L309.1,243.4z
		 M313.7,245.6h-9.2c0.1,0.7,0.3,1.3,0.6,1.6c0.4,0.6,1,0.7,1.8,0.7c0.4,0,0.9-0.1,1.3-0.3c0.3-0.1,0.6-0.4,0.9-0.7l4.5,0.4
		c-0.7,1.2-1.6,2-2.5,2.6c-1,0.6-2.3,0.7-4.2,0.7c-1.6,0-2.9-0.1-3.8-0.7c-0.9-0.4-1.6-1.2-2.3-2.2c-0.6-1-0.9-2.2-0.9-3.5
		c0-1.9,0.6-3.4,1.8-4.5c1.2-1.2,2.9-1.8,5-1.8c1.8,0,3.1,0.3,4.1,0.7c1,0.6,1.8,1.3,2.3,2.2c0.6,1,0.7,2.3,0.7,3.8V245.6
		L313.7,245.6L313.7,245.6z M292.4,243.4c-0.1-0.9-0.3-1.6-0.7-1.9c-0.4-0.4-0.9-0.6-1.6-0.6s-1.3,0.3-1.8,0.9
		c-0.3,0.3-0.4,0.9-0.6,1.6L292.4,243.4L292.4,243.4z M297.2,245.6h-9.4c0.1,0.7,0.3,1.3,0.6,1.6c0.4,0.6,1,0.7,1.8,0.7
		c0.4,0,0.9-0.1,1.3-0.3c0.3-0.1,0.6-0.4,0.9-0.7l4.5,0.4c-0.7,1.2-1.6,2-2.5,2.6c-1,0.6-2.3,0.7-4.2,0.7c-1.6,0-2.9-0.1-3.8-0.7
		c-0.9-0.4-1.6-1.2-2.3-2.2c-0.6-1-0.9-2.2-0.9-3.5c0-1.9,0.6-3.4,1.8-4.5s2.9-1.8,5-1.8c1.8,0,3.1,0.3,4.1,0.7
		c1,0.6,1.8,1.3,2.3,2.2c0.6,1,0.7,2.3,0.7,3.8v0.9H297.2z M272,238.5h4.4v1.9c0.4-0.9,0.9-1.5,1.3-1.8s1-0.4,1.6-0.4
		c0.7,0,1.5,0.1,2.2,0.6l-1.5,3.2c-0.6-0.3-1-0.3-1.3-0.3c-0.6,0-1,0.3-1.5,0.7c-0.4,0.7-0.7,2-0.7,4v4.1h-4.7v-12H272z
		 M256.4,233.9h12.7v3.5h-7.6v2.9h6.4v3.4h-6.4v6.7h-5.1V233.9z M233.2,247.1l4.5-0.4c0.1,0.6,0.4,0.9,0.7,1.2s0.7,0.3,1.3,0.3
		c0.6,0,1.2-0.1,1.5-0.4c0.3-0.1,0.4-0.4,0.4-0.7s-0.1-0.6-0.6-0.7c-0.3-0.1-0.9-0.3-2-0.4c-1.6-0.3-2.8-0.6-3.4-0.7
		c-0.6-0.3-1.2-0.6-1.6-1.2c-0.4-0.6-0.6-1.2-0.6-1.9s0.3-1.5,0.7-2s1.2-1,1.9-1.3c0.9-0.3,1.9-0.4,3.2-0.4c1.5,0,2.5,0.1,3.2,0.3
		s1.3,0.6,1.8,1s0.9,1,1.2,1.9l-4.4,0.4c-0.1-0.4-0.3-0.7-0.6-0.9c-0.3-0.3-0.7-0.3-1.3-0.3c-0.6,0-0.9,0.1-1.2,0.3
		c-0.3,0.1-0.3,0.4-0.3,0.7c0,0.3,0.1,0.6,0.4,0.7c0.3,0.1,1,0.3,1.9,0.4c1.6,0.1,2.6,0.4,3.4,0.7s1.3,0.7,1.8,1.3s0.6,1.2,0.6,1.9
		s-0.1,1.3-0.6,2c-0.4,0.6-1,1.2-2,1.6c-0.9,0.4-2.2,0.6-3.7,0.6c-2.2,0-3.8-0.3-4.7-0.9C234.1,249.1,233.5,248.3,233.2,247.1
		L233.2,247.1z M218,247.1l4.5-0.4c0.1,0.6,0.4,0.9,0.7,1.2s0.7,0.3,1.3,0.3c0.6,0,1.2-0.1,1.5-0.4c0.3-0.1,0.4-0.4,0.4-0.7
		s-0.1-0.6-0.6-0.7c-0.3-0.1-0.9-0.3-2-0.4c-1.6-0.3-2.8-0.6-3.4-0.7c-0.6-0.3-1.2-0.6-1.6-1.2s-0.6-1.2-0.6-1.9s0.3-1.5,0.7-2
		s1.2-1,1.9-1.3c0.9-0.3,1.9-0.4,3.2-0.4c1.5,0,2.5,0.1,3.2,0.3c0.7,0.1,1.3,0.6,1.8,1s0.9,1,1.2,1.9l-4.4,0.4
		c-0.1-0.4-0.3-0.7-0.6-0.9c-0.3-0.3-0.7-0.3-1.3-0.3c-0.6,0-0.9,0.1-1.2,0.3c-0.3,0.1-0.3,0.4-0.3,0.7c0,0.3,0.1,0.6,0.4,0.7
		c0.3,0.1,1,0.3,1.9,0.4c1.6,0.1,2.6,0.4,3.4,0.7s1.3,0.7,1.8,1.3s0.6,1.2,0.6,1.9s-0.1,1.3-0.6,2c-0.4,0.6-1,1.2-2,1.6
		c-0.9,0.4-2.2,0.6-3.7,0.6c-2.2,0-3.8-0.3-4.7-0.9C218.9,249.1,218.3,248.3,218,247.1L218,247.1z M210.8,243.4
		c-0.1-0.9-0.3-1.6-0.7-1.9c-0.4-0.4-0.9-0.6-1.6-0.6s-1.3,0.3-1.8,0.9c-0.3,0.3-0.4,0.9-0.6,1.6L210.8,243.4L210.8,243.4z
		 M215.5,245.6h-9.2c0.1,0.7,0.3,1.3,0.6,1.6c0.4,0.6,1,0.7,1.8,0.7c0.4,0,0.9-0.1,1.3-0.3c0.3-0.1,0.6-0.4,0.9-0.7l4.5,0.4
		c-0.7,1.2-1.6,2-2.5,2.6c-1,0.6-2.3,0.7-4.2,0.7c-1.6,0-2.9-0.1-3.8-0.7c-0.9-0.4-1.6-1.2-2.3-2.2c-0.6-1-0.9-2.2-0.9-3.5
		c0-1.9,0.6-3.4,1.8-4.5s2.9-1.8,5-1.8c1.8,0,3.1,0.3,4.1,0.7c1,0.6,1.8,1.3,2.3,2.2c0.6,1,0.7,2.3,0.7,3.8L215.5,245.6L215.5,245.6
		L215.5,245.6z M193.5,233.9h4.7v16.5h-4.7V233.9z M185.3,243.4c-0.1-0.9-0.3-1.6-0.7-1.9c-0.4-0.4-0.9-0.6-1.6-0.6
		c-0.7,0-1.3,0.3-1.8,0.9c-0.3,0.3-0.4,0.9-0.6,1.6L185.3,243.4L185.3,243.4z M190,245.6h-9.2c0.1,0.7,0.3,1.3,0.6,1.6
		c0.4,0.6,1,0.7,1.8,0.7c0.4,0,0.9-0.1,1.3-0.3c0.3-0.1,0.6-0.4,0.9-0.7l4.5,0.4c-0.7,1.2-1.6,2-2.5,2.6c-1,0.6-2.3,0.7-4.2,0.7
		c-1.6,0-2.9-0.1-3.8-0.7c-0.9-0.4-1.6-1.2-2.3-2.2c-0.6-1-0.9-2.2-0.9-3.5c0-1.9,0.6-3.4,1.8-4.5s2.9-1.8,5-1.8
		c1.8,0,3.1,0.3,4.1,0.7c1,0.6,1.8,1.3,2.3,2.2c0.6,1,0.7,2.3,0.7,3.8L190,245.6L190,245.6L190,245.6z M165,238.5h4.4v1.9
		c0.4-0.9,0.9-1.5,1.3-1.8c0.4-0.3,1-0.4,1.6-0.4c0.7,0,1.5,0.1,2.2,0.6L173,242c-0.6-0.3-1-0.3-1.3-0.3c-0.6,0-1,0.3-1.5,0.7
		c-0.4,0.7-0.7,2-0.7,4v4.1h-4.7v-12H165z M156.2,238.5h4.7v12h-4.7V238.5z M156.2,233.9h4.7v3.1h-4.7V233.9z M129.6,233.9h4.8
		l1.8,9.2l2.6-9.2h4.8l2.6,9.2l1.8-9.2h4.8l-3.7,16.5h-5.1l-2.9-10.4l-2.9,10.4h-5L129.6,233.9z"/>
	<path d="M172,201.1c-0.6-0.4-1.3-0.4-1.9-0.4c-0.7,0-1.3,0.1-1.8,0.4H172L172,201.1z M117.6,208.6c0,1.3,0.1,3.4,1,4.4
		c0.6,0.7,1.2,0.9,2,0.9c0.6,0,1-0.3,1.5-0.7c0.7-1,0.9-3.8,0.9-5c0-1.2-0.1-3.5-1-4.5c-0.4-0.6-0.9-0.9-1.5-0.9
		c-0.9,0-1.3,0.3-1.9,0.9C117.7,204.6,117.6,207.3,117.6,208.6z M54.7,201.1c0,2.6,0.3,7,2.2,9.2c1.5,1.6,3.2,2.2,5.4,2.2
		c2,0,4.1-0.4,5.4-2.2c1.9-2.2,2-7.5,2-10.1c0-2.6-0.3-6.6-2.2-8.6c-1.5-1.6-3.4-2.2-5.6-2.2s-3.8,0.6-5.3,2.2
		C55,193.9,54.7,198.3,54.7,201.1z M30.3,201c0-8.6,2.2-17,8.5-23.3c6.3-6.3,14.6-8.5,23.4-8.5c8.6,0,17.3,2,23.6,8.3
		c6.3,6.1,8.5,14.3,8.5,23c0,5.9-0.9,12-3.7,17.3c-2.5,4.7-6.1,8.3-10.8,11c-5.1,2.9-11.1,3.8-17,3.8c-5.7,0-11.7-0.7-16.8-3.2
		c-4.8-2.3-8.6-6-11.4-10.7C31.5,213.4,30.3,207.1,30.3,201z M168.7,215.9c0.4,0.1,1,0.3,1.5,0.3c0.6,0,1-0.1,1.6-0.3H168.7z
		 M195.9,202.3V185h21.7v1.6c0.3-0.1,0.4-0.3,0.7-0.4c2.9-1.6,6.3-2.2,9.7-2.2c4.8,0,9.2,1.5,12.6,4.8c3.7,3.8,4.5,9.1,4.5,14.1
		v28.7h-22.8v-25.3c0-0.6,0-2.2-0.4-2.6c-0.1-0.3-0.7-0.3-0.9-0.3c-0.6,0-1,0.1-1.5,0.6c-0.7,0.9-0.9,4-0.9,5v22.5h-22.8v-13
		l-0.6,0.9c-2.3,4.1-5.6,7.6-9.8,10c-4.5,2.5-10.5,3.1-15.7,3.1c-4.7,0-9.8-0.6-14.1-2.6c-3.8-1.9-6.7-4.8-9.1-8.3
		c-0.9-1.5-1.6-2.9-2-4.4c-0.9,3.4-2.3,6.4-4.7,9.1c-4,4.2-8.9,6.4-14.8,6.4c-2.6,0-5.1-0.4-7.6-1.3v15.4h-23v-61.6h22.1v1.2
		c2.8-1.3,5.7-2,8.8-2c6.3,0,11.6,2.5,15.4,7.6c1.9,2.6,3.1,5.4,4,8.3c1.2-3.4,3.1-6.4,5.9-9.2c5.1-5,12-6.7,19-6.7
		c5,0,10.5,0.6,15.1,2.9c4,2,7,5.1,9.1,8.9C194.7,198,195.3,200.1,195.9,202.3L195.9,202.3z M357.2,185.7V185h5.6v-5.7l22.8-11.6
		V185h8.2v18.6h-8.2v10c0,0.1,0,0.4,0,0.6c0.9-0.1,2-0.4,2.8-0.7l4.5-1.5l2,18.4l-3.4,0.7c-3.7,0.9-7.5,1.3-11.3,1.3
		c-3.2,0-7.2-0.3-10.1-1.9c-2.6-1.3-4.5-3.5-5.7-6.1c-1.5-3.2-1.6-7.6-1.6-11v-10h-5.6v-4.1l-2.6,6l-3.5-1.5c-0.6-0.3-2-0.9-2.8-0.9
		s-1,0.1-1.5,0.7c-1.5,2.2-1.8,8.1-1.8,10.7v17h-22.8v-43.5l-9.7,43.5h-22.5l-6.6-23.6l-6.6,23.6h-22.4l-13.8-61.6h23.9l3.2,17.1
		l4.7-17.1h21.7l4.8,17.1l3.2-17.1h23.9l-3.2,14.8h21.1v0.3c1.8-0.9,3.7-1.2,5.7-1.2C352.5,184.1,355,184.7,357.2,185.7L357.2,185.7
		z"/>
	<path class="st5" d="M381.8,174v14.8h8.2v11h-8.2v13.9c0,1.6,0.1,2.8,0.4,3.4c0.4,0.9,1.3,1.3,2.6,1.3c1.2,0,2.6-0.3,4.7-1
		l1.2,10.4c-3.7,0.9-7.2,1.2-10.4,1.2c-3.8,0-6.6-0.4-8.3-1.5c-1.8-1-3.1-2.3-4-4.4c-0.9-1.9-1.3-5.1-1.3-9.5v-13.8h-5.6v-11h5.6
		v-7.2L381.8,174L381.8,174L381.8,174z M326.3,188.8h14.2v6.4c1.3-2.8,2.8-4.7,4.2-5.7c1.5-1,3.2-1.6,5.4-1.6s4.7,0.7,7.3,2
		l-4.7,10.7c-1.8-0.7-3.2-1.2-4.2-1.2c-1.9,0-3.5,0.9-4.5,2.5c-1.6,2.3-2.3,6.6-2.3,12.9v13.2h-15.2L326.3,188.8L326.3,188.8
		L326.3,188.8z M245.7,174h16l5.7,30.2l8.3-30.2h15.8l8.5,30.2l5.7-30.2h15.8l-12,54h-16.4l-9.5-34l-9.5,34h-16.4L245.7,174
		L245.7,174z M199.7,188.8h14.1v6.4c2-2.6,4.2-4.5,6.3-5.6c2.2-1.2,4.7-1.8,7.9-1.8c4.2,0,7.5,1.2,9.8,3.7c2.3,2.5,3.5,6.3,3.5,11.4
		v24.9H226v-21.5c0-2.5-0.4-4.2-1.3-5.3s-2.2-1.5-3.8-1.5c-1.8,0-3.2,0.7-4.4,2c-1.2,1.3-1.8,3.8-1.8,7.5v18.7h-15.1V188.8
		L199.7,188.8L199.7,188.8z M177.4,204.9c-0.3-2.9-1-5-2.3-6.3c-1.3-1.3-2.9-1.9-5-1.9c-2.3,0-4.4,1-5.7,2.8
		c-0.9,1.2-1.5,2.9-1.8,5.3h14.8V204.9z M192.8,212.1h-30.3c0.3,2.3,0.9,4.2,2,5.4c1.5,1.8,3.4,2.5,5.7,2.5c1.5,0,2.9-0.3,4.2-1
		c0.9-0.4,1.8-1.3,2.6-2.5l14.9,1.3c-2.3,4-5,6.7-8.2,8.5c-3.2,1.8-7.8,2.5-13.8,2.5c-5.3,0-9.4-0.7-12.3-2.2
		c-2.9-1.5-5.4-3.8-7.5-7c-1.9-3.2-2.9-6.9-2.9-11.3c0-6.1,1.9-11.1,5.9-14.8c4-3.8,9.4-5.7,16.3-5.7c5.7,0,10.1,0.9,13.3,2.5
		c3.2,1.8,5.7,4.1,7.5,7.3c1.8,3.2,2.5,7.5,2.5,12.6V212.1L192.8,212.1L192.8,212.1z M113.7,208.6c0,3.1,0.6,5.4,1.9,6.9
		c1.3,1.5,2.9,2.2,5,2.2c1.8,0,3.2-0.7,4.4-2.2c1.2-1.5,1.8-4,1.8-7.3c0-3.2-0.6-5.6-1.9-7c-1.2-1.5-2.8-2.2-4.5-2.2
		c-1.9,0-3.5,0.7-4.8,2.2C114.3,202.7,113.7,205.1,113.7,208.6L113.7,208.6z M98.5,242.9v-54h14.2v5.7c1.9-2.5,3.8-4.1,5.4-5
		c2.2-1.2,4.7-1.8,7.3-1.8c5.3,0,9.4,2,12.2,6c2.9,4,4.2,8.9,4.2,14.9c0,6.6-1.6,11.4-4.7,14.9c-3.1,3.4-7,5.1-11.9,5.1
		c-2.3,0-4.4-0.4-6.3-1.2c-1.9-0.7-3.7-1.9-5.1-3.5v18.7H98.5L98.5,242.9z M50.9,201.1c0,5.4,1,9.4,3.1,11.7c2,2.3,4.8,3.5,8.3,3.5
		c3.7,0,6.4-1.2,8.3-3.5c2-2.3,2.9-6.4,2.9-12.6c0-5.1-1-8.8-3.1-11.1s-4.8-3.5-8.3-3.5c-3.4,0-6.1,1.2-8.2,3.5
		C52,191.6,50.9,195.6,50.9,201.1L50.9,201.1z M34.1,201c0-8.8,2.5-15.7,7.5-20.5c5-5,11.9-7.3,20.6-7.3c9.1,0,16,2.3,20.9,7.2
		c4.8,4.8,7.3,11.6,7.3,20.2c0,6.3-1,11.4-3.2,15.5c-2.2,4.1-5.3,7.2-9.2,9.4c-4.1,2.2-9.1,3.4-15.1,3.4c-6.1,0-11.1-1-15.2-2.9
		c-4-1.9-7.3-5-9.8-9.2C35.4,212.5,34.1,207.3,34.1,201z"/>
</g>
<g>
	<path d="M140.2,118.8c0,14.2-10.1,25.2-23.9,25.2c-7.6,0-14.6-3.2-18.4-8.8v7.8h-7.2V68.4h7.6v33.2c3.8-5.1,10.4-8.2,17.7-8.2
		C130.1,93.5,140.2,104.4,140.2,118.8z M132.5,118.6c0-10.5-7.3-18.2-17.1-18.2c-8.5,0-16.8,5.6-16.8,18.3
		c0,12.7,8.5,18.2,16.8,18.2C125.2,136.9,132.5,129.2,132.5,118.6z"/>
	<path d="M217,112.5v30.5h-7.6v-29.4c0-7.6-4.2-13-11.4-13c-7.3,0-12.4,5.6-12.4,12.3v30.2h-7.6v-29.4c0-7.6-4.4-13-11.6-13
		c-7.3,0-12.3,5.4-12.3,13v29.4h-7.6V94.5h7.2v5.1c3.4-3.8,8.3-6.1,14.3-6.1c7.3,0,12.2,3.2,14.9,8.3c3.4-4.8,9.1-8.3,16.5-8.3
		C210.8,93.5,217,101.2,217,112.5z"/>
	<path d="M259.9,142.9l-13.8-19.6l-13.8,19.6h-8.9l18.3-25.2l-16.8-23.3h8.8L246,112l29.3-39.4h8.8l-33.8,44.9l18.4,25.2h-8.8V142.9
		z"/>
	<path class="st6" d="M334.2,115.4c0,17.3-13.8,30.6-30.9,30.6c-17.1,0-30.9-13-30.9-30.7c0-11.3,5.7-18.9,12.6-28.8l22.5-32.8h12.7
		l-23.1,33.2c2.2-0.9,4.8-1.2,7.6-1.2C320.8,85.7,334.2,98.4,334.2,115.4z M323.6,115.4c0-11.6-8.8-20.6-20.4-20.6
		c-11.6,0-20.4,9.1-20.4,20.6c0,11.9,8.8,20.8,20.4,20.8C314.8,136.2,323.6,127.1,323.6,115.4z"/>
	<path class="st7" d="M219.6,42.1c-10,5-25.6,18-25.6,18l-3.1-7.6l-2.8,7.3H184h-4.1l-2.8-7.3l-3.1,7.6c0,0-15.7-13-25.6-18
		c-10-5-19.2-3.4-28.7,6.9c0,0,8.5,0.3,12.7,2.8c4.2,2.6,3.1,9.5,3.1,9.5s4.5-2.3,8.8-1.2c4.2,1.2,6,11.1,6,11.1s4.5-4.7,10.2-2.2
		c5.7,2.6,6.4,9.1,6.4,9.1s0.4-3.4,6.6-3.1c6.1,0.3,10.4,11.4,10.4,11.4s4.2-11.1,10.4-11.4c6.1-0.3,6.6,3.1,6.6,3.1
		s0.7-6.4,6.4-9.1c5.7-2.6,10.2,2.2,10.2,2.2s1.6-10,6-11.1c4.2-1.2,8.8,1.2,8.8,1.2s-1.2-6.9,3.1-9.5c4.2-2.6,12.7-2.8,12.7-2.8
		C238.8,38.7,229.6,37.1,219.6,42.1z"/>
</g>
</svg>
