<?xml version="1.0" encoding="utf-8"?>
<!-- Generator: Adobe Illustrator 20.1.0, SVG Export Plug-In . SVG Version: 6.00 Build 0)  -->
<svg version="1.1" id="Capa_1" xmlns="http://www.w3.org/2000/svg" xmlns:xlink="http://www.w3.org/1999/xlink" x="0px" y="0px"
	 viewBox="0 0 99.1 49.5" style="enable-background:new 0 0 99.1 49.5;" xml:space="preserve">
<style type="text/css">
	.st0{fill:#FE7F01;}
	.st1{fill:#819CC9;}
	.st2{fill:#4774B3;}
	.st3{fill:#FEFEFE;}
</style>
<g>
	<path class="st0" d="M33.9,23.9c0-3.9,0-7.8,0-11.7c0-0.5,0-1,0.2-1.5c0.3-1.5,1.5-2.3,3.1-2c0.8,0.2,1.5,0.4,2.3,0.6
		c0.9,0.3,1.7,0.2,2.6-0.1c0.5-0.2,1-0.5,1.6-0.7c2-0.9,3.9-0.7,5.7,0.7c0.5,0.4,1.1,0.8,1.7,1.2c0.7,0.5,1.5,0.5,2.3,0
		c0.6-0.4,1.2-0.8,1.8-1.2c1.6-1.1,3.3-1.5,5.2-1.1c2.2,0.4,3.5,1.8,4.2,3.9c0.6,1.7,0.7,3.4,0.7,5.1c0,6.3,0,12.6,0,18.9
		c0,0.4,0,0.9-0.1,1.3c-0.2,1.3-1.1,2-2.5,2c-1.2,0-2.1-0.8-2.3-2.1c-0.1-0.4-0.1-0.9-0.1-1.4c0-4.1,0-8.3,0-12.4c0-2-0.1-4-0.6-5.9
		c-0.2-0.8-0.5-1.6-1-2.2c-1.2-1.7-3.3-1.8-4.7-0.2c-0.8,1-1.2,2.1-1.4,3.3C52.1,20,52,21.5,52,23.1c0,4.3,0,8.6,0,12.8
		c0,0.6-0.1,1.3-0.3,1.9c-0.3,1-1.1,1.5-2.2,1.5c-1.2,0-2-0.5-2.3-1.5c-0.2-0.6-0.3-1.3-0.3-1.9c0-4.8,0-9.7,0-14.5
		c0-1.7-0.2-3.4-0.8-5c-0.2-0.4-0.4-0.8-0.6-1.2c-1.2-1.7-3.6-1.8-4.9-0.1c-0.8,1-1.2,2.1-1.3,3.3c-0.2,1.4-0.3,2.9-0.3,4.3
		c0,4.4,0,8.7,0,13.1c0,0.6-0.1,1.2-0.2,1.8c-0.3,1-1,1.6-2.1,1.6c-1.2,0-2-0.4-2.4-1.5C34.1,37,34,36.3,34,35.5
		C33.9,31.7,33.9,27.8,33.9,23.9z"/>
	<path class="st0" d="M32.4,25.7c0,3.6,0,7.1,0,10.7c0,0.2,0,0.5,0,0.7c-0.1,0.8-0.5,1.3-1.2,1.6c-1,0.3-2,0.3-3,0
		c-0.6-0.2-1-0.7-1.1-1.3s-0.1-1.2-0.2-1.8c-0.1-0.7-0.1-1.3-0.2-2c-0.3-1.4-1.1-1.9-2.5-1.6c-1.3,0.3-2.6,0.5-3.9,0.4
		c-3.5-0.2-6-1.8-7.3-5c-1.4-3.5-1.6-7.1-0.1-10.6c1.2-2.8,3.3-4.5,6.3-5c1.5-0.3,2.9-0.2,4.3,0.3c1.7,0.6,3.4,0.6,5.2,0.2
		c0.7-0.2,1.5,0,2.3,0.1c0.8,0.2,1.3,0.8,1.4,1.6c0,0.3,0.1,0.6,0.1,0.9C32.4,18.5,32.4,22.1,32.4,25.7z M27,22.2
		c-0.1-1.9-0.4-3.6-1.5-5.1c-1.1-1.4-3-2.1-4.6-1.6c-1.3,0.4-2.2,1.3-2.8,2.4c-0.9,1.7-1,3.4-0.8,5.3c0.1,1.4,0.5,2.7,1.4,3.8
		c1.7,2.3,5,2.3,6.7,0.1C26.6,25.7,26.9,23.9,27,22.2z"/>
	<path class="st0" d="M66.6,25.4c0-3.6,0-7.2,0-10.7c0-0.2,0-0.5,0-0.7c0.2-1.1,0.9-1.8,2.3-1.8c0.8,0,1.6,0.1,2.3,0.3
		c1.1,0.2,2.2,0.2,3.3-0.2c2-0.7,4.1-0.8,6.1-0.2c2.6,0.7,4.5,2.4,5.4,4.8c1.5,3.9,1.3,7.7-0.5,11.4c-1.2,2.5-3.4,3.7-6.1,4
		c-1.6,0.2-3.2-0.1-4.8-0.4c-1.1-0.2-2,0.3-2.3,1.3c-0.1,0.5-0.2,1-0.2,1.5C72,35.5,72,36.3,71.9,37c-0.1,1.1-0.7,1.6-1.7,1.7
		c-0.6,0.1-1.2,0.1-1.7,0c-1.2-0.2-1.8-0.8-1.9-2.1c0-0.3,0-0.5,0-0.8C66.6,32.4,66.6,28.9,66.6,25.4z M72,21.7c0,2,0.3,3.5,1.2,4.9
		c1.1,1.7,2.8,2.4,4.7,2c1.6-0.3,2.5-1.4,3.1-2.8c0.4-1,0.6-2.1,0.7-3.3c0.1-1.6-0.1-3.2-0.8-4.6c-1.5-3.1-5.4-3.4-7.5-0.7
		C72.3,18.6,72,20.3,72,21.7z"/>
	<path class="st1" d="M20.3,3.9c2.1,0,3.9,0.2,5.7,0.8c0.6,0.2,1.2,0.6,1.7,0.9c0.3,0.2,0.5,0.6,0.5,1c0,0.5-0.4,1-0.9,1
		s-1,0-1.4-0.2c-1.9-0.6-3.8-1-5.7-0.9C16,6.7,12.5,8.1,9.7,11.2c-1.1,1.2-1.9,2.6-2.6,4.2c-0.3,0.7-0.9,1.1-1.6,1.1
		c-0.5,0-0.9-0.3-1-0.8c-0.1-0.5-0.1-0.9,0.1-1.4c2.4-5.5,6.5-8.8,12.3-10c0.4-0.1,0.7-0.1,1.1-0.2C18.9,4,19.7,4,20.3,3.9z"/>
	<path class="st1" d="M78.4,3.9c4.1,0,7.9,1.2,11.1,3.8c2.2,1.8,3.8,4.1,4.8,6.7c0.2,0.4,0.1,0.9,0,1.3s-0.5,0.7-0.9,0.7
		c-0.8,0-1.4-0.4-1.7-1.2C90.3,12,88.1,9.6,85,8c-1.7-0.8-3.4-1.3-5.3-1.4c-2.3-0.2-4.5,0.1-6.7,0.8c-0.4,0.1-0.8,0.2-1.3,0.2
		c-0.9,0-1.3-0.9-0.8-1.6c0.5-0.8,1.3-1.1,2.2-1.3C74.8,4.1,76.6,3.9,78.4,3.9z"/>
	<path class="st1" d="M19.4,40.2C17,40.1,15,39.6,13,38.8c-3.1-1.4-5.5-3.6-7.2-6.5c-0.4-0.6-0.5-1.3-0.4-2c0.1-0.6,0.5-0.8,1-0.7
		c0.8,0.1,1.3,0.6,1.7,1.3c2.1,3.8,5.3,6,9.6,6.6c1.1,0.2,2.3,0.2,3.5,0.2c0.8,0,1.3,0.2,1.4,0.8c0.1,0.5-0.2,1.1-0.9,1.3
		C20.8,40,20,40.1,19.4,40.2z"/>
	<path class="st1" d="M79.9,40.1c-1.1-0.1-2-0.1-2.9-0.6c-0.3-0.2-0.6-0.4-0.7-0.8c-0.1-0.7,0.3-1.1,1.2-1.1c0.7,0,1.4,0,2.1,0
		c3.6-0.2,6.8-1.5,9.3-4.1c0.7-0.8,1.3-1.7,1.9-2.6c0.4-0.6,0.8-1.2,1.6-1.4c0.7-0.2,1.2,0.2,1.2,0.9c0,0.6-0.1,1.3-0.4,1.8
		c-2.4,4.2-6.1,6.7-10.8,7.7C81.5,39.9,80.6,40,79.9,40.1z"/>
	<path class="st2" d="M20.5,8.7c1.9,0,3.6,0.5,5.4,1.1c0.5,0.2,0.8,0.5,0.7,0.9c-0.1,0.4-0.6,0.8-1.1,0.7s-0.9-0.2-1.4-0.4
		c-3.2-0.9-6.3-0.8-9.2,1c-1.9,1.1-3.1,2.8-4,4.8c-0.1,0.3-0.3,0.6-0.5,0.9C10,18.1,9.5,18,9.3,17.5C9,17.1,9,16.7,9.2,16.3
		c1.7-4.2,4.8-6.8,9.3-7.5C19.1,8.7,19.8,8.7,20.5,8.7z"/>
	<path class="st2" d="M77.8,8.7c4.2,0,7.3,1.2,9.7,3.9c1,1.1,1.7,2.4,2.2,3.8c0.1,0.3,0.1,0.7,0,1c-0.2,0.6-0.8,0.7-1.2,0.2
		c-0.2-0.2-0.4-0.5-0.5-0.8c-1.4-3.4-3.8-5.5-7.5-6.2c-2.1-0.4-4.1-0.2-6.1,0.5c-0.3,0.1-0.6,0.2-1,0.3s-0.7-0.1-1-0.4
		c-0.3-0.3-0.2-0.8,0.1-1.1c0.1-0.1,0.3-0.2,0.4-0.2C74.7,9.1,76.5,8.6,77.8,8.7z"/>
	<path class="st2" d="M78.4,35.5c-1-0.1-2.1-0.3-3.3-0.5c-0.3,0-0.6-0.2-0.9-0.3c-0.5-0.3-0.7-0.7-0.5-1.1c0.1-0.4,0.5-0.5,1.1-0.4
		c1,0.2,2,0.4,3.1,0.5c4,0.2,7.2-1.1,9.3-4.7c0.1-0.2,0.3-0.5,0.5-0.6c0.4-0.4,1-0.3,1.2,0.2c0.2,0.4,0.1,0.8-0.1,1.2
		c-1.7,3.1-4.4,4.9-7.9,5.5C80.1,35.4,79.4,35.4,78.4,35.5z"/>
	<path class="st2" d="M20.8,35.5c-3.4,0-6.1-0.8-8.3-2.7c-1-0.9-1.8-1.9-2.4-3C10,29.6,10,29.4,10,29.2c0-0.5,0.2-0.8,0.6-0.9
		c0.4-0.1,0.7,0.1,0.9,0.4c0.4,0.6,0.8,1.2,1.2,1.8c1.6,2,3.8,3,6.4,3.3c1.7,0.2,3.4-0.1,5.1-0.5c0.7-0.1,1,0.1,1.1,0.6
		c0,0.4-0.2,0.7-0.5,0.8c-0.4,0.2-0.7,0.4-1.1,0.4C22.5,35.3,21.4,35.5,20.8,35.5z"/>
	<path class="st2" d="M38.3,43.8c0-0.4,0-0.8,0-1.1c0-0.4,0.2-0.5,0.5-0.5c0.4,0,0.8,0,1.2,0c0.3,0,0.6,0,0.9,0.1
		c0.3,0.1,0.5,0.1,0.8,0s0.7-0.2,1.1-0.1c0.4,0,0.7,0.3,0.7,0.8c0,0.7,0,1.5,0,2.2c0,0.3-0.2,0.4-0.4,0.4s-0.4-0.1-0.4-0.4
		c0-0.4,0-0.8,0-1.2c0-0.2,0-0.5-0.1-0.7c-0.1-0.3-0.3-0.5-0.6-0.5s-0.5,0.1-0.6,0.4c-0.1,0.4-0.1,0.8-0.1,1.2c0,0.2,0,0.4,0,0.6
		c0,0.3-0.1,0.4-0.4,0.5c-0.3,0-0.4-0.2-0.4-0.4c0-0.5,0-1,0-1.5s-0.2-0.8-0.6-0.8c-0.4,0-0.6,0.2-0.7,0.7c0,0.5,0,0.9,0,1.4
		c0,0.3,0,0.6-0.4,0.6s-0.5-0.2-0.4-0.6C38.3,44.5,38.3,44.1,38.3,43.8z"/>
	<path class="st2" d="M22.7,44.3c0,0.6,0,1.2,0,1.8c0,0.3-0.1,0.5-0.5,0.5c-0.3,0-0.5-0.1-0.5-0.4c0-0.1,0-0.2,0-0.3
		c0-0.3-0.2-0.5-0.5-0.4c-0.7,0.1-1.3,0.1-1.7-0.6c-0.4-0.7-0.4-1.5,0-2.3c0.3-0.5,0.9-0.7,1.6-0.6c0.3,0.1,0.7,0.1,1,0
		c0.4,0,0.6,0.1,0.6,0.5C22.7,43.1,22.7,43.7,22.7,44.3z M20.1,43.7c0,0.1,0,0.3,0.1,0.5c0.1,0.4,0.3,0.6,0.7,0.7
		c0.4,0,0.7-0.3,0.7-0.6c0.1-0.3,0.1-0.7,0-1c-0.1-0.4-0.4-0.6-0.8-0.6s-0.6,0.3-0.7,0.7C20.1,43.4,20.2,43.6,20.1,43.7z"/>
	<path class="st2" d="M57.9,44.3c0-0.6,0-1.2,0-1.7c0-0.4,0.1-0.5,0.5-0.5s0.7,0,1.1-0.1c1-0.1,1.7,0.4,1.8,1.5c0,0.5,0,1-0.3,1.4
		c-0.4,0.5-0.9,0.6-1.5,0.5s-0.6,0-0.7,0.6c0,0.3-0.1,0.5-0.5,0.5c-0.3,0-0.5-0.1-0.5-0.5C57.9,45.5,57.9,44.9,57.9,44.3z
		 M60.4,43.8c0-0.2,0-0.4,0-0.5c-0.1-0.4-0.4-0.7-0.7-0.7c-0.4,0-0.7,0.2-0.8,0.6c-0.1,0.4,0,0.8,0.1,1.2c0.1,0.2,0.4,0.4,0.7,0.4
		c0.3,0.1,0.5-0.2,0.6-0.5C60.3,44.1,60.4,43.9,60.4,43.8z"/>
	<path class="st2" d="M32,43.2c0-0.6,0-1.2,0-1.7c0-0.4,0.1-0.5,0.5-0.5s0.5,0.2,0.5,0.6c0,0.4,0,0.8,0,1.2c0,0.3,0.2,0.3,0.4,0.2
		s0.3-0.3,0.5-0.4c0.3-0.1,0.6-0.3,0.9-0.3c0.3,0,0.4,0.2,0.2,0.4c-0.1,0.2-0.3,0.3-0.4,0.5c-0.2,0.3-0.3,0.5-0.1,0.8
		c0.3,0.4,0.5,0.8,0.7,1.2c0.2,0.3,0.1,0.5-0.3,0.5c-0.3,0-0.5-0.2-0.7-0.4s-0.3-0.4-0.4-0.6c-0.1-0.1-0.3-0.2-0.4-0.2
		c-0.1,0-0.2,0.2-0.3,0.3C33,44.7,33,44.8,33,45c0,0.3-0.1,0.5-0.5,0.5S32,45.3,32,45C32,44.3,32,43.7,32,43.2z"/>
	<path class="st2" d="M51.5,43.2c0-0.6,0-1.2,0-1.8c0-0.3,0.1-0.5,0.5-0.5c0.3,0,0.5,0.2,0.5,0.5c0,0.1,0,0.1,0,0.2
		c0,0.5,0.1,0.6,0.6,0.5c1-0.2,1.5,0.2,1.6,1.2c0,0.6,0,1.1,0,1.7c0,0.4-0.2,0.5-0.5,0.5c-0.4,0-0.5-0.2-0.5-0.5c0-0.4,0-0.8,0-1.3
		c0-0.2,0-0.4-0.1-0.5c-0.1-0.2-0.3-0.4-0.5-0.4s-0.4,0.2-0.5,0.4c-0.1,0.1-0.1,0.3-0.1,0.5c0,0.4,0,0.8,0,1.3
		c0,0.4-0.1,0.6-0.5,0.6s-0.5-0.2-0.5-0.6C51.5,44.3,51.5,43.7,51.5,43.2z"/>
	<path class="st2" d="M65.9,41.9c1.1,0,1.8,0.6,1.9,1.5c0.2,1.6-1,2.2-2.2,2.1c-1.1-0.1-1.7-0.9-1.6-2
		C64.1,42.5,64.9,41.9,65.9,41.9z M66.8,43.7c0-0.6-0.4-1-0.9-1c-0.6,0-0.9,0.4-0.9,1s0.4,1.1,0.9,1.1S66.8,44.3,66.8,43.7z"/>
	<path class="st2" d="M46.3,43.9c-0.3,0-0.6,0-0.8,0c-0.1,0-0.3,0.1-0.3,0.2c0,0.1,0,0.3,0.1,0.4c0.3,0.4,0.7,0.3,1.2,0
		c0.2-0.1,0.4-0.2,0.6-0.1c0.3,0.1,0.3,0.3,0.1,0.5c-0.4,0.5-1.4,0.7-2.1,0.4c-0.7-0.2-1.1-0.8-1.1-1.5c-0.1-1.4,0.9-2.3,2.3-1.9
		c0.7,0.2,1.2,0.8,1.2,1.5c0,0.3-0.1,0.4-0.4,0.4C46.8,43.8,46.6,43.8,46.3,43.9C46.3,43.8,46.3,43.9,46.3,43.9z M45.7,43.4
		c0.3-0.2,0.6-0.3,0.6-0.4c0-0.3-0.3-0.4-0.6-0.4S45,42.8,45.1,43C45.2,43.2,45.5,43.3,45.7,43.4z"/>
	<path class="st2" d="M71.6,41.9c1,0,1.6,0.6,1.7,1.5c0,0.3-0.1,0.5-0.4,0.5c-0.5,0-1,0-1.4,0c-0.2,0-0.3,0.2-0.5,0.3
		c0.1,0.2,0.2,0.4,0.3,0.5c0.3,0.2,0.6,0.1,0.9-0.1c0.1-0.1,0.2-0.2,0.4-0.2c0.2,0,0.4,0.1,0.6,0.2c0,0,0,0.3-0.1,0.4
		c-0.5,0.6-1.6,0.7-2.4,0.3c-0.7-0.4-1-1.2-0.7-2.1C70.1,42.4,70.7,41.9,71.6,41.9z M71.6,43.4c0.3-0.1,0.5-0.2,0.6-0.4
		c0.1-0.1-0.3-0.4-0.6-0.4c-0.3,0-0.6,0.1-0.6,0.4C71,43.2,71.3,43.3,71.6,43.4z"/>
	<path class="st2" d="M26.3,43.7c0,0.4,0,0.8,0,1.2s-0.2,0.5-0.5,0.5c-0.5,0-1,0.1-1.5,0.1c-0.8,0.1-1.2-0.3-1.2-1.1
		c0-0.6,0-1.2,0-1.9c0-0.3,0.1-0.5,0.5-0.5c0.3,0,0.5,0.1,0.5,0.5c0,0.5,0,1,0,1.5s0.2,0.7,0.5,0.7c0.4,0,0.6-0.2,0.6-0.7s0-1,0-1.5
		c0-0.4,0.1-0.5,0.5-0.5s0.5,0.1,0.5,0.5C26.3,42.9,26.3,43.3,26.3,43.7z"/>
	<path class="st2" d="M49.3,45.6c-0.4-0.1-0.8-0.2-1.2-0.4c-0.1-0.1-0.2-0.3-0.2-0.5c0.2-0.1,0.4-0.2,0.6-0.2c0.1,0,0.2,0.1,0.4,0.1
		c0.2,0.1,0.4,0.2,0.7,0.1c0.2,0,0.3-0.2,0.5-0.3c-0.1-0.1-0.2-0.3-0.4-0.3c-0.3-0.1-0.7-0.2-1-0.3c-0.4-0.1-0.6-0.4-0.7-0.8
		c0-0.4,0.2-0.7,0.5-0.9c0.7-0.4,1.4-0.3,2.1,0c0.1,0,0.2,0.3,0.2,0.3c-0.1,0.1-0.2,0.3-0.4,0.3c-0.1,0-0.3,0-0.4-0.1
		c-0.1,0-0.3-0.1-0.4-0.1c-0.2,0-0.4,0.1-0.6,0.2c0.1,0.1,0.3,0.3,0.4,0.4c0.3,0.1,0.6,0.1,0.9,0.2c0.4,0.1,0.7,0.4,0.7,0.8
		c0,0.5-0.2,0.8-0.6,1C50.1,45.4,49.7,45.5,49.3,45.6z"/>
	<path class="st2" d="M28.3,43.7c0-0.7,0.3-1.3,1-1.7c0.7-0.3,1.4-0.3,2.1,0.2c0.1,0.1,0.1,0.3,0.2,0.5c-0.2,0.1-0.4,0.2-0.6,0.2
		c-0.1,0-0.2-0.1-0.4-0.2c-0.5-0.2-1,0-1.1,0.5c-0.3,0.8,0.2,1.5,0.9,1.4c0.2,0,0.3-0.1,0.4-0.2c0.3-0.2,0.5-0.2,0.7,0.1
		s-0.1,0.4-0.2,0.6c-0.7,0.5-1.4,0.5-2.1,0.2C28.5,45,28.3,44.4,28.3,43.7z"/>
	<path class="st2" d="M75.3,45.5c-0.6,0-1.2-0.2-1.5-0.9s-0.3-1.4,0.2-2.1c0.5-0.6,1.1-0.8,1.8-0.7c0.3,0,0.6,0.2,0.8,0.3
		c0.1,0.1,0.2,0.3,0.2,0.5c-0.2,0.1-0.4,0.2-0.6,0.2c-0.1,0-0.3-0.1-0.4-0.2c-0.2,0-0.4-0.1-0.6-0.1c-0.4,0.1-0.5,0.4-0.6,0.8
		c0,0.4,0,0.8,0.4,1.1c0.3,0.2,0.6,0.2,0.9,0c0.1-0.1,0.2-0.2,0.3-0.2c0.2,0,0.4,0.1,0.4,0.2c0.1,0.1,0,0.3-0.1,0.4
		C76.4,45.4,76,45.5,75.3,45.5z"/>
	<path class="st2" d="M78.8,45.6c-0.9-0.1-1.2-0.4-1.2-1.2c0-0.3,0-0.7,0-1c0-0.2-0.1-0.5-0.3-0.7c-0.2-0.2-0.2-0.4,0-0.6
		c0.1-0.2,0.3-0.4,0.3-0.6c0.1-0.3,0.3-0.5,0.6-0.5c0.3,0,0.5,0.1,0.6,0.5c0,0.2,0.2,0.4,0.4,0.5c0.3,0.2,0.3,0.4,0,0.6
		c-0.3,0.1-0.4,0.3-0.4,0.6s0,0.5,0,0.8s0.1,0.5,0.3,0.6c0.2,0.1,0.4,0.3,0.3,0.5C79.2,45.3,79,45.4,78.8,45.6z"/>
	<path class="st2" d="M69.4,43.9c0,0.5,0,1.1,0,1.6c0,0.6-0.5,1-1.1,0.9c-0.4-0.1-0.6-0.4-0.3-0.7c0.3-0.3,0.4-0.6,0.4-1
		c0-0.8,0-1.5,0-2.3c0-0.4,0.2-0.6,0.6-0.6s0.5,0.1,0.5,0.6C69.4,42.9,69.4,43.4,69.4,43.9L69.4,43.9z"/>
	<path class="st2" d="M61.7,43.7c0-0.4,0-0.8,0-1.2c0-0.5,0.2-0.6,0.7-0.6c0.4,0,0.8,0,1.1,0.1c0.1,0,0.3,0.2,0.3,0.3
		c0,0.2-0.1,0.4-0.2,0.6c0,0.1-0.2,0.1-0.3,0.1c-0.3,0.1-0.5,0.3-0.5,0.7s0,0.9,0,1.3c0,0.3-0.1,0.5-0.5,0.5s-0.6-0.1-0.6-0.5
		C61.7,44.5,61.7,44.1,61.7,43.7L61.7,43.7z"/>
	<path class="st2" d="M26.8,43.7c0-0.4,0-0.8,0-1.2c0-0.3,0.2-0.5,0.5-0.5s0.6,0.1,0.6,0.4c0,0.9,0,1.8,0,2.7c0,0.4-0.3,0.4-0.6,0.4
		c-0.3,0-0.5-0.1-0.5-0.4C26.8,44.6,26.8,44.1,26.8,43.7L26.8,43.7z"/>
	<path class="st2" d="M27.4,40.7c0.3,0,0.5,0.1,0.5,0.4c0,0.4-0.3,0.4-0.6,0.4c-0.3,0-0.5-0.1-0.5-0.4C26.8,40.9,27,40.7,27.4,40.7z
		"/>
	<path class="st2" d="M69,40.6c0.2,0,0.5,0.1,0.5,0.4c0,0.4-0.3,0.4-0.5,0.4c-0.3,0-0.5-0.1-0.5-0.4C68.4,40.7,68.7,40.6,69,40.6z"
		/>
	<path class="st3" d="M65.9,44.8c-0.5,0-0.9-0.5-0.9-1.1s0.4-1,0.9-1"/>
</g>
</svg>
