<?xml version="1.0" encoding="utf-8"?>
<!-- Generator: Adobe Illustrator 20.1.0, SVG Export Plug-In . SVG Version: 6.00 Build 0)  -->
<svg version="1.1" id="Layer_1" xmlns="http://www.w3.org/2000/svg" xmlns:xlink="http://www.w3.org/1999/xlink" x="0px" y="0px"
	 viewBox="0 0 172.2 181" style="enable-background:new 0 0 172.2 181;" xml:space="preserve">
<style type="text/css">
	.st0{opacity:0.5;fill:#FFFFFF;}
</style>
<path class="st0" d="M152.3,57.6l-16.4-3.1c-0.4-0.1-0.8-0.5-1-0.8l-5-11.8c-0.2-0.4-0.2-0.9,0.1-1.3l9.6-14
	c0.2-0.3,0.2-0.8-0.1-1.1l-12-12c-0.3-0.3-0.8-0.3-1.1-0.1l-14.2,9.7c-0.3,0.2-0.9,0.3-1.3,0.1l-11.4-4.7c-0.4-0.1-0.8-0.6-0.8-1
	l-3.2-17C95.4,0.3,95,0,94.6,0H77.7c-0.4,0-0.8,0.3-0.9,0.7l-3.2,17c-0.1,0.4-0.5,0.8-0.8,1l-11.4,4.7c-0.4,0.2-0.9,0.1-1.3-0.1
	l-14.2-9.7c-0.3-0.2-0.8-0.2-1.1,0.1l-12,12c-0.3,0.3-0.3,0.8-0.1,1.1l9.6,14c0.2,0.3,0.3,0.9,0.1,1.3l-5,11.8
	c-0.1,0.4-0.6,0.8-1,0.8l-16.4,3.1c-0.4,0.1-0.7,0.5-0.7,0.9l0,16.9c0,0.4,0.3,0.8,0.7,0.9l16,3c0.4,0.1,0.8,0.5,1,0.8l5,12.5
	c0.2,0.4,0.1,0.9-0.1,1.3l-9.1,13.3c-0.2,0.3-0.2,0.8,0.1,1.1l12,12c0.3,0.3,0.8,0.3,1.1,0.1l13-8.9c0.3-0.2,0.9-0.2,1.2,0l5.8,3.1
	c0.4,0.2,0.8,0,0.9-0.3l11.9-28.6c0.2-0.4,0-0.9-0.3-1.1L77,83.5c-0.3-0.2-0.6-0.4-0.9-0.7c-5.2-3.3-8.6-9.1-8.6-15.8
	c0-10.3,8.4-18.7,18.7-18.7s18.7,8.4,18.7,18.7c0,6.6-3.4,12.4-8.6,15.8c-0.3,0.3-0.6,0.5-0.9,0.7l-1.4,0.9
	c-0.3,0.2-0.5,0.7-0.3,1.1l11.9,28.6c0.2,0.4,0.6,0.5,0.9,0.3l5.8-3.1c0.4-0.2,0.9-0.2,1.2,0l13,8.9c0.3,0.2,0.8,0.2,1.1-0.1l12-12
	c0.3-0.3,0.3-0.8,0.1-1.1l-9.1-13.3c-0.2-0.3-0.3-0.9-0.1-1.3l5-12.5c0.1-0.4,0.5-0.8,1-0.8l16-3c0.4-0.1,0.7-0.5,0.7-0.9l0-16.9
	C153.1,58.1,152.7,57.7,152.3,57.6"/>
<path class="st0" d="M45.6,180.8h3.6v-12.3c0-4.4-3-5.9-7.5-5.9c-2.7,0-4.7,0.7-6.1,2.6l2.8,2.2c0.6-1,1.5-1.4,3.4-1.4
	c2.6,0,3.7,0.6,3.7,2.3v1.9h-5c-3.9,0-5.8,2.4-5.8,5.3c0,3.1,2.3,5.5,6.3,5.5c2.4,0,3.7-0.6,4.4-1.8h0.1V180.8z M45.6,174.5
	c0,2.8-1,3.1-4,3.1c-2.4,0-3.4-1.1-3.4-2.3c0-1.3,1-2.2,3.1-2.2h4.3V174.5z"/>
<path class="st0" d="M53.2,180.8h3.6V170c0-2.6,1.7-3.8,3.5-3.8c0.9,0,1.5,0.2,2.4,0.9l2.6-3.1c-1.1-0.9-2.3-1.4-3.8-1.4
	c-1.9,0-3.5,0.7-4.7,2.1h-0.1v-1.9h-3.6V180.8z"/>
<path class="st0" d="M76.1,180.8h3.6v-25.2h-3.6v9.2c-1.3-1.3-2.8-2.1-4.6-2.1c-2.2,0-3.8,1-4.8,2.3c-1,1.3-1.3,2.4-1.3,6.8
	c0,4.4,0.3,5.6,1.3,6.9c1,1.3,2.6,2.3,4.8,2.3c1.8,0,3.5-0.9,4.6-2.1V180.8z M72.6,166.2c3.4,0,3.5,3,3.5,5.6c0,2.6-0.2,5.6-3.5,5.6
	c-3.4,0-3.6-2.8-3.6-5.6C69,169,69.2,166.2,72.6,166.2"/>
<polygon class="st0" points="98.1,180.8 101.3,180.8 107.1,162.8 103.2,162.8 99.8,175.4 99.7,175.4 95.7,162.8 93,162.8 89,175.4 
	88.9,175.4 85.5,162.8 81.6,162.8 87.4,180.8 90.6,180.8 94.3,168.2 94.4,168.2 "/>
<path class="st0" d="M118.2,180.8h3.6v-12.3c0-4.4-3-5.9-7.5-5.9c-2.7,0-4.7,0.7-6.1,2.6l2.8,2.2c0.6-1,1.5-1.4,3.4-1.4
	c2.6,0,3.7,0.6,3.7,2.3v1.9h-5c-3.9,0-5.8,2.4-5.8,5.3c0,3.1,2.3,5.5,6.3,5.5c2.4,0,3.7-0.6,4.4-1.8h0.1L118.2,180.8L118.2,180.8z
	 M118.2,174.5c0,2.8-1,3.1-4,3.1c-2.4,0-3.4-1.1-3.4-2.3c0-1.3,1-2.2,3.1-2.2h4.3C118.2,173.2,118.2,174.5,118.2,174.5z"/>
<path class="st0" d="M125.8,180.8h3.6V170c0-2.6,1.7-3.8,3.5-3.8c0.9,0,1.5,0.2,2.4,0.9l2.6-3.1c-1.1-0.9-2.3-1.4-3.8-1.4
	c-1.9,0-3.5,0.7-4.7,2.1h-0.1v-1.9h-3.6V180.8z"/>
<path class="st0" d="M152.7,173.2v-3c0-4.6-3.4-7.6-7.4-7.6c-3.5,0-7.4,2.3-7.4,9.2c0,7.4,4.3,9.1,8,9.1c2.4,0,4.7-0.9,6.5-2.9
	l-2.6-2.2c-1.1,1.1-2.6,1.7-3.9,1.7c-2.5,0-4.3-1.5-4.3-4.4H152.7z M141.6,170.2c0.1-2.7,1.7-4.2,3.8-4.2s3.7,1.5,3.8,4.2H141.6z"/>
<path class="st0" d="M0,143.4c0,3.9,0.6,5.4,1.9,6.9c1,1.1,2.7,2.3,5.5,2.3c2.8,0,4.5-1.2,5.5-2.3c1.4-1.5,1.9-3,1.9-6.9
	c0-3.9-0.6-5.3-1.9-6.9c-1-1.1-2.7-2.3-5.5-2.3c-2.8,0-4.5,1.2-5.5,2.3C0.6,138.1,0,139.6,0,143.4 M11.2,143.5
	c0,2.6-0.2,3.3-0.9,4.2c-0.5,0.7-1.7,1.3-2.9,1.3c-1.2,0-2.4-0.6-2.9-1.3c-0.7-1-0.9-1.7-0.9-4.3c0-2.6,0.2-3.3,0.9-4.2
	c0.5-0.7,1.7-1.3,2.9-1.3c1.2,0,2.4,0.6,2.9,1.3C11,140.1,11.2,140.8,11.2,143.5"/>
<path class="st0" d="M49.5,144.8v-3c0-4.6-3.4-7.6-7.4-7.6c-3.5,0-7.4,2.3-7.4,9.2c0,7.4,4.3,9.1,8,9.1c2.4,0,4.7-0.9,6.5-2.9
	l-2.6-2.2c-1.1,1.1-2.5,1.7-3.9,1.7c-2.5,0-4.3-1.5-4.3-4.4L49.5,144.8L49.5,144.8z M38.3,141.8c0.1-2.7,1.7-4.2,3.8-4.2
	s3.7,1.5,3.8,4.2H38.3z"/>
<path class="st0" d="M52.6,152.4h3.6v-10.7c0-2.4,1.5-3.9,3.6-3.9c2,0,3.5,1.4,3.5,3.9v10.7h3.6v-11.9c0-4.1-3.2-6.2-6-6.2
	c-1.9,0-3.5,0.7-4.7,2.1h-0.1v-1.9h-3.6V152.4z"/>
<path class="st0" d="M76.7,149.4c2.3,2.2,5,3.2,7.9,3.2c4.2,0,7.4-2,7.4-5.5c0-2.9-1.5-5.1-5.2-5.4l-3-0.2c-1.8-0.1-2.4-0.9-2.4-1.7
	c0-1.2,0.8-2.2,3.1-2.2c1.9,0,3.4,0.7,4.8,1.7l2.2-2.6c-1.8-1.5-3.9-2.4-7-2.4c-3.8,0-6.7,1.9-6.7,5.5c0,3.1,2.2,4.9,5.2,5.1
	l3.2,0.3c1.2,0.1,2.2,0.5,2.2,1.8c0,1.5-1.5,2.3-3.5,2.3c-2.4,0-4.1-0.8-5.7-2.3L76.7,149.4z"/>
<path class="st0" d="M94.1,143.4c0,3.9,0.6,5.4,1.9,6.9c1,1.1,2.7,2.3,5.5,2.3c2.8,0,4.5-1.2,5.5-2.3c1.4-1.5,1.9-3,1.9-6.9
	c0-3.9-0.6-5.3-1.9-6.9c-1-1.1-2.7-2.3-5.5-2.3c-2.8,0-4.5,1.2-5.5,2.3C94.6,138.1,94.1,139.6,94.1,143.4 M105.2,143.5
	c0,2.6-0.2,3.3-0.9,4.2c-0.5,0.7-1.7,1.3-2.9,1.3c-1.2,0-2.4-0.6-2.9-1.3c-0.7-1-0.9-1.7-0.9-4.3c0-2.6,0.2-3.3,0.9-4.2
	c0.5-0.7,1.7-1.3,2.9-1.3c1.2,0,2.4,0.6,2.9,1.3C105,140.1,105.2,140.8,105.2,143.5"/>
<path class="st0" d="M111.9,146.4c0,4.1,3.2,6.2,6,6.2c1.9,0,3.5-0.7,4.6-2.1h0.1v1.9h3.6v-18h-3.6v10.7c0,2.4-1.5,3.9-3.5,3.9
	c-2.1,0-3.6-1.4-3.6-3.9v-10.7h-3.6C111.9,134.5,111.9,146.4,111.9,146.4z"/>
<path class="st0" d="M130.2,152.4h3.6v-10.8c0-2.6,1.7-3.8,3.5-3.8c0.9,0,1.5,0.2,2.4,0.9l2.6-3.1c-1.1-0.9-2.3-1.4-3.8-1.4
	c-1.9,0-3.5,0.7-4.7,2.1h-0.1v-1.9h-3.6V152.4z"/>
<path class="st0" d="M153.9,147.1c-0.9,1.1-2.2,1.9-3.6,1.9c-2.9,0-4.7-1.7-4.7-5.6c0-3.9,1.7-5.6,4.7-5.6c1.5,0,2.8,0.8,3.6,1.9
	l2.7-2.4c-1.6-1.8-3.7-3.1-6.4-3.1c-4.1,0-8.1,2.6-8.1,9.2c0,6.6,4,9.2,8.1,9.2c2.7,0,4.9-1.3,6.4-3.1L153.9,147.1z"/>
<path class="st0" d="M172.2,144.8v-3c0-4.6-3.4-7.6-7.4-7.6c-3.5,0-7.4,2.3-7.4,9.2c0,7.4,4.3,9.1,8,9.1c2.4,0,4.7-0.9,6.5-2.9
	l-2.6-2.2c-1.1,1.1-2.5,1.7-3.9,1.7c-2.5,0-4.3-1.5-4.3-4.4L172.2,144.8L172.2,144.8z M161,141.8c0.1-2.7,1.7-4.2,3.8-4.2
	s3.7,1.5,3.8,4.2H161z"/>
<path class="st0" d="M25,149c3.4,0,3.6-2.8,3.6-5.6c0-2.8-0.2-5.6-3.6-5.6c-3.4,0-3.5,3-3.5,5.6C21.5,146,21.7,149,25,149
	 M17.9,180.8v-46.3h3.6v1.9c1.1-1.2,2.8-2.1,4.6-2.1c2.2,0,3.8,1,4.8,2.3c1,1.3,1.3,2.4,1.3,6.9c0,4.4-0.3,5.6-1.3,6.8
	c-1,1.3-2.6,2.3-4.8,2.3c-1.8,0-3.3-0.9-4.6-2.1l0,14.2c1.2-1.4,2.8-2.1,4.7-2.1c2.8,0,6,2.2,6,6.2v11.9h-3.6v-10.7
	c0-2.4-1.5-3.9-3.5-3.9c-2.1,0-3.6,1.4-3.6,3.9v10.7H17.9z"/>
</svg>
