<?xml version="1.0" encoding="utf-8"?>
<!-- Generator: Adobe Illustrator 20.1.0, SVG Export Plug-In . SVG Version: 6.00 Build 0)  -->
<svg version="1.1" id="Capa_1" xmlns="http://www.w3.org/2000/svg" xmlns:xlink="http://www.w3.org/1999/xlink" x="0px" y="0px"
	 viewBox="0 0 677.2 148.7" style="enable-background:new 0 0 677.2 148.7;" xml:space="preserve">
<style type="text/css">
	.st0{display:none;}
</style>
<g id="Capa_1_1_">
</g>
<g id="editables">
</g>
<g id="colores">
</g>
<g id="Capa_4" class="st0">
</g>
<g id="Capa_5">
	<g>
		<path d="M571.7,43.9c0,16.1-13.1,29.2-29.2,29.2c-0.4,0-15.9,0-15.9,0c0,0,0,0,0,0h-32v-44h0v-9.2c0-2.9,2.4-5.3,5.3-5.3
			c0,0,24.6,0,26.8,0c0,0,0,0,0,0h14.6c0,0,0.8,0,1.2,0c0.2,0,0.4,0,0.6,0c0.3,0.1,0.6,0.2,0.9,0.2h2.1
			C560.4,16.6,571.7,29,571.7,43.9z M665.1,2.1c-5.3,0-9.6,3.8-10.6,8.8H546.2c-1.3-0.1-2.5-0.2-3.8-0.2c-0.5,0-41.4,0-41.4,0
			c-0.2,0-0.3,0-0.4,0.1c-0.2,0-0.5,0-0.7,0c-5.2,0-9.3,4.2-9.3,9.3c0,0.3,0,0.7,0.1,1c0,0.1,0,0.2,0,0.4v51.8H484
			c-1-4.2-4.4-7.5-8.8-8.2c-2.8-37.7-21.6-53.6-44.4-53.6c-21.6,0-41.5,14.1-44.4,53.5c-4.5,0.6-8.2,4-9.2,8.4h-16.6
			C371,67.5,378,56.5,378,43.9c0-18.4-14.9-33.2-33.2-33.2c-0.5,0-40.4,0-40.4,0c-4.8,0.4-8.6,4.3-8.6,9.3c0,0.2,0,26.7,0,53.2
			h-18.5c-0.8-4.8-4.8-8.6-9.7-9c-4.9-20.8-23.6-36.4-45.8-36.4c-22.3,0-41,15.6-45.8,36.4c-4.7,0.5-8.5,4.1-9.4,8.7h-58.2V32.5h0
			l0-12.7h0c0.1-2.9,2.4-5.2,5.3-5.2c0.3,0,63.5,0,63.5,0c1.1,0,2-0.9,2-2s-0.9-2-2-2c0,0-63.2,0-63.5,0c-5.2,0-9.3,4.2-9.3,9.3
			c0,0.1,0,88.7,0,105c-1,0.2-2,0.5-2.9,1L68.6,80.8c-0.8-1.4-1.8-2.7-3-3.8c16.8-1.7,29.8-15.9,29.8-33.1
			c0-18.4-14.9-33.2-33.2-33.2c-0.5,0-41.4,0-41.4,0c-0.2,0-0.3,0-0.4,0.1c-0.2,0-0.5,0-0.7,0c-5.2,0-9.3,4.2-9.3,9.3
			c0,0.3,0,0.7,0.1,1c0,0.1,0,0.2,0,0.4v103.5c-5,0.9-8.8,5.3-8.8,10.6c0,5.9,4.8,10.8,10.8,10.8s10.8-4.8,10.8-10.8
			c0-5.2-3.8-9.6-8.7-10.6V77.1H47h3.8h5.3c0,0,0.2-0.1,0.3-0.1c3.8,0,6.8,2.6,8.7,5.6l4.9,6.8c0,0,0,0,0,0l28.2,38.9
			c-1.7,1.9-2.7,4.4-2.7,7.2c0,5.9,4.8,10.8,10.8,10.8c5.3,0,9.6-3.8,10.6-8.8H177c1.1,0,2-0.9,2-2s-0.9-2-2-2h-60.2
			c-0.8-4.3-4.2-7.8-8.6-8.6V76.8h58.2c0.9,4.6,4.7,8.2,9.4,8.7c4.9,20.8,23.6,36.4,45.8,36.4c22.3,0,41-15.6,45.8-36.4
			c4.8-0.4,8.6-3.9,9.6-8.4h18.7c0,21.3,0,41.7,0,47.8c-5,0.9-8.9,5.3-8.9,10.6c0,5.9,4.8,10.8,10.8,10.8s10.8-4.8,10.8-10.8
			c0-5.2-3.7-9.6-8.7-10.6c0-6,0-26.5,0-47.8h44.6c0.1,0,0.3,0,0.4,0c0.2,0,0.3,0,0.5,0h31.8c0.8,4.7,4.6,8.4,9.4,9
			c3,37.2,21.4,52.3,44.3,52.3c25.8,0,41.5-19,44.3-52.2c4.7-0.7,8.3-4.4,9-9h6.4v47.7c-5,0.9-8.8,5.3-8.8,10.6
			c0,5.9,4.8,10.8,10.8,10.8s10.8-4.8,10.8-10.8c0-5.2-3.8-9.6-8.7-10.6V77.1h41.7c0,0,0.2-0.1,0.3-0.1c3.8,0,6.8,2.6,8.7,5.6
			l4.9,6.8c0,0,0,0,0,0l28.2,38.9c-1.7,1.9-2.7,4.4-2.7,7.2c0,5.9,4.8,10.8,10.8,10.8c5.9,0,10.8-4.8,10.8-10.8s-4.8-10.8-10.8-10.8
			c-1.7,0-3.4,0.4-4.9,1.2l-32.7-45.1c-0.8-1.4-1.8-2.7-3-3.8c16.8-1.7,29.8-15.9,29.8-33.1c0-12.5-6.9-23.3-17-29h59v110
			c-5,0.9-8.8,5.3-8.8,10.6c0,5.9,4.8,10.8,10.8,10.8c5.9,0,10.8-4.8,10.8-10.8c0-5.3-3.8-9.6-8.8-10.6v-110h32.8
			c0.9,5,5.3,8.8,10.6,8.8c5.9,0,10.8-4.8,10.8-10.8S671,2.1,665.1,2.1z M19.1,135.4c0,3.7-3,6.8-6.8,6.8s-6.8-3-6.8-6.8
			s3-6.8,6.8-6.8S19.1,131.7,19.1,135.4z M62.3,73.1c-0.4,0-0.8,0-1.2,0v0H46.4c0,0,0,0,0,0h-32v-44h0v-9.2c0-2.9,2.4-5.3,5.3-5.3
			c0,0,24.6,0,26.8,0c0,0,0,0,0,0h14.6c0,0,0.8,0,1.2,0c16.1,0,29.2,13.1,29.2,29.2S78.4,73.1,62.3,73.1z M113,135.2
			c0,0.1,0,0.2,0,0.3s0,0.2,0,0.3c-0.1,3.6-3.1,6.5-6.8,6.5c-3.7,0-6.8-3-6.8-6.8s3-6.8,6.8-6.8C109.9,128.7,112.8,131.6,113,135.2z
			 M170.2,74.8c0-3.7,3-6.8,6.8-6.8s6.8,3,6.8,6.8s-3,6.8-6.8,6.8S170.2,78.6,170.2,74.8z M221.6,117.9c-20.2,0-37.2-13.9-41.8-32.7
			c4.6-1.2,7.9-5.4,7.9-10.4s-3.4-9.1-7.9-10.4c4.7-18.8,21.6-32.7,41.8-32.7c6.7,0,13.1,1.5,18.7,4.3v27.3c-4.1-6-11-9.9-18.7-9.9
			c-12.5,0-22.7,10.2-22.7,22.7s10.2,22.7,22.7,22.7c7.8,0,14.6-3.9,18.7-9.9v8.9c0,1.1,0.9,2,2,2s2-0.9,2-2V38.2
			c9.4,5.9,16.4,15.2,19.1,26.3c-4.4,1.3-7.7,5.5-7.7,10.3s3.2,9,7.7,10.3C258.8,103.9,241.9,117.9,221.6,117.9z M240.4,76.1
			c0,10.3-8.4,18.7-18.7,18.7s-18.7-8.4-18.7-18.7s8.4-18.7,18.7-18.7S240.4,65.8,240.4,76.1z M266.6,81.6c-3.7,0-6.8-3-6.8-6.8
			s3-6.8,6.8-6.8s6.8,3,6.8,6.8S270.3,81.6,266.6,81.6z M304.4,135.5c0,3.7-3,6.8-6.8,6.8s-6.8-3-6.8-6.8s3-6.8,6.8-6.8
			S304.4,131.7,304.4,135.5z M346,73.1L346,73.1c-0.3,0-0.5,0-0.7,0h-1c-0.2,0-0.4,0-0.7,0h-14.7c0,0,0,0,0,0h-29.2
			c0-26.6,0-53.1,0-53.2c0-2.9,2.3-5.2,5.2-5.3H346v0c15.6,0.6,28,13.5,28,29.2S361.6,72.5,346,73.1L346,73.1z M381,75.4
			c0-3.7,3-6.8,6.8-6.8s6.8,3,6.8,6.8s-3,6.8-6.8,6.8S381,79.1,381,75.4z M460.6,119.4c-7,9.9-17,15-29.8,15
			c-23.7,0-37.7-17.1-40.3-48.5c4.6-1.2,8.1-5.4,8.1-10.4c0-5-3.5-9.3-8.1-10.4c1.2-16.1,5.3-28.5,12.4-37
			c8.7-10.5,20-12.7,28.1-12.7c23.6,0,38,18,40.4,49.7c-4.8,1.1-8.5,5.4-8.5,10.5c0,5.1,3.6,9.4,8.4,10.5
			C469.9,99.9,466.3,111.3,460.6,119.4z M473.5,82.3c-3.7,0-6.8-3-6.8-6.8s3-6.8,6.8-6.8s6.8,3,6.8,6.8S477.2,82.3,473.5,82.3z
			 M586.4,128.7c3.7,0,6.8,3,6.8,6.8s-3,6.8-6.8,6.8c-3.7,0-6.8-3-6.8-6.8S582.6,128.7,586.4,128.7z M499.3,135.4
			c0,3.7-3,6.8-6.8,6.8s-6.8-3-6.8-6.8s3-6.8,6.8-6.8S499.3,131.7,499.3,135.4z M626.4,135.5c0,3.7-3,6.8-6.8,6.8s-6.8-3-6.8-6.8
			s3-6.8,6.8-6.8S626.4,131.7,626.4,135.5z M665.1,19.6c-3.7,0-6.8-3-6.8-6.8s3-6.8,6.8-6.8s6.8,3,6.8,6.8S668.8,19.6,665.1,19.6z"
			/>
	</g>
</g>
<g id="specctr">
</g>
</svg>
