<?xml version="1.0" encoding="utf-8"?>
<!-- Generator: Adobe Illustrator 20.1.0, SVG Export Plug-In . SVG Version: 6.00 Build 0)  -->
<svg version="1.1" id="Capa_1" xmlns="http://www.w3.org/2000/svg" xmlns:xlink="http://www.w3.org/1999/xlink" x="0px" y="0px"
	 viewBox="0 0 425.2 425.2" style="enable-background:new 0 0 425.2 425.2;" xml:space="preserve">
<style type="text/css">
	.st0{fill:#75A928;}
	.st1{fill:#BC1142;}
</style>
<path d="M147.1,24.3c-2,0-4,0.7-6.3,2.5c-5.6-2.2-11.2-2.9-16.1,1.4c-7.6-0.9-10.1,1.1-11.9,3.4c-1.6,0-12.5-1.6-17.5,5.6
	c-12.5-1.4-16.5,7.4-11.9,15.6c-2.5,4-5.2,7.8,0.7,15.4c-2.2,4.2-0.7,8.7,4.2,14.3c-1.3,6,1.3,10.1,6,13.2
	c-0.9,8.1,7.4,12.7,9.9,14.5c0.9,4.7,2.9,9,12.3,11.6c1.6,7.1,7.2,8.1,12.7,9.8C110.9,142,95.4,156,95.4,190l-2.7,4.7
	C71.9,207.3,53.1,248,82.4,281c2,10.3,5.1,17.7,8,26c4.3,33.1,32.2,48.7,39.4,50.5c10.9,8.1,22.2,15.9,37.8,21.5
	c14.7,15,30.6,20.8,46.5,20.8c0.2,0,0.5,0,0.7,0c15.9,0,31.8-5.8,46.5-20.8c15.6-5.4,27-13.2,37.8-21.5c7.4-1.8,35.3-17.4,39.4-50.5
	c2.9-8.1,6.1-15.7,8-26c29.3-33.1,10.5-73.8-10.3-86.5l-2.7-4.7c0.2-34-15.4-47.9-33.6-58.4c5.4-1.4,11.2-2.7,12.7-9.8
	c9.4-2.5,11.4-6.9,12.3-11.6c2.5-1.6,10.7-6.3,9.9-14.5c4.7-3.3,7.2-7.4,6-13.2c4.9-5.4,6.3-10.1,4.2-14.3c6-7.6,3.3-11.4,0.7-15.4
	c4.5-8.1,0.5-17-11.9-15.6c-4.9-7.4-15.7-5.8-17.5-5.6c-1.8-2.4-4.3-4.3-11.9-3.4c-4.9-4.5-10.5-3.6-16.1-1.4
	c-6.7-5.2-11.2-1.1-16.3,0.5c-8.1-2.7-10.1,0.9-14.1,2.5c-8.9-1.8-11.6,2.2-15.9,6.5l-4.9-0.2c-13.4,8-20.1,24.1-22.4,32.4
	c-2.4-8.3-9-24.4-22.4-32.4l-4.9,0.2c-4.3-4.3-7.1-8.5-15.9-6.5c-4-1.4-6-5.1-14.1-2.5C153.8,26.5,150.7,24.3,147.1,24.3L147.1,24.3
	z"/>
<path class="st0" d="M120.3,59.2c35.6,18.4,56.4,33.3,67.8,45.9c-5.8,23.3-36.2,24.4-47.2,23.7c2.4-1.1,4.2-2.4,4.9-4.3
	c-2.7-2-12.7-0.2-19.5-4.2c2.7-0.5,3.8-1.1,5.1-3.1c-6.5-2-13.6-3.8-17.7-7.2c2.2,0,4.3,0.5,7.2-1.4c-5.8-3.1-12.1-5.6-16.8-10.5
	c3.1,0,6.3,0,7.2-1.1c-5.4-3.3-9.8-7.1-13.6-11c4.2,0.5,6,0,7.1-0.7c-4-4.2-9.2-7.6-11.6-12.7c3.1,1.1,6,1.4,8.1-0.2
	c-1.4-3.1-7.2-4.9-10.7-12.1c3.3,0.4,6.9,0.7,7.4,0c-1.4-6.1-4.2-9.8-6.7-13.4c7.1-0.2,17.7,0,17.4-0.5l-4.3-4.5
	c6.9-1.8,13.9,0.4,19,1.8c2.4-1.8,0-4.2-2.9-6.5c5.8,0.7,11.2,2.2,15.9,4c2.5-2.4-1.6-4.7-3.6-6.9c9,1.6,12.8,4.2,16.6,6.5
	c2.7-2.7,0.2-4.9-1.6-7.2c6.9,2.5,10.3,5.8,14.1,9c1.3-1.6,3.3-2.9,0.9-7.1c4.9,2.7,8.5,6.1,11.2,9.8c3.1-2,1.8-4.5,1.8-6.9
	c5.1,4.2,8.3,8.5,12.1,12.7c0.7-0.5,1.4-2.5,2.2-5.6c11.9,11.6,28.9,41.1,4.3,52.6C173.2,81.3,148,68.6,120.3,59.2L120.3,59.2z"/>
<path class="st0" d="M309.5,59.2c-35.6,18.4-56.4,33.3-67.8,45.9c5.8,23.3,36.2,24.4,47.2,23.7c-2.4-1.1-4.2-2.4-4.9-4.3
	c2.7-2,12.7-0.2,19.5-4.2c-2.7-0.5-3.8-1.1-5.1-3.1c6.5-2,13.6-3.8,17.7-7.2c-2.2,0-4.3,0.5-7.2-1.4c5.8-3.1,12.1-5.6,16.8-10.5
	c-3.1,0-6.3,0-7.2-1.1c5.4-3.3,9.8-7.1,13.6-11c-4.2,0.5-6,0-7.1-0.7c4-4.2,9.2-7.6,11.6-12.7c-3.1,1.1-6,1.4-8.1-0.2
	c1.4-3.1,7.2-4.9,10.7-12.1c-3.3,0.4-6.9,0.7-7.4,0c1.4-6.3,4.2-9.8,6.7-13.4c-7.1-0.2-17.7,0-17.4-0.5l4.3-4.5
	c-6.9-1.8-13.9,0.4-19,1.8c-2.4-1.8,0-4.2,2.9-6.5c-5.8,0.7-11.2,2.2-15.9,4c-2.5-2.4,1.6-4.7,3.6-6.9c-9,1.6-12.8,4.2-16.6,6.5
	c-2.7-2.7-0.2-4.9,1.6-7.2c-6.9,2.5-10.3,5.8-14.1,9c-1.3-1.6-3.3-2.9-0.9-7.1c-4.9,2.7-8.5,6.1-11.2,9.8c-3.1-2-1.8-4.5-1.8-6.9
	c-5.1,4.2-8.3,8.5-12.1,12.7c-0.7-0.5-1.4-2.5-2.2-5.6c-11.9,11.6-28.9,41.1-4.3,52.6C256.7,81.3,281.9,68.6,309.5,59.2L309.5,59.2z
	"/>
<path class="st1" d="M258.2,296.7c0.2,21.7-19,39.4-42.5,39.6c-23.5,0.2-42.9-17.4-42.9-39.3c0-0.2,0-0.4,0-0.4
	c-0.2-21.7,19-39.4,42.5-39.6s42.9,17.4,42.9,39.3C258.2,296.3,258.2,296.5,258.2,296.7z"/>
<path class="st1" d="M190.7,184.2c17.7,11.6,21,37.8,7.1,58.8c-13.7,20.8-39.3,28.4-57,16.6l0,0c-17.7-11.6-21-37.8-7.1-58.8
	C147.5,180,173,172.6,190.7,184.2L190.7,184.2z"/>
<path class="st1" d="M238.5,182c-17.7,11.6-21,37.8-7.1,58.8c13.7,20.8,39.3,28.4,57,16.6l0,0c17.7-11.6,21-37.8,7.1-58.8
	C281.7,177.9,256.2,170.4,238.5,182L238.5,182z"/>
<path class="st1" d="M102.3,203.2c19.2-5.1,6.5,79-9,72.2C76,261.4,70.6,221.3,102.3,203.2z"/>
<path class="st1" d="M323.1,202.1c-19.2-5.1-6.5,79,9,72.2C349.3,260.5,354.8,220.2,323.1,202.1L323.1,202.1z"/>
<path class="st1" d="M258.2,139.3c32.9-5.6,60.4,14.1,59.3,49.7C316.4,202.8,246.1,141.3,258.2,139.3z"/>
<path class="st1" d="M167,138.2c-32.9-5.6-60.4,14.1-59.3,49.7C108.8,201.7,179.1,140.4,167,138.2L167,138.2z"/>
<path class="st1" d="M214.4,129.9c-19.7-0.5-38.5,14.7-38.7,23.3c0,10.7,15.6,21.5,38.7,21.9c23.7,0.2,38.9-8.7,38.9-19.7
	C253.5,143,231.9,129.7,214.4,129.9L214.4,129.9z"/>
<path class="st1" d="M215.7,348.6c17.2-0.7,40.2,5.6,40.2,13.9c0.4,8.1-20.8,26.4-41.4,26c-21.2,0.9-42-17.4-41.8-23.7
	C172.4,355.3,198.5,348.1,215.7,348.6L215.7,348.6z"/>
<path class="st1" d="M152.2,299.2c12.3,14.7,17.7,40.5,7.6,48.3c-9.6,5.8-33.1,3.4-49.7-20.4c-11.2-20.1-9.8-40.5-1.8-46.5
	C120,273.2,138.3,283,152.2,299.2L152.2,299.2z"/>
<path class="st1" d="M276.6,294.5c-13.2,15.6-20.6,43.8-10.9,52.8c9.2,7.1,34,6.1,52.3-19.4c13.2-17,8.9-45.6,1.3-53
	C307.9,266.3,291.6,277.3,276.6,294.5L276.6,294.5z"/>
</svg>
