<?xml version="1.0" encoding="utf-8"?>
<!-- Generator: Adobe Illustrator 20.1.0, SVG Export Plug-In . SVG Version: 6.00 Build 0)  -->
<svg version="1.1" id="Capa_1" xmlns="http://www.w3.org/2000/svg" xmlns:xlink="http://www.w3.org/1999/xlink" x="0px" y="0px"
	 viewBox="0 0 200 200" style="enable-background:new 0 0 200 200;" xml:space="preserve">
<style type="text/css">
	.st0{fill:#FDC930;}
</style>
<g>
	<circle class="st0" cx="144.2" cy="155.2" r="6.7"/>
	<circle class="st0" cx="55.5" cy="155.2" r="6.7"/>
	<circle class="st0" cx="144.5" cy="97.4" r="6.7"/>
	<path class="st0" d="M120.2,85.7c4.4-5.3,6.6-12.4,6.6-19.6c0-5.3-1.3-10.7-3.7-15.2c-2.4-4.5-6-8.2-10.8-10.4
		c-3.2-1.5-6.9-2.4-11.2-2.4c-0.3,0-0.6,0-0.9,0l0,0h0c0,0-33.3,0-37.1,0c-0.9,0-1.7,0.2-2.3,0.5c-0.6,0.3-1.1,0.7-1.5,1.2
		c-0.8,1-1.4,2.5-1.4,4.1c0,1.5,0,26.2,0,51l42.2-0.2c4.6-0.1,8.4-1,11.7-2.6C115.3,90.5,118,88.3,120.2,85.7z"/>
	<path class="st0" d="M100,5.1C47.6,5.1,5.1,47.6,5.1,100s42.5,94.9,94.9,94.9s94.9-42.5,94.9-94.9S152.4,5.1,100,5.1z M138.4,145.1
		c1.7-1,3.7-1.6,5.8-1.6c6.4,0,11.7,5.2,11.7,11.7s-5.2,11.7-11.7,11.7c-6.4,0-11.7-5.2-11.7-11.7c0-2.5,0.8-4.8,2.2-6.8L85.9,99.7
		l-27.9,0.2c0,19.1,0,37.4,0,44c5.2,1.2,9.1,5.8,9.1,11.4c0,6.4-5.2,11.7-11.7,11.7s-11.7-5.2-11.7-11.7c0-5.6,4-10.3,9.2-11.4
		c0-15.7,0-97.1,0-99.9c0-2,0.5-4,1.4-5.7c1-1.7,2.4-3.2,4.4-4.1c1.3-0.6,2.8-0.9,4.4-0.9c3.8,0,37.1,0,37.1,0c0.3,0,0.6,0,0.9,0
		c5,0,9.5,1,13.3,2.9c3.9,1.8,7.1,4.5,9.7,7.6c5.1,6.2,7.6,14.4,7.7,22.6c0,6.1-1.4,12.3-4.4,17.7c-2.4,4.4-5.9,8.3-10.3,11.1h15.9
		c1.1-5.2,5.8-9.2,11.4-9.2c6.4,0,11.7,5.2,11.7,11.7c0,6.4-5.2,11.7-11.7,11.7c-5.6,0-10.2-3.9-11.4-9.2H93.2L138.4,145.1z"/>
</g>
</svg>
