<?xml version="1.0" encoding="utf-8"?>
<!-- Generator: Adobe Illustrator 20.1.0, SVG Export Plug-In . SVG Version: 6.00 Build 0)  -->
<svg version="1.1" id="Capa_1" xmlns="http://www.w3.org/2000/svg" xmlns:xlink="http://www.w3.org/1999/xlink" x="0px" y="0px"
	 viewBox="0 0 595.3 524.1" style="enable-background:new 0 0 595.3 524.1;" xml:space="preserve">
<style type="text/css">
	.st0{fill:none;stroke:#366EB5;stroke-width:2;stroke-miterlimit:10;}
	.st1{fill:none;}
	.st2{enable-background:new    ;}
	.st3{fill:none;stroke:#E74220;stroke-width:2;stroke-miterlimit:10;}
	.st4{fill:none;stroke:#010202;stroke-width:2;stroke-miterlimit:10;}
	.st5{fill:#F6E81D;}
	.st6{fill:#FFAE00;stroke:#000000;stroke-width:8;stroke-miterlimit:10;}
	.st7{fill:none;stroke:#1D1D1B;stroke-width:3;stroke-miterlimit:10;}
	.st8{fill:#FFFFFF;stroke:#1D1D1B;stroke-width:3;stroke-miterlimit:10;}
	.st9{fill:#1D1D1B;stroke:#1D1D1B;stroke-width:3;stroke-miterlimit:10;}
</style>
<g>
	<g>
		<circle class="st0" cx="124.2" cy="404.1" r="96.9"/>
		<rect x="53.5" y="355" class="st1" width="168.8" height="120.3"/>
		<g>
			<g class="st2">
				<path d="M74.5,363.5c-0.1,1.5-0.5,2.6-1.2,3.3c-0.8,0.8-1.8,1.1-3.2,1.1c-1.5,0-2.6-0.5-3.3-1.4c-0.8-1-1.2-2.3-1.2-4.1v-2.2
					c0-1.8,0.4-3.1,1.2-4.1c0.8-1,1.9-1.4,3.3-1.4c1.4,0,2.5,0.4,3.2,1.2c0.7,0.8,1.1,1.9,1.2,3.4h-2.6c0-0.9-0.2-1.5-0.4-1.9
					c-0.3-0.3-0.7-0.5-1.4-0.5c-0.7,0-1.2,0.2-1.5,0.7c-0.3,0.5-0.4,1.3-0.5,2.4v2.4c0,1.3,0.1,2.2,0.4,2.6c0.3,0.5,0.8,0.7,1.5,0.7
					c0.7,0,1.2-0.2,1.4-0.5c0.3-0.3,0.4-0.9,0.4-1.8H74.5z"/>
				<path d="M85.1,362.5c0,1.7-0.4,3.1-1.2,4c-0.8,1-1.9,1.4-3.4,1.4c-1.4,0-2.6-0.5-3.4-1.4c-0.8-0.9-1.2-2.3-1.3-4v-2.2
					c0-1.8,0.4-3.1,1.2-4.1c0.8-1,2-1.5,3.4-1.5c1.4,0,2.6,0.5,3.4,1.5c0.8,1,1.2,2.3,1.3,4.1V362.5z M82.5,360.3
					c0-1.2-0.2-2-0.5-2.6c-0.3-0.6-0.8-0.8-1.5-0.8c-0.7,0-1.2,0.3-1.5,0.8c-0.3,0.5-0.5,1.4-0.5,2.5v2.3c0,1.1,0.2,2,0.5,2.5
					c0.3,0.5,0.9,0.8,1.6,0.8c0.7,0,1.2-0.3,1.5-0.8c0.3-0.5,0.5-1.3,0.5-2.4V360.3z"/>
				<path d="M90.3,354.9l2.4,9.3l2.4-9.3h3.4v12.9H96v-3.5l0.2-5.4l-2.6,8.8h-1.8l-2.6-8.8l0.2,5.4v3.5H87v-12.9H90.3z"/>
				<path d="M109,354.9v8.9c0,1.3-0.4,2.4-1.1,3.1c-0.7,0.7-1.8,1.1-3.1,1.1c-1.4,0-2.4-0.4-3.2-1.1c-0.7-0.7-1.1-1.8-1.1-3.1v-8.8
					h2.6v8.8c0,0.7,0.1,1.2,0.4,1.6c0.2,0.3,0.7,0.5,1.3,0.5s1-0.2,1.3-0.5c0.2-0.3,0.3-0.8,0.4-1.5v-8.9H109z"/>
				<path d="M120,367.7h-2.6l-3.8-8.4v8.4H111v-12.9h2.6l3.8,8.4v-8.4h2.6V367.7z"/>
				<path d="M124.8,367.7h-2.6v-12.9h2.6V367.7z"/>
				<path d="M135.7,363.5c-0.1,1.5-0.5,2.6-1.2,3.3c-0.8,0.8-1.8,1.1-3.2,1.1c-1.5,0-2.6-0.5-3.3-1.4c-0.8-1-1.2-2.3-1.2-4.1v-2.2
					c0-1.8,0.4-3.1,1.2-4.1c0.8-1,1.9-1.4,3.3-1.4c1.4,0,2.5,0.4,3.2,1.2c0.7,0.8,1.1,1.9,1.2,3.4h-2.6c0-0.9-0.2-1.5-0.4-1.9
					c-0.3-0.3-0.7-0.5-1.4-0.5c-0.7,0-1.2,0.2-1.5,0.7c-0.3,0.5-0.4,1.3-0.5,2.4v2.4c0,1.3,0.1,2.2,0.4,2.6c0.3,0.5,0.8,0.7,1.5,0.7
					c0.7,0,1.2-0.2,1.4-0.5c0.3-0.3,0.4-0.9,0.4-1.8H135.7z"/>
				<path d="M143.4,365.1h-3.5l-0.7,2.6h-2.7l4-12.9h2.4l4,12.9h-2.8L143.4,365.1z M140.4,362.9h2.4l-1.2-4.6L140.4,362.9z"/>
				<path d="M156.6,363.5c-0.1,1.5-0.5,2.6-1.2,3.3c-0.8,0.8-1.8,1.1-3.2,1.1c-1.5,0-2.6-0.5-3.3-1.4c-0.8-1-1.2-2.3-1.2-4.1v-2.2
					c0-1.8,0.4-3.1,1.2-4.1c0.8-1,1.9-1.4,3.3-1.4c1.4,0,2.5,0.4,3.2,1.2c0.7,0.8,1.1,1.9,1.2,3.4H154c0-0.9-0.2-1.5-0.4-1.9
					c-0.3-0.3-0.7-0.5-1.4-0.5c-0.7,0-1.2,0.2-1.5,0.7c-0.3,0.5-0.4,1.3-0.5,2.4v2.4c0,1.3,0.1,2.2,0.4,2.6c0.3,0.5,0.8,0.7,1.5,0.7
					c0.7,0,1.2-0.2,1.4-0.5c0.3-0.3,0.4-0.9,0.4-1.8H156.6z"/>
				<path d="M160.9,367.7h-2.6v-12.9h2.6V367.7z"/>
				<path d="M172.1,362.5c0,1.7-0.4,3.1-1.2,4c-0.8,1-1.9,1.4-3.4,1.4c-1.4,0-2.6-0.5-3.4-1.4c-0.8-0.9-1.2-2.3-1.3-4v-2.2
					c0-1.8,0.4-3.1,1.2-4.1c0.8-1,2-1.5,3.4-1.5c1.4,0,2.6,0.5,3.4,1.5c0.8,1,1.2,2.3,1.3,4.1V362.5z M169.5,360.3
					c0-1.2-0.2-2-0.5-2.6c-0.3-0.6-0.8-0.8-1.5-0.8c-0.7,0-1.2,0.3-1.5,0.8c-0.3,0.5-0.5,1.4-0.5,2.5v2.3c0,1.1,0.2,2,0.5,2.5
					c0.3,0.5,0.9,0.8,1.6,0.8c0.7,0,1.2-0.3,1.5-0.8c0.3-0.5,0.5-1.3,0.5-2.4V360.3z"/>
				<path d="M183,367.7h-2.6l-3.8-8.4v8.4H174v-12.9h2.6l3.8,8.4v-8.4h2.6V367.7z"/>
			</g>
			<g class="st2">
				<path d="M78.7,385.9h4.6v2.2h-7.1v-12.9h2.6V385.9z"/>
				<path d="M93.2,382.8c0,1.7-0.4,3.1-1.2,4c-0.8,1-1.9,1.4-3.4,1.4c-1.4,0-2.6-0.5-3.4-1.4c-0.8-0.9-1.2-2.3-1.3-4v-2.2
					c0-1.8,0.4-3.1,1.2-4.1c0.8-1,2-1.5,3.4-1.5c1.4,0,2.6,0.5,3.4,1.5c0.8,1,1.2,2.3,1.3,4.1V382.8z M90.6,380.6
					c0-1.2-0.2-2-0.5-2.6c-0.3-0.6-0.8-0.8-1.5-0.8c-0.7,0-1.2,0.3-1.5,0.8c-0.3,0.5-0.5,1.4-0.5,2.5v2.3c0,1.1,0.2,2,0.5,2.5
					s0.9,0.8,1.6,0.8c0.7,0,1.2-0.3,1.5-0.8c0.3-0.5,0.5-1.3,0.5-2.4V380.6z"/>
				<path d="M103.8,383.8c-0.1,1.5-0.5,2.6-1.2,3.3c-0.8,0.8-1.8,1.1-3.2,1.1c-1.5,0-2.6-0.5-3.3-1.4c-0.8-1-1.2-2.3-1.2-4.1v-2.2
					c0-1.8,0.4-3.1,1.2-4.1c0.8-1,1.9-1.4,3.3-1.4c1.4,0,2.5,0.4,3.2,1.2c0.7,0.8,1.1,1.9,1.2,3.4h-2.6c0-0.9-0.2-1.5-0.4-1.9
					c-0.3-0.3-0.7-0.5-1.4-0.5c-0.7,0-1.2,0.2-1.5,0.7c-0.3,0.5-0.4,1.3-0.5,2.4v2.4c0,1.3,0.1,2.2,0.4,2.6c0.3,0.5,0.8,0.7,1.5,0.7
					c0.7,0,1.2-0.2,1.4-0.5c0.3-0.3,0.4-0.9,0.4-1.8H103.8z"/>
				<path d="M111.5,385.4H108l-0.7,2.6h-2.7l4-12.9h2.4l4,12.9h-2.8L111.5,385.4z M108.5,383.3h2.4l-1.2-4.6L108.5,383.3z"/>
				<path d="M118.8,385.9h4.6v2.2h-7.1v-12.9h2.6V385.9z"/>
				<path d="M132.4,375.2l2.4,9.3l2.4-9.3h3.4v12.9H138v-3.5l0.2-5.4l-2.6,8.8h-1.8l-2.6-8.8l0.2,5.4v3.5H129v-12.9H132.4z"/>
				<path d="M149.3,382.5h-4v3.4h4.8v2.2h-7.4v-12.9h7.4v2.2h-4.8v3h4V382.5z"/>
				<path d="M157,384.7c0-0.5-0.1-0.9-0.4-1.2c-0.3-0.3-0.8-0.5-1.5-0.8c-1.3-0.5-2.2-1.1-2.8-1.7s-0.8-1.4-0.8-2.3
					c0-1.1,0.4-2,1.2-2.6c0.8-0.7,1.7-1,2.9-1c0.8,0,1.5,0.2,2.1,0.5c0.6,0.3,1.1,0.8,1.4,1.4c0.3,0.6,0.5,1.3,0.5,2.1H157
					c0-0.6-0.1-1.1-0.4-1.4c-0.3-0.3-0.6-0.5-1.1-0.5c-0.5,0-0.8,0.1-1.1,0.4c-0.3,0.3-0.4,0.6-0.4,1.1c0,0.4,0.1,0.7,0.4,1
					c0.3,0.3,0.8,0.6,1.5,0.9c1.3,0.5,2.2,1,2.7,1.7c0.6,0.7,0.9,1.5,0.9,2.5c0,1.1-0.4,2-1.1,2.6c-0.7,0.6-1.7,0.9-2.9,0.9
					c-0.8,0-1.6-0.2-2.3-0.5c-0.7-0.3-1.2-0.8-1.6-1.5c-0.4-0.6-0.6-1.4-0.6-2.3h2.6c0,0.7,0.1,1.3,0.4,1.6c0.3,0.3,0.8,0.5,1.4,0.5
					C156.5,386.1,157,385.7,157,384.7z"/>
				<path d="M170.3,388.1h-2.6v-5.5h-3.8v5.5h-2.6v-12.9h2.6v5.2h3.8v-5.2h2.6V388.1z"/>
			</g>
			<g class="st2">
				<path d="M88.2,425.4c0-0.5-0.1-0.9-0.4-1.2c-0.3-0.3-0.8-0.5-1.5-0.8c-1.3-0.5-2.2-1.1-2.8-1.7c-0.6-0.7-0.8-1.4-0.8-2.3
					c0-1.1,0.4-2,1.2-2.6c0.8-0.7,1.7-1,2.9-1c0.8,0,1.5,0.2,2.1,0.5c0.6,0.3,1.1,0.8,1.4,1.4c0.3,0.6,0.5,1.3,0.5,2.1h-2.6
					c0-0.6-0.1-1.1-0.4-1.4c-0.3-0.3-0.6-0.5-1.1-0.5c-0.5,0-0.8,0.1-1.1,0.4c-0.3,0.3-0.4,0.6-0.4,1.1c0,0.4,0.1,0.7,0.4,1
					s0.8,0.6,1.5,0.9c1.3,0.5,2.2,1,2.7,1.7c0.6,0.7,0.9,1.5,0.9,2.5c0,1.1-0.4,2-1.1,2.6c-0.7,0.6-1.7,0.9-2.9,0.9
					c-0.8,0-1.6-0.2-2.3-0.5c-0.7-0.3-1.2-0.8-1.6-1.5c-0.4-0.6-0.6-1.4-0.6-2.3H85c0,0.7,0.1,1.3,0.4,1.6c0.3,0.3,0.8,0.5,1.4,0.5
					C87.7,426.8,88.2,426.3,88.2,425.4z"/>
				<path d="M99.1,423.2h-4v3.4h4.8v2.2h-7.4v-12.9h7.4v2.2h-4.8v3h4V423.2z"/>
				<path d="M110.4,428.7h-2.6l-3.8-8.4v8.4h-2.6v-12.9h2.6l3.8,8.4v-8.4h2.6V428.7z"/>
				<path d="M117.9,425.4c0-0.5-0.1-0.9-0.4-1.2c-0.3-0.3-0.8-0.5-1.5-0.8c-1.3-0.5-2.2-1.1-2.8-1.7c-0.6-0.7-0.8-1.4-0.8-2.3
					c0-1.1,0.4-2,1.2-2.6s1.7-1,2.9-1c0.8,0,1.5,0.2,2.1,0.5c0.6,0.3,1.1,0.8,1.4,1.4c0.3,0.6,0.5,1.3,0.5,2.1h-2.6
					c0-0.6-0.1-1.1-0.4-1.4c-0.3-0.3-0.6-0.5-1.1-0.5c-0.5,0-0.8,0.1-1.1,0.4c-0.3,0.3-0.4,0.6-0.4,1.1c0,0.4,0.1,0.7,0.4,1
					s0.8,0.6,1.5,0.9c1.3,0.5,2.2,1,2.7,1.7c0.6,0.7,0.9,1.5,0.9,2.5c0,1.1-0.4,2-1.1,2.6c-0.7,0.6-1.7,0.9-2.9,0.9
					c-0.8,0-1.6-0.2-2.3-0.5c-0.7-0.3-1.2-0.8-1.6-1.5c-0.4-0.6-0.6-1.4-0.6-2.3h2.6c0,0.7,0.1,1.3,0.4,1.6c0.3,0.3,0.8,0.5,1.4,0.5
					C117.4,426.8,117.9,426.3,117.9,425.4z"/>
				<path d="M131.3,423.5c0,1.7-0.4,3.1-1.2,4c-0.8,1-1.9,1.4-3.4,1.4c-1.4,0-2.6-0.5-3.4-1.4c-0.8-0.9-1.2-2.3-1.3-4v-2.2
					c0-1.8,0.4-3.1,1.2-4.1c0.8-1,2-1.5,3.4-1.5c1.4,0,2.6,0.5,3.4,1.5c0.8,1,1.2,2.3,1.3,4.1V423.5z M128.6,421.3
					c0-1.2-0.2-2-0.5-2.6c-0.3-0.6-0.8-0.8-1.5-0.8c-0.7,0-1.2,0.3-1.5,0.8c-0.3,0.5-0.5,1.4-0.5,2.5v2.3c0,1.1,0.2,2,0.5,2.5
					c0.3,0.5,0.9,0.8,1.6,0.8c0.7,0,1.2-0.3,1.5-0.8c0.3-0.5,0.5-1.3,0.5-2.4V421.3z"/>
				<path d="M137,424h-1.3v4.7h-2.6v-12.9h4.1c1.3,0,2.3,0.3,3,1c0.7,0.7,1.1,1.6,1.1,2.9c0,1.7-0.6,2.9-1.9,3.6l2.3,5.3v0.1h-2.8
					L137,424z M135.7,421.9h1.5c0.5,0,0.9-0.2,1.2-0.5c0.3-0.3,0.4-0.8,0.4-1.4c0-1.3-0.5-1.9-1.5-1.9h-1.5V421.9z"/>
				<path d="M149.8,423.2h-4v3.4h4.8v2.2h-7.4v-12.9h7.4v2.2h-4.8v3h4V423.2z"/>
				<path d="M157.4,425.4c0-0.5-0.1-0.9-0.4-1.2c-0.3-0.3-0.8-0.5-1.5-0.8c-1.3-0.5-2.2-1.1-2.8-1.7s-0.8-1.4-0.8-2.3
					c0-1.1,0.4-2,1.2-2.6s1.7-1,2.9-1c0.8,0,1.5,0.2,2.1,0.5c0.6,0.3,1.1,0.8,1.4,1.4c0.3,0.6,0.5,1.3,0.5,2.1h-2.6
					c0-0.6-0.1-1.1-0.4-1.4c-0.3-0.3-0.6-0.5-1.1-0.5c-0.5,0-0.8,0.1-1.1,0.4c-0.3,0.3-0.4,0.6-0.4,1.1c0,0.4,0.1,0.7,0.4,1
					s0.8,0.6,1.5,0.9c1.3,0.5,2.2,1,2.7,1.7c0.6,0.7,0.9,1.5,0.9,2.5c0,1.1-0.4,2-1.1,2.6c-0.7,0.6-1.7,0.9-2.9,0.9
					c-0.8,0-1.6-0.2-2.3-0.5c-0.7-0.3-1.2-0.8-1.6-1.5c-0.4-0.6-0.6-1.4-0.6-2.3h2.6c0,0.7,0.1,1.3,0.4,1.6c0.3,0.3,0.8,0.5,1.4,0.5
					C157,426.8,157.4,426.3,157.4,425.4z"/>
			</g>
			<g class="st2">
				<path d="M77.8,446.4h-3.5l-0.7,2.6h-2.7l4-12.9h2.4l4,12.9h-2.8L77.8,446.4z M74.9,444.3h2.4l-1.2-4.6L74.9,444.3z"/>
				<path d="M85.9,436.2l2.4,9.3l2.4-9.3h3.4v12.9h-2.6v-3.5l0.2-5.4l-2.6,8.8h-1.8l-2.6-8.8l0.2,5.4v3.5h-2.6v-12.9H85.9z"/>
				<path d="M96.2,449.1v-12.9h4c1.3,0,2.4,0.3,3.1,0.9s1,1.5,1,2.6c0,0.7-0.1,1.2-0.4,1.7c-0.3,0.5-0.7,0.8-1.2,1
					c0.6,0.2,1,0.5,1.3,1c0.3,0.5,0.5,1.1,0.5,1.8c0,1.2-0.3,2.2-1,2.8c-0.7,0.6-1.7,1-3,1H96.2z M98.8,441.6h1.4
					c1,0,1.5-0.5,1.5-1.6c0-0.6-0.1-1-0.4-1.3c-0.2-0.3-0.6-0.4-1.1-0.4h-1.4V441.6z M98.8,443.5v3.4h1.7c0.5,0,0.8-0.1,1.1-0.4
					c0.2-0.3,0.4-0.7,0.4-1.2c0-1.2-0.4-1.7-1.3-1.8H98.8z"/>
				<path d="M109.1,449.1h-2.6v-12.9h2.6V449.1z"/>
				<path d="M117.9,443.5h-4v3.4h4.8v2.2h-7.4v-12.9h7.4v2.2h-4.8v3h4V443.5z"/>
				<path d="M129.1,449.1h-2.6l-3.8-8.4v8.4h-2.6v-12.9h2.6l3.8,8.4v-8.4h2.6V449.1z"/>
				<path d="M139.2,438.4h-3.2v10.7h-2.6v-10.7h-3.1v-2.2h8.9V438.4z"/>
				<path d="M145.8,446.4h-3.5l-0.7,2.6h-2.7l4-12.9h2.4l4,12.9h-2.8L145.8,446.4z M142.8,444.3h2.4l-1.2-4.6L142.8,444.3z"/>
				<path d="M153.1,446.9h4.6v2.2h-7.1v-12.9h2.6V446.9z"/>
				<path d="M165.8,443.5h-4v3.4h4.8v2.2h-7.4v-12.9h7.4v2.2h-4.8v3h4V443.5z"/>
				<path d="M173.4,445.7c0-0.5-0.1-0.9-0.4-1.2c-0.3-0.3-0.8-0.5-1.5-0.8c-1.3-0.5-2.2-1.1-2.8-1.7s-0.8-1.4-0.8-2.3
					c0-1.1,0.4-2,1.2-2.6s1.7-1,2.9-1c0.8,0,1.5,0.2,2.1,0.5c0.6,0.3,1.1,0.8,1.4,1.4c0.3,0.6,0.5,1.3,0.5,2.1h-2.6
					c0-0.6-0.1-1.1-0.4-1.4c-0.3-0.3-0.6-0.5-1.1-0.5c-0.5,0-0.8,0.1-1.1,0.4c-0.3,0.3-0.4,0.6-0.4,1.1c0,0.4,0.1,0.7,0.4,1
					c0.3,0.3,0.8,0.6,1.5,0.9c1.3,0.5,2.2,1,2.7,1.7c0.6,0.7,0.9,1.5,0.9,2.5c0,1.1-0.4,2-1.1,2.6c-0.7,0.6-1.7,0.9-2.9,0.9
					c-0.8,0-1.6-0.2-2.3-0.5c-0.7-0.3-1.2-0.8-1.6-1.5c-0.4-0.6-0.6-1.4-0.6-2.3h2.6c0,0.7,0.1,1.3,0.4,1.6c0.3,0.3,0.8,0.5,1.4,0.5
					C173,447.1,173.4,446.7,173.4,445.7z"/>
			</g>
		</g>
	</g>
	<g>
		<circle class="st3" cx="471.1" cy="403.5" r="96.9"/>
		<rect x="374" y="352.5" class="st1" width="189.9" height="125.5"/>
		<g>
			<g class="st2">
				<path d="M429,360.5h-1.3v4.7h-2.6v-12.9h4.1c1.3,0,2.3,0.3,3,1c0.7,0.7,1.1,1.6,1.1,2.9c0,1.7-0.6,2.9-1.9,3.6l2.3,5.3v0.1h-2.8
					L429,360.5z M427.7,358.3h1.5c0.5,0,0.9-0.2,1.2-0.5c0.3-0.3,0.4-0.8,0.4-1.4c0-1.3-0.5-1.9-1.5-1.9h-1.5V358.3z"/>
				<path d="M441.8,359.6h-4v3.4h4.8v2.2h-7.4v-12.9h7.4v2.2h-4.8v3h4V359.6z"/>
				<path d="M446.6,360.7v4.5H444v-12.9h4.4c1.3,0,2.3,0.4,3,1.2c0.8,0.8,1.1,1.8,1.1,3.1c0,1.3-0.4,2.3-1.1,3
					c-0.7,0.7-1.8,1.1-3.1,1.1H446.6z M446.6,358.5h1.8c0.5,0,0.9-0.2,1.1-0.5c0.3-0.3,0.4-0.8,0.4-1.4c0-0.6-0.1-1.2-0.4-1.5
					c-0.3-0.4-0.6-0.6-1.1-0.6h-1.8V358.5z"/>
				<path d="M463.3,359.9c0,1.7-0.4,3.1-1.2,4c-0.8,1-1.9,1.4-3.4,1.4c-1.4,0-2.6-0.5-3.4-1.4c-0.8-0.9-1.2-2.3-1.3-4v-2.2
					c0-1.8,0.4-3.1,1.2-4.1c0.8-1,2-1.5,3.4-1.5c1.4,0,2.6,0.5,3.4,1.5c0.8,1,1.2,2.3,1.3,4.1V359.9z M460.7,357.8
					c0-1.2-0.2-2-0.5-2.6c-0.3-0.6-0.8-0.8-1.5-0.8c-0.7,0-1.2,0.3-1.5,0.8c-0.3,0.5-0.5,1.4-0.5,2.5v2.3c0,1.1,0.2,2,0.5,2.5
					s0.9,0.8,1.6,0.8c0.7,0,1.2-0.3,1.5-0.8c0.3-0.5,0.5-1.3,0.5-2.4V357.8z"/>
				<path d="M469.1,360.5h-1.3v4.7h-2.6v-12.9h4.1c1.3,0,2.3,0.3,3,1c0.7,0.7,1.1,1.6,1.1,2.9c0,1.7-0.6,2.9-1.9,3.6l2.3,5.3v0.1
					H471L469.1,360.5z M467.8,358.3h1.5c0.5,0,0.9-0.2,1.2-0.5c0.3-0.3,0.4-0.8,0.4-1.4c0-1.3-0.5-1.9-1.5-1.9h-1.5V358.3z"/>
				<path d="M483.1,354.5h-3.2v10.7h-2.6v-10.7h-3.1v-2.2h8.9V354.5z"/>
				<path d="M491.2,359.6h-4v3.4h4.8v2.2h-7.4v-12.9h7.4v2.2h-4.8v3h4V359.6z"/>
				<path d="M497.6,365.2v-12.9h3.4c1.5,0,2.7,0.5,3.6,1.4s1.3,2.3,1.4,3.9v2.1c0,1.7-0.4,3-1.3,4c-0.9,1-2.1,1.4-3.7,1.4H497.6z
					 M500.2,354.5v8.5h0.8c0.9,0,1.5-0.2,1.8-0.7c0.4-0.5,0.5-1.2,0.6-2.4v-2.2c0-1.2-0.2-2-0.5-2.5s-0.9-0.7-1.7-0.7H500.2z"/>
				<path d="M514.4,359.6h-4v3.4h4.8v2.2h-7.4v-12.9h7.4v2.2h-4.8v3h4V359.6z"/>
			</g>
			<g class="st2">
				<path d="M432.9,381v4.5h-2.6v-12.9h4.4c1.3,0,2.3,0.4,3,1.2c0.8,0.8,1.1,1.8,1.1,3.1s-0.4,2.3-1.1,3c-0.7,0.7-1.8,1.1-3.1,1.1
					H432.9z M432.9,378.8h1.8c0.5,0,0.9-0.2,1.1-0.5c0.3-0.3,0.4-0.8,0.4-1.4c0-0.6-0.1-1.2-0.4-1.5c-0.3-0.4-0.6-0.6-1.1-0.6h-1.8
					V378.8z"/>
				<path d="M447.2,380h-4v3.4h4.8v2.2h-7.4v-12.9h7.4v2.2h-4.8v3h4V380z"/>
				<path d="M453.3,380.8h-1.3v4.7h-2.6v-12.9h4.1c1.3,0,2.3,0.3,3,1c0.7,0.7,1.1,1.6,1.1,2.9c0,1.7-0.6,2.9-1.9,3.6l2.3,5.3v0.1
					h-2.8L453.3,380.8z M452.1,378.7h1.5c0.5,0,0.9-0.2,1.2-0.5c0.3-0.3,0.4-0.8,0.4-1.4c0-1.3-0.5-1.9-1.5-1.9h-1.5V378.7z"/>
				<path d="M464.9,382.1c0-0.5-0.1-0.9-0.4-1.2c-0.3-0.3-0.8-0.5-1.5-0.8c-1.3-0.5-2.2-1.1-2.8-1.7c-0.6-0.7-0.8-1.4-0.8-2.3
					c0-1.1,0.4-2,1.2-2.6c0.8-0.7,1.7-1,2.9-1c0.8,0,1.5,0.2,2.1,0.5c0.6,0.3,1.1,0.8,1.4,1.4c0.3,0.6,0.5,1.3,0.5,2.1h-2.6
					c0-0.6-0.1-1.1-0.4-1.4c-0.3-0.3-0.6-0.5-1.1-0.5c-0.5,0-0.8,0.1-1.1,0.4c-0.3,0.3-0.4,0.6-0.4,1.1c0,0.4,0.1,0.7,0.4,1
					s0.8,0.6,1.5,0.9c1.3,0.5,2.2,1,2.7,1.7c0.6,0.7,0.9,1.5,0.9,2.5c0,1.1-0.4,2-1.1,2.6c-0.7,0.6-1.7,0.9-2.9,0.9
					c-0.8,0-1.6-0.2-2.3-0.5c-0.7-0.3-1.2-0.8-1.6-1.5c-0.4-0.6-0.6-1.4-0.6-2.3h2.6c0,0.7,0.1,1.3,0.4,1.6c0.3,0.3,0.8,0.5,1.4,0.5
					C464.4,383.6,464.9,383.1,464.9,382.1z"/>
				<path d="M478.3,380.2c0,1.7-0.4,3.1-1.2,4c-0.8,1-1.9,1.4-3.4,1.4c-1.4,0-2.6-0.5-3.4-1.4c-0.8-0.9-1.2-2.3-1.3-4v-2.2
					c0-1.8,0.4-3.1,1.2-4.1c0.8-1,2-1.5,3.4-1.5c1.4,0,2.6,0.5,3.4,1.5c0.8,1,1.2,2.3,1.3,4.1V380.2z M475.7,378.1
					c0-1.2-0.2-2-0.5-2.6c-0.3-0.6-0.8-0.8-1.5-0.8c-0.7,0-1.2,0.3-1.5,0.8c-0.3,0.5-0.5,1.4-0.5,2.5v2.3c0,1.1,0.2,2,0.5,2.5
					c0.3,0.5,0.9,0.8,1.6,0.8c0.7,0,1.2-0.3,1.5-0.8c0.3-0.5,0.5-1.3,0.5-2.4V378.1z"/>
				<path d="M489.1,385.5h-2.6l-3.8-8.4v8.4h-2.6v-12.9h2.6l3.8,8.4v-8.4h2.6V385.5z"/>
				<path d="M497.5,382.9H494l-0.7,2.6h-2.7l4-12.9h2.4l4,12.9h-2.8L497.5,382.9z M494.5,380.7h2.4l-1.2-4.6L494.5,380.7z"/>
				<path d="M507.6,382.1c0-0.5-0.1-0.9-0.4-1.2c-0.3-0.3-0.8-0.5-1.5-0.8c-1.3-0.5-2.2-1.1-2.8-1.7c-0.6-0.7-0.8-1.4-0.8-2.3
					c0-1.1,0.4-2,1.2-2.6c0.8-0.7,1.7-1,2.9-1c0.8,0,1.5,0.2,2.1,0.5c0.6,0.3,1.1,0.8,1.4,1.4c0.3,0.6,0.5,1.3,0.5,2.1h-2.6
					c0-0.6-0.1-1.1-0.4-1.4c-0.3-0.3-0.6-0.5-1.1-0.5c-0.5,0-0.8,0.1-1.1,0.4c-0.3,0.3-0.4,0.6-0.4,1.1c0,0.4,0.1,0.7,0.4,1
					c0.3,0.3,0.8,0.6,1.5,0.9c1.3,0.5,2.2,1,2.7,1.7c0.6,0.7,0.9,1.5,0.9,2.5c0,1.1-0.4,2-1.1,2.6c-0.7,0.6-1.7,0.9-2.9,0.9
					c-0.8,0-1.6-0.2-2.3-0.5c-0.7-0.3-1.2-0.8-1.6-1.5c-0.4-0.6-0.6-1.4-0.6-2.3h2.6c0,0.7,0.1,1.3,0.4,1.6c0.3,0.3,0.8,0.5,1.4,0.5
					C507.1,383.6,507.6,383.1,507.6,382.1z"/>
			</g>
			<g class="st2">
				<path d="M426.2,433.7l2.4,9.3l2.4-9.3h3.4v12.9h-2.6V443l0.2-5.4l-2.6,8.8h-1.8l-2.6-8.8l0.2,5.4v3.5h-2.6v-12.9H426.2z"/>
				<path d="M443.1,441h-4v3.4h4.8v2.2h-7.4v-12.9h7.4v2.2h-4.8v3h4V441z"/>
				<path d="M454.3,446.5h-2.6l-3.8-8.4v8.4h-2.6v-12.9h2.6l3.8,8.4v-8.4h2.6V446.5z"/>
				<path d="M461.8,443.2c0-0.5-0.1-0.9-0.4-1.2c-0.3-0.3-0.8-0.5-1.5-0.8c-1.3-0.5-2.2-1.1-2.8-1.7c-0.6-0.7-0.8-1.4-0.8-2.3
					c0-1.1,0.4-2,1.2-2.6c0.8-0.7,1.7-1,2.9-1c0.8,0,1.5,0.2,2.1,0.5c0.6,0.3,1.1,0.8,1.4,1.4c0.3,0.6,0.5,1.3,0.5,2.1h-2.6
					c0-0.6-0.1-1.1-0.4-1.4s-0.6-0.5-1.1-0.5c-0.5,0-0.8,0.1-1.1,0.4c-0.3,0.3-0.4,0.6-0.4,1.1c0,0.4,0.1,0.7,0.4,1
					c0.3,0.3,0.8,0.6,1.5,0.9c1.3,0.5,2.2,1,2.7,1.7c0.6,0.7,0.9,1.5,0.9,2.5c0,1.1-0.4,2-1.1,2.6c-0.7,0.6-1.7,0.9-2.9,0.9
					c-0.8,0-1.6-0.2-2.3-0.5c-0.7-0.3-1.2-0.8-1.6-1.5c-0.4-0.6-0.6-1.4-0.6-2.3h2.6c0,0.7,0.1,1.3,0.4,1.6c0.3,0.3,0.8,0.5,1.4,0.5
					C461.4,444.6,461.8,444.1,461.8,443.2z"/>
				<path d="M472.3,443.9h-3.5l-0.7,2.6h-2.7l4-12.9h2.4l4,12.9H473L472.3,443.9z M469.3,441.7h2.4l-1.2-4.6L469.3,441.7z"/>
				<path d="M481.2,433.7h2.6v8.9c0,1.2-0.3,2.2-1,3c-0.7,0.8-1.6,1.1-2.7,1.1c-1.2,0-2.1-0.3-2.7-1.1c-0.7-0.7-1-1.7-1-2.9h2.6
					c0,1.2,0.4,1.8,1.1,1.8c0.8,0,1.1-0.7,1.1-2.1V433.7z"/>
				<path d="M492.5,441h-4v3.4h4.8v2.2h-7.4v-12.9h7.4v2.2h-4.8v3h4V441z"/>
				<path d="M498.6,441.8h-1.3v4.7h-2.6v-12.9h4.1c1.3,0,2.3,0.3,3,1c0.7,0.7,1.1,1.6,1.1,2.9c0,1.7-0.6,2.9-1.9,3.6l2.3,5.3v0.1
					h-2.8L498.6,441.8z M497.3,439.7h1.5c0.5,0,0.9-0.2,1.2-0.5c0.3-0.3,0.4-0.8,0.4-1.4c0-1.3-0.5-1.9-1.5-1.9h-1.5V439.7z"/>
				<path d="M507.4,446.5h-2.6v-12.9h2.6V446.5z M506.6,430.2h2.8l-2.5,2.7h-2.1L506.6,430.2z"/>
				<path d="M515.9,443.9h-3.5l-0.7,2.6h-2.7l4-12.9h2.4l4,12.9h-2.8L515.9,443.9z M512.9,441.7h2.4l-1.2-4.6L512.9,441.7z"/>
			</g>
		</g>
	</g>
</g>
<g>
	<rect x="240.7" y="104.1" class="st1" width="114" height="62"/>
	<circle class="st4" cx="297.6" cy="111.2" r="96.9"/>
	<circle class="st5" cx="297.6" cy="111.2" r="57.1"/>
	<g class="st2">
		<path d="M280.3,113.4c0-0.5-0.1-0.9-0.4-1.2c-0.3-0.3-0.8-0.5-1.5-0.8c-1.3-0.5-2.2-1.1-2.8-1.7c-0.6-0.7-0.8-1.4-0.8-2.3
			c0-1.1,0.4-2,1.2-2.6c0.8-0.7,1.7-1,2.9-1c0.8,0,1.5,0.2,2.1,0.5c0.6,0.3,1.1,0.8,1.4,1.4c0.3,0.6,0.5,1.3,0.5,2.1h-2.6
			c0-0.6-0.1-1.1-0.4-1.4c-0.3-0.3-0.6-0.5-1.1-0.5c-0.5,0-0.8,0.1-1.1,0.4c-0.3,0.3-0.4,0.6-0.4,1.1c0,0.4,0.1,0.7,0.4,1
			c0.3,0.3,0.8,0.6,1.5,0.9c1.3,0.5,2.2,1,2.7,1.7c0.6,0.7,0.9,1.5,0.9,2.5c0,1.1-0.4,2-1.1,2.6c-0.7,0.6-1.7,0.9-2.9,0.9
			c-0.8,0-1.6-0.2-2.3-0.5c-0.7-0.3-1.2-0.8-1.6-1.5c-0.4-0.6-0.6-1.4-0.6-2.3h2.6c0,0.7,0.1,1.3,0.4,1.6c0.3,0.3,0.8,0.5,1.4,0.5
			C279.8,114.9,280.3,114.4,280.3,113.4z"/>
		<path d="M293.6,111.5c0,1.7-0.4,3.1-1.2,4c-0.8,1-1.9,1.4-3.4,1.4c-1.4,0-2.6-0.5-3.4-1.4c-0.8-0.9-1.2-2.3-1.3-4v-2.2
			c0-1.8,0.4-3.1,1.2-4.1c0.8-1,2-1.5,3.4-1.5c1.4,0,2.6,0.5,3.4,1.5c0.8,1,1.2,2.3,1.3,4.1V111.5z M291,109.4c0-1.2-0.2-2-0.5-2.6
			c-0.3-0.6-0.8-0.8-1.5-0.8c-0.7,0-1.2,0.3-1.5,0.8c-0.3,0.5-0.5,1.4-0.5,2.5v2.3c0,1.1,0.2,2,0.5,2.5s0.9,0.8,1.6,0.8
			c0.7,0,1.2-0.3,1.5-0.8c0.3-0.5,0.5-1.3,0.5-2.4V109.4z"/>
		<path d="M298.1,114.7h4.6v2.2h-7.1V104h2.6V114.7z"/>
		<path d="M310.5,114.2h-3.5l-0.7,2.6h-2.7l4-12.9h2.4l4,12.9h-2.8L310.5,114.2z M307.5,112h2.4l-1.2-4.6L307.5,112z"/>
		<path d="M319,112.1h-1.3v4.7h-2.6V104h4.1c1.3,0,2.3,0.3,3,1c0.7,0.7,1.1,1.6,1.1,2.9c0,1.7-0.6,2.9-1.9,3.6l2.3,5.3v0.1h-2.8
			L319,112.1z M317.7,110h1.5c0.5,0,0.9-0.2,1.2-0.5s0.4-0.8,0.4-1.4c0-1.3-0.5-1.9-1.5-1.9h-1.5V110z"/>
	</g>
</g>
<g>
	<path class="st6" d="M420.5,259.1L312.1,442.6c-7.9,13.3-27.3,13.2-35-0.3L174.9,262.9c-10.1-17.6,2.7-39.4,22.9-39.4h202.3
		C418.5,223.5,429.8,243.4,420.5,259.1z"/>
	<rect x="143.9" y="260" class="st1" width="307.4" height="137.6"/>
	<g class="st2">
		<path d="M246.3,260.3c0-0.7-0.2-1.2-0.5-1.6c-0.4-0.4-1-0.7-1.9-1.1c-1.7-0.6-2.9-1.4-3.6-2.3c-0.7-0.9-1.1-1.9-1.1-3.1
			c0-1.4,0.5-2.6,1.5-3.4c1-0.9,2.3-1.3,3.8-1.3c1,0,2,0.2,2.8,0.7c0.8,0.4,1.4,1.1,1.9,1.8c0.4,0.8,0.7,1.7,0.7,2.7h-3.4
			c0-0.8-0.2-1.4-0.5-1.8c-0.3-0.4-0.8-0.6-1.5-0.6c-0.6,0-1.1,0.2-1.4,0.5c-0.3,0.4-0.5,0.8-0.5,1.4c0,0.5,0.2,0.9,0.6,1.3
			c0.4,0.4,1,0.8,2,1.2c1.6,0.6,2.8,1.3,3.6,2.2c0.7,0.9,1.1,2,1.1,3.3c0,1.5-0.5,2.6-1.4,3.4c-0.9,0.8-2.2,1.2-3.8,1.2
			c-1.1,0-2.1-0.2-3-0.7c-0.9-0.4-1.6-1.1-2.1-1.9c-0.5-0.8-0.8-1.8-0.8-3h3.4c0,1,0.2,1.7,0.6,2.1c0.4,0.4,1,0.7,1.9,0.7
			C245.7,262.2,246.3,261.6,246.3,260.3z"/>
		<path d="M255.5,264.7h-3.4v-16.9h3.4V264.7z"/>
		<path d="M265.5,260.3c0-0.7-0.2-1.2-0.5-1.6c-0.4-0.4-1-0.7-1.9-1.1c-1.7-0.6-2.9-1.4-3.6-2.3c-0.7-0.9-1.1-1.9-1.1-3.1
			c0-1.4,0.5-2.6,1.5-3.4c1-0.9,2.3-1.3,3.8-1.3c1,0,2,0.2,2.8,0.7c0.8,0.4,1.4,1.1,1.9,1.8c0.4,0.8,0.7,1.7,0.7,2.7h-3.4
			c0-0.8-0.2-1.4-0.5-1.8c-0.3-0.4-0.8-0.6-1.5-0.6c-0.6,0-1.1,0.2-1.4,0.5c-0.3,0.4-0.5,0.8-0.5,1.4c0,0.5,0.2,0.9,0.6,1.3
			c0.4,0.4,1,0.8,2,1.2c1.6,0.6,2.8,1.3,3.6,2.2c0.7,0.9,1.1,2,1.1,3.3c0,1.5-0.5,2.6-1.4,3.4c-0.9,0.8-2.2,1.2-3.8,1.2
			c-1.1,0-2.1-0.2-3-0.7c-0.9-0.4-1.6-1.1-2.1-1.9c-0.5-0.8-0.8-1.8-0.8-3h3.4c0,1,0.2,1.7,0.6,2.1c0.4,0.4,1,0.7,1.9,0.7
			C264.9,262.2,265.5,261.6,265.5,260.3z"/>
		<path d="M282.1,250.7H278v14h-3.4v-14h-4.1v-2.8h11.7V250.7z"/>
		<path d="M292.8,257.4h-5.3v4.5h6.3v2.8h-9.7v-16.9h9.7v2.8h-6.3v4h5.3V257.4z"/>
		<path d="M300.2,247.9l3.2,12.2l3.2-12.2h4.4v16.9h-3.4v-4.6l0.3-7l-3.4,11.6h-2.3l-3.4-11.6l0.3,7v4.6h-3.4v-16.9H300.2z"/>
		<path d="M322,261.3h-4.6l-0.9,3.5h-3.6l5.3-16.9h3.1l5.3,16.9h-3.6L322,261.3z M318.1,258.5h3.2l-1.6-6L318.1,258.5z"/>
		<path d="M333.6,264.7v-16.9h4.5c2,0,3.5,0.6,4.7,1.9c1.2,1.3,1.8,3,1.8,5.1v2.7c0,2.2-0.6,4-1.8,5.2c-1.2,1.3-2.8,1.9-4.8,1.9
			H333.6z M337,250.7v11.2h1c1.1,0,1.9-0.3,2.4-0.9c0.5-0.6,0.7-1.6,0.7-3.1V255c0-1.6-0.2-2.7-0.7-3.3c-0.4-0.6-1.2-0.9-2.2-1H337z
			"/>
		<path d="M355.7,257.4h-5.3v4.5h6.3v2.8H347v-16.9h9.7v2.8h-6.3v4h5.3V257.4z"/>
	</g>
	<g class="st2">
		<path d="M232.3,284.9c-0.1,1.9-0.6,3.4-1.6,4.4s-2.4,1.5-4.2,1.5c-1.9,0-3.4-0.6-4.4-1.9c-1-1.3-1.5-3-1.5-5.4v-2.8
			c0-2.3,0.5-4.1,1.6-5.4c1.1-1.3,2.5-1.9,4.4-1.9c1.8,0,3.2,0.5,4.2,1.5c1,1,1.5,2.5,1.6,4.4h-3.4c0-1.2-0.2-2-0.5-2.5
			c-0.3-0.5-1-0.7-1.8-0.7c-0.9,0-1.6,0.3-1.9,1c-0.4,0.6-0.6,1.7-0.6,3.1v3.2c0,1.7,0.2,2.8,0.6,3.5c0.4,0.6,1,0.9,1.9,0.9
			c0.9,0,1.5-0.2,1.9-0.7c0.3-0.4,0.5-1.2,0.6-2.4H232.3z"/>
		<path d="M246.3,283.6c0,2.3-0.5,4-1.6,5.3c-1.1,1.3-2.6,1.9-4.5,1.9c-1.9,0-3.4-0.6-4.5-1.9c-1.1-1.2-1.6-3-1.6-5.2v-2.9
			c0-2.3,0.5-4.1,1.6-5.4c1.1-1.3,2.6-2,4.5-2c1.9,0,3.4,0.6,4.4,1.9c1.1,1.3,1.6,3.1,1.6,5.4V283.6z M242.9,280.8
			c0-1.5-0.2-2.7-0.6-3.4s-1.1-1.1-2-1.1c-0.9,0-1.6,0.4-2,1.1c-0.4,0.7-0.7,1.8-0.7,3.3v3c0,1.5,0.2,2.6,0.7,3.3c0.4,0.7,1.1,1,2,1
			c0.9,0,1.5-0.3,2-1c0.4-0.7,0.7-1.7,0.7-3.2V280.8z"/>
		<path d="M253.2,273.6l3.2,12.2l3.2-12.2h4.4v16.9h-3.4v-4.6l0.3-7l-3.4,11.6h-2.3l-3.4-11.6l0.3,7v4.6h-3.4v-16.9H253.2z"/>
		<path d="M277.7,273.6v11.7c0,1.8-0.5,3.1-1.4,4c-0.9,0.9-2.3,1.4-4.1,1.4c-1.8,0-3.2-0.5-4.1-1.4c-1-0.9-1.4-2.3-1.4-4.1v-11.6
			h3.4v11.6c0,1,0.2,1.6,0.5,2.1c0.3,0.4,0.9,0.6,1.7,0.6s1.4-0.2,1.7-0.6c0.3-0.4,0.5-1.1,0.5-2v-11.7H277.7z"/>
		<path d="M292.1,290.5h-3.4l-5-11.1v11.1h-3.4v-16.9h3.4l5,11.1v-11.1h3.4V290.5z"/>
		<path d="M298.4,290.5H295v-16.9h3.4V290.5z"/>
		<path d="M312.7,284.9c-0.1,1.9-0.6,3.4-1.6,4.4s-2.4,1.5-4.2,1.5c-1.9,0-3.4-0.6-4.4-1.9c-1-1.3-1.5-3-1.5-5.4v-2.8
			c0-2.3,0.5-4.1,1.6-5.4c1.1-1.3,2.5-1.9,4.4-1.9c1.8,0,3.2,0.5,4.2,1.5c1,1,1.5,2.5,1.6,4.4h-3.4c0-1.2-0.2-2-0.5-2.5
			c-0.3-0.5-1-0.7-1.8-0.7c-0.9,0-1.6,0.3-1.9,1c-0.4,0.6-0.6,1.7-0.6,3.1v3.2c0,1.7,0.2,2.8,0.6,3.5c0.4,0.6,1,0.9,1.9,0.9
			c0.9,0,1.5-0.2,1.9-0.7c0.3-0.4,0.5-1.2,0.6-2.4H312.7z"/>
		<path d="M322.8,287.1h-4.6l-0.9,3.5h-3.6l5.3-16.9h3.1l5.3,16.9h-3.6L322.8,287.1z M318.9,284.2h3.2l-1.6-6L318.9,284.2z"/>
		<path d="M340.1,284.9c-0.1,1.9-0.6,3.4-1.6,4.4s-2.4,1.5-4.2,1.5c-1.9,0-3.4-0.6-4.4-1.9c-1-1.3-1.5-3-1.5-5.4v-2.8
			c0-2.3,0.5-4.1,1.6-5.4c1.1-1.3,2.5-1.9,4.4-1.9c1.8,0,3.2,0.5,4.2,1.5c1,1,1.5,2.5,1.6,4.4h-3.4c0-1.2-0.2-2-0.5-2.5
			c-0.3-0.5-1-0.7-1.8-0.7c-0.9,0-1.6,0.3-1.9,1c-0.4,0.6-0.6,1.7-0.6,3.1v3.2c0,1.7,0.2,2.8,0.6,3.5c0.4,0.6,1,0.9,1.9,0.9
			c0.9,0,1.5-0.2,1.9-0.7c0.3-0.4,0.5-1.2,0.6-2.4H340.1z"/>
		<path d="M345.8,290.5h-3.4v-16.9h3.4V290.5z"/>
		<path d="M360.5,283.6c0,2.3-0.5,4-1.6,5.3c-1.1,1.3-2.6,1.9-4.5,1.9c-1.9,0-3.4-0.6-4.5-1.9c-1.1-1.2-1.6-3-1.6-5.2v-2.9
			c0-2.3,0.5-4.1,1.6-5.4c1.1-1.3,2.6-2,4.5-2c1.9,0,3.4,0.6,4.4,1.9c1.1,1.3,1.6,3.1,1.6,5.4V283.6z M357.1,280.8
			c0-1.5-0.2-2.7-0.6-3.4c-0.4-0.7-1.1-1.1-2-1.1c-0.9,0-1.6,0.4-2,1.1c-0.4,0.7-0.7,1.8-0.7,3.3v3c0,1.5,0.2,2.6,0.7,3.3
			c0.4,0.7,1.1,1,2,1c0.9,0,1.5-0.3,2-1c0.4-0.7,0.7-1.7,0.7-3.2V280.8z M355.1,269.1h3.7l-3.2,3.6h-2.7L355.1,269.1z"/>
		<path d="M374.7,290.5h-3.4l-5-11.1v11.1h-3.4v-16.9h3.4l5,11.1v-11.1h3.4V290.5z"/>
	</g>
	<g class="st2">
		<path d="M249.7,312.8h-4.6l-0.9,3.5h-3.6l5.3-16.9h3.1l5.3,16.9h-3.6L249.7,312.8z M245.8,310h3.2l-1.6-6L245.8,310z"/>
		<path d="M266.6,299.4v11.7c0,1.8-0.5,3.1-1.4,4c-0.9,0.9-2.3,1.4-4.1,1.4c-1.8,0-3.2-0.5-4.1-1.4c-1-0.9-1.4-2.3-1.4-4.1v-11.6
			h3.4V311c0,1,0.2,1.6,0.5,2.1c0.3,0.4,0.9,0.6,1.7,0.6c0.8,0,1.4-0.2,1.7-0.6c0.3-0.4,0.5-1.1,0.5-2v-11.7H266.6z"/>
		<path d="M280.1,302.2h-4.2v14h-3.4v-14h-4.1v-2.8h11.7V302.2z"/>
		<path d="M293.6,309.3c0,2.3-0.5,4-1.6,5.3c-1.1,1.3-2.6,1.9-4.5,1.9c-1.9,0-3.4-0.6-4.5-1.9c-1.1-1.2-1.6-3-1.6-5.2v-2.9
			c0-2.3,0.5-4.1,1.6-5.4c1.1-1.3,2.6-2,4.5-2c1.9,0,3.4,0.6,4.4,1.9c1.1,1.3,1.6,3.1,1.6,5.4V309.3z M290.2,306.5
			c0-1.5-0.2-2.7-0.6-3.4s-1.1-1.1-2-1.1c-0.9,0-1.6,0.4-2,1.1c-0.4,0.7-0.7,1.8-0.7,3.3v3c0,1.5,0.2,2.6,0.7,3.3c0.4,0.7,1.1,1,2,1
			c0.9,0,1.5-0.3,2-1c0.4-0.7,0.7-1.7,0.7-3.2V306.5z M288.2,294.9h3.7l-3.2,3.6h-2.7L288.2,294.9z"/>
		<path d="M307.8,316.3h-3.4l-5-11.1v11.1H296v-16.9h3.4l5,11.1v-11.1h3.4V316.3z"/>
		<path d="M322.4,309.3c0,2.3-0.5,4-1.6,5.3c-1.1,1.3-2.6,1.9-4.5,1.9c-1.9,0-3.4-0.6-4.5-1.9c-1.1-1.2-1.6-3-1.6-5.2v-2.9
			c0-2.3,0.5-4.1,1.6-5.4c1.1-1.3,2.6-2,4.5-2c1.9,0,3.4,0.6,4.4,1.9c1.1,1.3,1.6,3.1,1.6,5.4V309.3z M319,306.5
			c0-1.5-0.2-2.7-0.6-3.4c-0.4-0.7-1.1-1.1-2-1.1c-0.9,0-1.6,0.4-2,1.1c-0.4,0.7-0.7,1.8-0.7,3.3v3c0,1.5,0.2,2.6,0.7,3.3
			c0.4,0.7,1.1,1,2,1c0.9,0,1.5-0.3,2-1c0.4-0.7,0.7-1.7,0.7-3.2V306.5z"/>
		<path d="M329.3,299.4l3.2,12.2l3.2-12.2h4.4v16.9h-3.4v-4.6l0.3-7l-3.4,11.6h-2.3l-3.4-11.6l0.3,7v4.6h-3.4v-16.9H329.3z"/>
		<path d="M354.8,309.3c0,2.3-0.5,4-1.6,5.3c-1.1,1.3-2.6,1.9-4.5,1.9c-1.9,0-3.4-0.6-4.5-1.9c-1.1-1.2-1.6-3-1.6-5.2v-2.9
			c0-2.3,0.5-4.1,1.6-5.4c1.1-1.3,2.6-2,4.5-2c1.9,0,3.4,0.6,4.4,1.9c1.1,1.3,1.6,3.1,1.6,5.4V309.3z M351.3,306.5
			c0-1.5-0.2-2.7-0.6-3.4s-1.1-1.1-2-1.1c-0.9,0-1.6,0.4-2,1.1c-0.4,0.7-0.7,1.8-0.7,3.3v3c0,1.5,0.2,2.6,0.7,3.3c0.4,0.7,1.1,1,2,1
			c0.9,0,1.5-0.3,2-1c0.4-0.7,0.7-1.7,0.7-3.2V306.5z"/>
	</g>
	<g>
		<line class="st7" x1="297.8" y1="363.1" x2="297.8" y2="401.2"/>
		<path class="st7" d="M317.1,378.6c4.1-4.5,6.4-10.5,6.4-17.2c0-14.3-11.6-26-26-26c-14.3,0-26,11.6-26,26c0,6.6,2.5,12.5,6.4,17.2
			"/>
		<path class="st7" d="M284.5,372.5c-2.5-3.1-4.1-6.9-4.1-11.1c0-9.6,7.8-17.3,17.3-17.3s17.3,7.8,17.3,17.3c0,4.2-1.5,8.1-4.1,11.1
			"/>
		<path class="st7" d="M311,372.5c2.5-3.1,4.1-6.9,4.1-11.1c0-9.6-7.8-17.3-17.3-17.3c-9.5,0-17.3,7.8-17.3,17.3
			c0,4.2,1.5,8.1,4.1,11.1"/>
		<path class="st7" d="M290.7,366.5c-1-1.5-1.7-3.2-1.7-5.1c0-4.7,3.8-8.7,8.7-8.7c4.7,0,8.7,3.8,8.7,8.7c0,1.9-0.7,3.6-1.7,5.1"/>
		<path class="st7" d="M304.7,366.5c1-1.5,1.7-3.2,1.7-5.1c0-4.7-3.8-8.7-8.7-8.7c-4.7,0-8.7,3.8-8.7,8.7c0,1.9,0.7,3.6,1.7,5.1"/>
		<path class="st8" d="M297.8,359.7"/>
		<circle class="st9" cx="297.8" cy="361.4" r="1.7"/>
	</g>
</g>
</svg>
