<?xml version="1.0" encoding="utf-8"?>
<!-- Generator: Adobe Illustrator 16.0.4, SVG Export Plug-In . SVG Version: 6.00 Build 0)  -->
<!DOCTYPE svg PUBLIC "-//W3C//DTD SVG 1.1//EN" "http://www.w3.org/Graphics/SVG/1.1/DTD/svg11.dtd">
<svg version="1.1" xmlns="http://www.w3.org/2000/svg" xmlns:xlink="http://www.w3.org/1999/xlink" x="0px" y="0px" width="682px"
	 height="154px" viewBox="0 0 682 154" enable-background="new 0 0 682 154" xml:space="preserve">
<g id="Capa_1">
</g>
<g id="editables">
</g>
<g id="colores">
</g>
<g id="Capa_4" display="none">
</g>
<g id="Capa_5">
	<g>
		<path fill="#37262E" d="M574.324,46.269c0,16.125-13.118,29.243-29.243,29.243c-0.39,0-15.87-0.026-15.87-0.026
			c0.008,0.004,0.016,0.01,0.023,0.014h-31.988v-44h-0.023v-9.166c0-2.94,2.393-5.333,5.333-5.333c0,0,24.608-0.004,26.763-0.006
			c-0.004,0.002-0.007,0.004-0.01,0.006h14.61c0,0,0.772,0.024,1.162,0.024c0.192,0,0.383,0.011,0.574,0.015
			c0.266,0.13,0.561,0.21,0.876,0.21h2.111C563.093,19.013,574.324,31.35,574.324,46.269z M667.755,4.477
			c-5.257,0-9.638,3.786-10.58,8.772H548.896c-1.253-0.144-2.524-0.225-3.815-0.225c-0.517,0-41.382-0.041-41.382-0.041
			c-0.151,0-0.298,0.021-0.439,0.052c-0.233-0.017-0.467-0.035-0.704-0.035c-5.154,0-9.333,4.179-9.333,9.333
			c0,0.348,0.022,0.689,0.06,1.027c-0.021,0.117-0.036,0.235-0.036,0.357v51.781h-6.59c-0.969-4.245-4.448-7.541-8.794-8.234
			c-2.775-37.683-21.554-53.601-44.399-53.601c-21.599,0-41.519,14.144-44.396,53.459c-4.535,0.573-8.193,3.975-9.158,8.376h-16.613
			c10.362-5.63,17.397-16.609,17.397-29.23c0-18.359-14.885-33.244-33.243-33.244c-0.48,0-40.428,0.01-40.428,0.01
			c-4.834,0.352-8.618,4.344-8.618,9.268c0,0.187,0.01,26.659,0.021,53.197h-18.547c-0.776-4.837-4.776-8.605-9.726-9.017
			c-4.87-20.812-23.567-36.362-45.842-36.362c-22.284,0-40.989,15.564-45.849,36.39c-4.713,0.524-8.515,4.096-9.384,8.699h-58.212
			V34.916h-0.015l0.015-12.709h-0.005c0.069-2.881,2.423-5.207,5.32-5.207c0.296,0,63.476,0.041,63.476,0.041c1.104,0,2-0.896,2-2
			s-0.896-2-2-2c0,0-63.15-0.041-63.476-0.041c-5.154,0-9.333,4.179-9.333,9.333c0,0.106,0.015,88.681,0.018,104.969
			c-1.007,0.193-1.97,0.511-2.857,0.962L71.283,83.155c-0.839-1.388-1.768-2.73-2.964-3.815
			c16.761-1.703,29.843-15.86,29.843-33.071c0-18.359-14.885-33.244-33.243-33.244c-0.517,0-41.382-0.041-41.382-0.041
			c-0.151,0-0.298,0.021-0.439,0.052C22.864,13.019,22.631,13,22.394,13c-5.154,0-9.333,4.179-9.333,9.333
			c0,0.348,0.022,0.689,0.06,1.027c-0.021,0.117-0.036,0.235-0.036,0.357v103.516c-5.02,0.914-8.84,5.309-8.84,10.589
			c0,5.94,4.832,10.772,10.772,10.772s10.772-4.832,10.772-10.772c0-5.233-3.751-9.602-8.705-10.568V79.499h32.609h3.782h5.291
			c0,0,0.215-0.062,0.324-0.062c3.772,0,6.843,2.562,8.675,5.62l4.879,6.837c0.002-0.013,0.006-0.024,0.008-0.037l28.186,38.852
			c-1.701,1.904-2.745,4.408-2.745,7.158c0,5.94,4.832,10.772,10.772,10.772c5.256,0,9.638-3.786,10.579-8.772h60.212
			c1.104,0,2-0.896,2-2s-0.896-2-2-2h-60.208c-0.819-4.337-4.245-7.76-8.583-8.579V79.209h58.212
			c0.869,4.604,4.671,8.175,9.384,8.699c4.859,20.825,23.564,36.39,45.849,36.39c22.274,0,40.972-15.551,45.842-36.362
			c4.75-0.395,8.627-3.882,9.619-8.437h18.654c0.007,21.259-0.021,41.701-0.03,47.774c-5.031,0.904-8.864,5.305-8.864,10.593
			c0,5.94,4.832,10.772,10.772,10.772s10.772-4.832,10.772-10.772c0-5.225-3.739-9.588-8.681-10.564
			c0.01-6.039,0.039-26.513,0.03-47.803h44.624c0.134,0.002,0.266,0.013,0.4,0.013c0.168,0,0.334-0.011,0.502-0.013h31.845
			c0.753,4.718,4.572,8.422,9.35,8.99c3.034,37.197,21.397,52.264,44.317,52.264c25.832,0,41.48-18.983,44.301-52.224
			c4.655-0.697,8.339-4.378,9.041-9.03h6.441v47.734c-5.02,0.914-8.84,5.309-8.84,10.589c0,5.94,4.832,10.772,10.772,10.772
			s10.772-4.832,10.772-10.772c0-5.233-3.751-9.602-8.705-10.568V79.499h41.683c0,0,0.215-0.062,0.324-0.062
			c3.772,0,6.843,2.562,8.675,5.62l4.879,6.837c0.001-0.013,0.006-0.024,0.008-0.037L581,130.708
			c-1.701,1.904-2.745,4.408-2.745,7.158c0,5.94,4.832,10.772,10.771,10.772c5.941,0,10.773-4.832,10.773-10.772
			s-4.832-10.772-10.773-10.772c-1.747,0-3.396,0.428-4.856,1.17l-32.725-45.108c-0.839-1.388-1.768-2.73-2.964-3.815
			c16.76-1.703,29.843-15.86,29.843-33.071c0-12.47-6.871-23.331-17.029-29.02h59.03v110.038c-4.986,0.941-8.771,5.323-8.771,10.579
			c0,5.94,4.832,10.772,10.771,10.772c5.941,0,10.773-4.832,10.773-10.772c0-5.256-3.786-9.638-8.773-10.579V17.249h32.85
			c0.942,4.986,5.323,8.772,10.58,8.772c5.94,0,10.771-4.832,10.771-10.772S673.695,4.477,667.755,4.477z M21.789,137.822
			c0,3.734-3.038,6.772-6.772,6.772s-6.772-3.038-6.772-6.772s3.038-6.772,6.772-6.772S21.789,134.088,21.789,137.822z
			 M64.919,75.512c-0.39,0-0.776-0.015-1.162-0.029v0.003H49.049c0.008,0.004,0.016,0.01,0.023,0.014H17.084v-44h-0.023v-9.166
			c0-2.94,2.393-5.333,5.333-5.333c0,0,24.608-0.004,26.763-0.006c-0.004,0.002-0.007,0.004-0.01,0.006h14.61
			c0,0,0.772,0.024,1.162,0.024c16.125,0,29.243,13.119,29.243,29.244S81.044,75.512,64.919,75.512z M115.625,137.615
			c0.003,0.084,0.013,0.166,0.013,0.251s-0.01,0.167-0.013,0.251c-0.134,3.618-3.11,6.521-6.76,6.521
			c-3.734,0-6.772-3.038-6.772-6.772s3.038-6.772,6.772-6.772C112.515,131.094,115.491,133.997,115.625,137.615z M172.884,77.209
			c0-3.734,3.038-6.772,6.772-6.772s6.772,3.038,6.772,6.772s-3.038,6.772-6.772,6.772S172.884,80.943,172.884,77.209z
			 M224.31,120.298c-20.181,0-37.158-13.947-41.817-32.708c4.566-1.249,7.937-5.424,7.937-10.381s-3.37-9.132-7.937-10.381
			c4.659-18.761,21.637-32.708,41.817-32.708c6.704,0,13.051,1.547,18.714,4.291v27.27c-4.1-5.95-10.957-9.86-18.714-9.86
			c-12.524,0-22.714,10.189-22.714,22.714s10.189,22.714,22.714,22.714c7.757,0,14.614-3.91,18.714-9.86v8.861c0,1.104,0.896,2,2,2
			s2-0.896,2-2V40.615c9.402,5.86,16.396,15.238,19.119,26.283c-4.428,1.338-7.663,5.451-7.663,10.311s3.235,8.973,7.663,10.311
			C261.509,106.315,244.516,120.298,224.31,120.298z M243.023,78.534c0,10.319-8.395,18.714-18.714,18.714
			s-18.714-8.395-18.714-18.714S213.99,59.82,224.31,59.82S243.023,68.215,243.023,78.534z M269.252,83.981
			c-3.734,0-6.772-3.038-6.772-6.772s3.038-6.772,6.772-6.772s6.772,3.038,6.772,6.772S272.986,83.981,269.252,83.981z
			 M307.075,137.866c0,3.734-3.038,6.772-6.772,6.772s-6.772-3.038-6.772-6.772s3.038-6.772,6.772-6.772
			S307.075,134.132,307.075,137.866z M348.662,75.482h-0.059c-0.218,0.009-0.436,0.011-0.654,0.017h-1
			c-0.219-0.006-0.437-0.008-0.654-0.017h-14.721c0.011,0.006,0.021,0.011,0.033,0.017h-29.184
			c-0.011-26.571-0.021-53.077-0.021-53.197c0-2.891,2.284-5.208,5.157-5.287h41.102v0.041c15.564,0.639,28.03,13.494,28.03,29.213
			S364.227,74.842,348.662,75.482L348.662,75.482z M383.651,77.8c0-3.734,3.038-6.772,6.772-6.772s6.772,3.038,6.772,6.772
			s-3.038,6.772-6.772,6.772S383.651,81.534,383.651,77.8z M463.31,121.768c-6.971,9.943-17.013,14.985-29.847,14.985
			c-23.656,0-37.742-17.132-40.327-48.54c4.63-1.207,8.061-5.411,8.061-10.413c0-5.032-3.473-9.257-8.145-10.435
			c1.169-16.054,5.302-28.487,12.353-37.017c8.666-10.483,20.041-12.685,28.059-12.685c23.57,0,37.992,17.969,40.402,49.706
			c-4.839,1.056-8.475,5.368-8.475,10.52c0,5.11,3.578,9.391,8.359,10.49C472.534,102.248,468.991,113.663,463.31,121.768z
			 M476.163,84.662c-3.734,0-6.772-3.038-6.772-6.772s3.038-6.772,6.772-6.772s6.772,3.038,6.772,6.772
			S479.897,84.662,476.163,84.662z M589.026,131.094c3.735,0,6.773,3.038,6.773,6.772s-3.038,6.772-6.773,6.772
			c-3.733,0-6.771-3.038-6.771-6.772S585.293,131.094,589.026,131.094z M501.951,137.822c0,3.734-3.038,6.772-6.772,6.772
			s-6.772-3.038-6.772-6.772s3.038-6.772,6.772-6.772S501.951,134.088,501.951,137.822z M629.099,137.866
			c0,3.734-3.039,6.772-6.773,6.772s-6.771-3.038-6.771-6.772s3.037-6.772,6.771-6.772S629.099,134.132,629.099,137.866z
			 M667.755,22.021c-3.734,0-6.772-3.038-6.772-6.772s3.038-6.772,6.772-6.772s6.771,3.038,6.771,6.772
			S671.489,22.021,667.755,22.021z"/>
	</g>
</g>
<g id="specctr">
</g>
</svg>
