<?xml version="1.0" encoding="utf-8"?>
<!-- Generator: Adobe Illustrator 20.1.0, SVG Export Plug-In . SVG Version: 6.00 Build 0)  -->
<svg version="1.1" id="Capa_1" xmlns="http://www.w3.org/2000/svg" xmlns:xlink="http://www.w3.org/1999/xlink" x="0px" y="0px"
	 viewBox="0 0 595.3 595.3" style="enable-background:new 0 0 595.3 595.3;" xml:space="preserve">
<style type="text/css">
	.st0{fill:#FFAE00;stroke:#000000;stroke-width:8;stroke-miterlimit:10;}
	.st1{fill:none;stroke:#366EB5;stroke-miterlimit:10;}
	.st2{fill:none;stroke:#010202;stroke-miterlimit:10;}
	.st3{fill:#F6E81D;}
	.st4{fill:none;stroke:#E74220;stroke-miterlimit:10;}
	.st5{fill:none;}
	.st6{font-family:'Cera-Bold';}
	.st7{font-size:19px;}
	.st8{font-family:'Cera-Medium';}
	.st9{font-size:15px;}
	.st10{font-family:'HelveticaNeue-Bold';}
	.st11{font-size:2.2983px;}
</style>
<path class="st0" d="M406.8,273l-96,162.4c-7,11.8-24.2,11.7-31-0.3l-90.4-158.7c-8.9-15.6,2.4-34.9,20.3-34.9h179.1
	C405,241.5,415,259.1,406.8,273z"/>
<circle class="st1" cx="147.1" cy="401.4" r="85.8"/>
<circle class="st2" cx="297.6" cy="142.1" r="85.8"/>
<circle class="st3" cx="297.6" cy="142.1" r="50.5"/>
<circle class="st4" cx="448.2" cy="400.8" r="85.8"/>
<rect x="161.6" y="273.8" class="st5" width="272.1" height="121.8"/>
<text transform="matrix(1 0 0 1 245.1226 278.0105)" class="st6 st7">SISTEMA DE </text>
<text transform="matrix(1 0 0 1 223.2226 300.8105)" class="st6 st7">COMUNICACIÓN </text>
<text transform="matrix(1 0 0 1 242.9226 323.6105)" class="st6 st7">AUTÓNOMO</text>
<rect x="72.4" y="357.9" class="st5" width="149.4" height="106.5"/>
<text transform="matrix(1 0 0 1 88.7282 369.1742)" class="st8 st9">COMUNICACION</text>
<text transform="matrix(1 0 0 1 101.6282 387.1742)" class="st8 st9">LOCAL MESH</text>
<text transform="matrix(1 0 0 1 110.2282 423.1742)" class="st8 st9">SENSORES </text>
<text transform="matrix(1 0 0 1 98.5282 441.1742)" class="st8 st9">AMBIENTALES</text>
<rect x="363" y="355.7" class="st5" width="168.1" height="111.1"/>
<text transform="matrix(1 0 0 1 402.8948 366.9135)" class="st8 st9">REPORTE DE</text>
<text transform="matrix(1 0 0 1 409.0948 384.9135)" class="st8 st9">PERSONAS</text>
<text transform="matrix(1 0 0 1 403.4948 438.9135)" class="st8 st9">MENSAJERÍA</text>
<rect x="247.7" y="135.8" class="st5" width="100.9" height="54.9"/>
<text transform="matrix(1 0 0 1 274.4802 147.071)" class="st6 st9">SOLAR</text>
<path d="M303.7,356.7c4.3-3.7,4.7-10.2,1-14.4s-10.2-4.7-14.4-1c-4.3,3.7-4.7,10.2-1,14.4c0.3,0.4,0.7,0.7,1,1l-9.5,28.2
	c-0.4,1.3,0.3,2.6,1.5,3c0.2,0.1,0.5,0.1,0.8,0.1h27.8c1.3,0,2.4-1.1,2.4-2.4c0-0.3,0-0.5-0.1-0.8L303.7,356.7z M294.6,358.9
	c1.6,0.4,3.2,0.4,4.8,0l1.6,4.8h-8L294.6,358.9z M291.4,368.5h11.2l1.7,4.9h-14.6L291.4,368.5z M286.4,383.2l1.7-5h17.8l1.7,5H286.4
	z M316,342.3c2.5,4.1,2.5,9.2,0,13.3c-0.7,1.1-2.2,1.4-3.2,0.7c-0.1-0.1-0.3-0.2-0.4-0.3l-0.1-0.1c-0.7-0.8-0.9-1.9-0.3-2.8
	c1.5-2.5,1.5-5.6,0-8.1c-0.6-0.9-0.5-2.1,0.3-2.8l0.1-0.1c0.9-0.9,2.4-0.9,3.3,0C315.8,342,315.9,342.1,316,342.3z M322.7,362.6
	c-0.8,1-2.3,1.2-3.3,0.4c-0.1-0.1-0.1-0.1-0.2-0.2l-0.1-0.1c-0.8-0.8-0.9-2.2-0.2-3.1c4.9-6.3,4.9-15.1,0-21.4
	c-0.7-0.9-0.7-2.2,0.2-3.1l0.1-0.1c0.9-0.9,2.4-1,3.3-0.1c0.1,0.1,0.1,0.1,0.2,0.2C329,343.3,329,354.6,322.7,362.6z M281.6,356
	c-0.9,0.9-2.4,0.9-3.3,0c-0.1-0.1-0.2-0.2-0.3-0.4c-2.5-4.1-2.5-9.2,0-13.3c0.7-1.1,2.2-1.4,3.2-0.7c0.1,0.1,0.3,0.2,0.4,0.3
	l0.1,0.1c0.7,0.8,0.9,1.9,0.3,2.8c-1.5,2.5-1.5,5.6,0,8.1c0.6,0.9,0.5,2.1-0.3,2.8L281.6,356z M275,338.3c-4.9,6.3-4.9,15.1,0,21.4
	c0.7,0.9,0.7,2.2-0.2,3.1l-0.1,0.1c-0.9,0.9-2.4,1-3.3,0.1c-0.1-0.1-0.1-0.1-0.2-0.2c-6.3-8-6.3-19.3,0-27.4c0.8-1,2.3-1.2,3.3-0.3
	c0.1,0.1,0.1,0.1,0.2,0.2l0.1,0.1C275.7,336,275.8,337.3,275,338.3z"/>
<text transform="matrix(1 0 0 1 274.0165 400.0831)" class="st10 st11">Created by Gregor Črešnar</text>
<text transform="matrix(1 0 0 1 274.0165 402.381)" class="st10 st11">from the Noun Project</text>
</svg>
